<?xml version="1.0" standalone="no"?>
<!DOCTYPE svg PUBLIC "-//W3C//DTD SVG 1.1//EN" "http://www.w3.org/Graphics/SVG/1.1/DTD/svg11.dtd" >
<svg>
<metadata>
Created by FontForge 20090914 at Wed Jan 10 11:04:25 2018
 By www-data
&#194;&#169; 1992 Carter &#38; Cone Type Inc. &#194;&#169; 1992 Type Solutions, Inc. Portions &#194;&#169; 1992 Microsoft Corp. All rights reserved.
</metadata>
<defs>
<font id="Elephant-Regular" horiz-adv-x="500" >
  <font-face 
    font-family="Elephant"
    font-weight="400"
    font-stretch="normal"
    units-per-em="1000"
    panose-1="2 2 9 4 9 5 5 2 3 3"
    ascent="800"
    descent="-200"
    x-height="473.997"
    cap-height="729.002"
    bbox="-168 -306 1233 983"
    underline-thickness="90"
    underline-position="-88"
    unicode-range="U+0020-U+F002"
  />
<missing-glyph horiz-adv-x="800" 
d="M50 0v800h700v-800h-700zM700 50v700h-600v-700h600z" />
    <glyph glyph-name=".notdef" horiz-adv-x="800" 
d="M50 0v800h700v-800h-700zM700 50v700h-600v-700h600z" />
    <glyph glyph-name="space" unicode=" " horiz-adv-x="250" 
 />
    <glyph glyph-name="exclam" unicode="!" horiz-adv-x="323" 
d="M274 587c0 -40 -18 -92.834 -54 -158.501s-54 -137.834 -54 -216.501h-15c0 72.667 -17.833 148.334 -53.5 227.001s-53.5 128.667 -53.5 150c0 36.667 12.5 70.834 37.5 102.501s51.167 47.5 78.5 47.5c26 0 51.5 -15.5 76.5 -46.5s37.5 -66.167 37.5 -105.5z
M257 88.999c0 -26.667 -9.5 -49.167 -28.5 -67.5s-42.167 -27.5 -69.5 -27.5c-26.667 0 -49.5 9.16699 -68.5 27.5s-28.5 40.833 -28.5 67.5c0 26 9.5 48.167 28.5 66.5s41.833 27.5 68.5 27.5c27.333 0 50.5 -8.83301 69.5 -26.5s28.5 -40.167 28.5 -67.5z" />
    <glyph glyph-name="quotedbl" unicode="&#x22;" horiz-adv-x="375" 
d="M171 659c0 -18 -9.50098 -54.499 -28.501 -109.499s-30.833 -103.5 -35.5 -145.5h-16c-4.66699 39.333 -16.5 87.666 -35.5 144.999s-28.5 94 -28.5 110c0 21.333 9 40.5 27 57.5s33 25.5 45 25.5c10.667 0 25.334 -8.16699 44.001 -24.5s28 -35.833 28 -58.5z
M346.999 659.001c0 -18 -9.50098 -54.499 -28.501 -109.499s-30.833 -103.5 -35.5 -145.5h-16c-4.66699 39.333 -16.5 87.666 -35.5 144.999s-28.5 94 -28.5 110c0 21.333 9 40.5 27 57.5s33 25.5 45 25.5c10.667 0 25.334 -8.16699 44.001 -24.5s28 -35.833 28 -58.5z" />
    <glyph glyph-name="numbersign" unicode="#" horiz-adv-x="769" 
d="M409 724l24 -6l-67 -191h161l69 197l24 -6l-67 -191h165l-45 -119h-162l-39 -107h167l-45 -118h-164l-70 -197l-24 6l68 191h-161l-70 -197l-24 6l68 191h-166l45 118h163l38 107h-167l44 119h166zM321 408l-40 -107h167l40 107h-167z" />
    <glyph glyph-name="dollar" unicode="$" horiz-adv-x="710" 
d="M364 11c32.667 5.33301 60 16.332 82 32.999s33 40.334 33 71.001c0 28.667 -7.5 52 -22.5 70s-45.833 36.667 -92.5 56v-230zM370 739.999l16 0.00195312c72 0 129.667 -13.333 173 -40s65 -65.334 65 -116.001c0 -26.667 -9.5 -49.5 -28.5 -68.5
s-42.167 -28.5 -69.5 -28.5s-51 8.16699 -71 24.5s-30 39.166 -30 68.499c0 26 7.5 47.5 22.5 64.5s29.667 26.333 44 28s21.5 5.83398 21.5 12.501c0 8 -12.5 16 -37.5 24s-50.167 12 -75.5 12l-30 -1v-234l134 -53c45.333 -21.333 81 -48.166 107 -80.499
s39 -70.166 39 -113.499c0 -82 -28.167 -141.833 -84.5 -179.5s-123.5 -60.5 -201.5 -68.5v-96h-21v94l-41 -1c-58.667 0 -115.5 13.833 -170.5 41.5s-82.5 67.5 -82.5 119.5c0 28 10.167 52.5 30.5 73.5s44.833 31.5 73.5 31.5c30.667 0 56 -9 76 -27s30 -42.333 30 -73
c0 -26 -8 -46.333 -24 -61s-33.667 -23.334 -53 -26.001c-10.667 0 -16 -4 -16 -12c0 -8.66699 16.5 -18.834 49.5 -30.501s62.833 -17.5 89.5 -17.5l38 1v241l-77 31.5c-26.667 11 -53.5 23.5 -80.5 37.5s-52.333 38.667 -76 74s-35.5 74.333 -35.5 117
c0 73.333 30.5 130.166 91.5 170.499s122.167 60.5 183.5 60.5v61h21v-61zM349 717.001c-28 -6 -50.167 -17.667 -66.5 -35s-24.5 -39.666 -24.5 -66.999c0 -28.667 8.16699 -52.334 24.5 -71.001s38.5 -35 66.5 -49v222z" />
    <glyph glyph-name="percent" unicode="%" horiz-adv-x="983" 
d="M951 236c0 -66.667 -25.667 -124.667 -77 -174s-117 -74 -197 -74c-24 0 -46.833 4.83301 -68.5 14.5s-40.667 22.667 -57 39s-29 35.833 -38 58.5s-13.5 47 -13.5 73c0 64.667 25.5 122.167 76.5 172.5s116.833 75.5 197.5 75.5c25.333 0 48 -4.66699 68 -14
s38.167 -22 54.5 -38s29.5 -35.167 39.5 -57.5s15 -47.5 15 -75.5zM347 683c0 13.333 -2.16797 22.999 -6.50098 28.999s-12.5 9 -24.5 9c-12.667 0 -24.5 -8.5 -35.5 -25.5s-25 -44.667 -42 -83s-34.5 -83.833 -52.5 -136.5s-27 -90.667 -27 -114
c0 -12.667 2.16699 -22 6.5 -28s12.5 -9 24.5 -9c15.333 0 28.333 9.66699 39 29s23.834 46 39.501 80s32.667 78.833 51 134.5s27.5 93.834 27.5 114.501zM715.999 722.999l14.9971 25c3.33301 4 7 6 11 6s7.5 -1.83301 10.5 -5.5s3.16699 -7.83398 0.5 -12.501l-511 -772
l-19 13l475 718c-22.667 -13.333 -43.834 -22.833 -63.501 -28.5s-44.167 -8.5 -73.5 -8.5c-20 0 -41.5 2.5 -64.5 7.5s-44.833 11.833 -65.5 20.5c18 -21.333 30.5 -43.5 37.5 -66.5s10.5 -44.167 10.5 -63.5c0 -67.333 -25.667 -125.666 -77 -174.999s-117 -74 -197 -74
c-24 0 -46.833 4.83301 -68.5 14.5s-40.167 22.167 -55.5 37.5s-28 34.833 -38 58.5s-15 47.5 -15 71.5c0 65.333 25.167 123.5 75.5 174.5s116.5 76.5 198.5 76.5c16.667 0 31.334 -1.5 44.001 -4.5s31.334 -9.33301 56.001 -19s51.834 -18.5 81.501 -26.5
s56.834 -12 81.501 -12c35.333 0 64.333 3.5 87 10.5s44 18.5 64 34.5zM818.996 363.999c0 13.333 -2.16504 23.167 -6.49805 29.5s-12.5 9.5 -24.5 9.5c-10.667 0 -20.834 -5.83301 -30.501 -17.5s-23.834 -38.667 -42.501 -81s-37.334 -90.833 -56.001 -145.5
s-28 -93.334 -28 -116.001c0 -12.667 2.16699 -22 6.5 -28s12.5 -9 24.5 -9c15.333 0 28.333 9.66699 39 29s23.834 46 39.501 80s32.667 78.833 51 134.5s27.5 93.834 27.5 114.501z" />
    <glyph glyph-name="ampersand" unicode="&#x26;" horiz-adv-x="980" 
d="M504 108c-34.667 39.333 -71.668 88.168 -111.001 146.501s-73.666 117.166 -102.999 176.499c-12.667 -5.33301 -23.167 -17.333 -31.5 -36s-12.5 -40 -12.5 -64c0 -70.667 19.5 -128.667 58.5 -174s83.167 -68 132.5 -68c20 0 34.667 2 44 6s17 8.33301 23 13z
M582.999 616.002c0 32 -6.33301 57.332 -19 75.999s-30.667 28 -54 28c-14 0 -26 -4.66699 -36 -14s-15 -22 -15 -38c0 -20.667 5.5 -45 16.5 -73s24.833 -56 41.5 -84c18 8 33.5 19.833 46.5 35.5s19.5 38.834 19.5 69.501zM676.999 272.001l25.4971 30
c12.333 14.667 23.833 31.334 34.5 50.001s17.334 32.5 20.001 41.5s4 16.167 4 21.5c0 12 -4.5 20 -13.5 24s-21.167 6.66699 -36.5 8l-47 3v16h254v-16c-7.33301 -0.666992 -15.166 -1.16699 -23.499 -1.5s-23 -2.83301 -44 -7.5s-42 -22.5 -63 -53.5
s-39.167 -56.333 -54.5 -76l-44 -54.5c43.333 -53.333 79.5 -90.5 108.5 -111.5s54.833 -31.5 77.5 -31.5c19.333 0 36.666 7.16699 51.999 21.5s24.666 42.5 27.999 84.5h16c0 -72.667 -23.167 -129.5 -69.5 -170.5s-103.166 -61.5 -170.499 -61.5
c-42.667 0 -80.834 8.33301 -114.501 25s-67.167 44 -100.5 82c-42.667 -42.667 -81.667 -71.167 -117 -85.5s-73.666 -21.5 -114.999 -21.5c-74.667 0 -134 21.667 -178 65s-66 95.666 -66 156.999c0 58.667 19.833 109.167 59.5 151.5s100.834 70.5 183.501 84.5
c-12 24 -20.667 43.833 -26 59.5s-8 37.834 -8 66.501c0 41.333 20.333 79.666 61 114.999s101.667 53 183 53c50.667 0 89.5 -11 116.5 -33s40.5 -50.333 40.5 -85c0 -28 -10.667 -52.667 -32 -74s-52.666 -38 -93.999 -50l72 -114.5c24 -36.333 51 -73.5 81 -111.5z" />
    <glyph glyph-name="quotesingle" unicode="'" horiz-adv-x="205" 
d="M178 659c0 -17.333 -10.167 -53.668 -30.5 -109.001s-32.833 -104 -37.5 -146h-16c-4.66699 40 -17.167 88.333 -37.5 145s-30.5 93.334 -30.5 110.001c0 20.667 9.66699 39.667 29 57s35 26 47 26c11.333 0 26.833 -8.33301 46.5 -25s29.5 -36 29.5 -58z" />
    <glyph glyph-name="parenleft" unicode="(" horiz-adv-x="468" 
d="M453 -183v-16c-114 10.667 -205.5 58 -274.5 142s-103.5 191.333 -103.5 322c0 133.333 34.5 241 103.5 323s160.5 129 274.5 141v-16c-66.667 -8 -114.5 -49.167 -143.5 -123.5s-43.5 -182.5 -43.5 -324.5c0 -141.333 14.333 -249.333 43 -324s76.667 -116 144 -124z
" />
    <glyph glyph-name="parenright" unicode=")" horiz-adv-x="468" 
d="M394 265c0 -131.333 -34.332 -238.832 -102.999 -322.499s-160.334 -130.834 -275.001 -141.501v16c67.333 8 115.333 49.167 144 123.5s43 182.5 43 324.5c0 143.333 -14.333 251.833 -43 325.5s-76.667 114.5 -144 122.5v16c114 -12 205.5 -59 274.5 -141
s103.5 -189.667 103.5 -323z" />
    <glyph glyph-name="asterisk" unicode="*" horiz-adv-x="480" 
d="M234 550c-2 25.333 -11.1689 51.668 -27.502 79.001s-24.5 45.666 -24.5 54.999c0 12.667 7.66699 26 23 40s27.333 21 36 21c9.33301 0 21.333 -6.83301 36 -20.5s22 -26.834 22 -39.501c0 -5.33301 -8.33301 -23.333 -25 -54s-26.334 -57.667 -29.001 -81l11 -10
c22.667 9.33301 44.834 26.833 66.501 52.5s39.167 38.5 52.5 38.5c14.667 0 29.5 -5.33301 44.5 -16s22.5 -20.334 22.5 -29.001c0 -12 -5.33301 -26.667 -16 -44s-23.334 -26 -38.001 -26c-4.66699 0 -19 2.66699 -43 8s-41.667 8 -53 8c-10 0 -21 -1 -33 -3l-2 -12
c16 -18.667 41.333 -34.667 76 -48s52 -30.666 52 -51.999c0 -12 -2 -24 -6 -36s-8.33301 -19.667 -13 -23s-13.334 -5 -26.001 -5c-39.333 0 -62.166 22.5 -68.499 67.5s-14.166 75.167 -23.499 90.5h-15c-11.333 -18.667 -18.833 -49.834 -22.5 -93.501
s-27.5 -65.5 -71.5 -65.5c-12.667 0 -21.167 1.66699 -25.5 5s-8.5 10.833 -12.5 22.5s-6 23.167 -6 34.5c0 21.333 17.333 39.333 52 54s60.334 31.334 77.001 50.001l-3 11c-6 1.33301 -12 2.33301 -18 3s-11.667 1 -17 1c-13.333 0 -30.333 -2.5 -51 -7.5
s-34.334 -7.5 -41.001 -7.5c-16.667 0 -30.167 8.5 -40.5 25.5s-15.5 32.5 -15.5 46.5c0 7.33301 7.66699 16.333 23 27s30.333 16 45 16c10.667 0 27.834 -13.167 51.501 -39.5s45.834 -44.166 66.501 -53.499z" />
    <glyph glyph-name="plus" unicode="+" horiz-adv-x="833" 
d="M457 626v-257h252v-81h-252v-258h-81v258h-252v81h252v257h81z" />
    <glyph glyph-name="comma" unicode="," horiz-adv-x="272" 
d="M50 -120c35.333 3.33301 66.3359 15.335 93.0029 36.002s40 46 40 76c0 7.33301 -0.833008 12.666 -2.5 15.999s-4.16699 5 -7.5 5c-4.66699 0 -12.334 -2.33301 -23.001 -7s-20.334 -7 -29.001 -7c-22 0 -42 8.33301 -60 25s-27 37 -27 61
c0 27.333 8.83301 50.5 26.5 69.5s40.5 28.5 68.5 28.5c35.333 0 64.166 -13.167 86.499 -39.5s33.5 -57.833 33.5 -94.5c0 -52.667 -19 -96.334 -57 -131.001s-84.667 -52 -140 -52z" />
    <glyph glyph-name="hyphen" unicode="-" horiz-adv-x="281" 
d="M7 320h267v-155h-267v155z" />
    <glyph glyph-name="hyphen" unicode="&#xad;" horiz-adv-x="281" 
d="M7 320h267v-155h-267v155z" />
    <glyph glyph-name="period" unicode="." horiz-adv-x="272" 
d="M36 89c0 26.667 9.66699 49.332 29 67.999s42.666 28 69.999 28s50.833 -9.16699 70.5 -27.5s29.5 -41.166 29.5 -68.499s-9.66699 -50.333 -29 -69s-43 -28 -71 -28c-27.333 0 -50.666 9.33301 -69.999 28s-29 41.667 -29 69z" />
    <glyph glyph-name="slash" unicode="/" horiz-adv-x="361" 
d="M-32 -101l369 871l45 -16l-369 -870z" />
    <glyph glyph-name="zero" unicode="0" horiz-adv-x="758" 
d="M722 364c0 -96.667 -32 -183.5 -96 -260.5s-146.333 -115.5 -247 -115.5c-106 0 -189.667 40 -251 120s-92 165.333 -92 256c0 96.667 33 183.5 99 260.5s147.333 115.5 244 115.5c100 0 182.167 -39.167 246.5 -117.5s96.5 -164.5 96.5 -258.5zM473 364
c0 55.333 -0.99707 102.667 -2.99707 142s-5.83301 77.5 -11.5 114.5s-14.334 63 -26.001 78s-29.5 22.5 -53.5 22.5c-22 0 -39.5 -7.83301 -52.5 -23.5s-21.833 -39.5 -26.5 -71.5s-8.33398 -72 -11.001 -120s-4 -95.333 -4 -142c0 -51.333 1.16699 -97.833 3.5 -139.5
s6.16602 -80.834 11.499 -117.501s13.833 -62.5 25.5 -77.5s29.5 -22.5 53.5 -22.5c22 0 39.5 7.83301 52.5 23.5s21.667 39.334 26 71.001s8 72.667 11 123s4.5 96.833 4.5 139.5z" />
    <glyph glyph-name="one" unicode="1" horiz-adv-x="527" 
d="M391 125l1.99902 -45.9971c2 -22 6.83301 -36.833 14.5 -44.5s17.834 -12.334 30.501 -14.001s23.5 -2.66699 32.5 -3s18.833 -0.833008 29.5 -1.5v-16h-472v16c7.33301 0 14.833 0.166992 22.5 0.5s20.667 1.66602 39 3.99902s31.333 7.66602 39 15.999
s12.5 23.166 14.5 44.499l2 46v470l-2 46c-2 20.667 -6.83301 35.834 -14.5 45.501s-19 15.5 -34 17.5s-30.167 3.5 -45.5 4.5s-26.333 1.83301 -33 2.5v16h375v-604z" />
    <glyph glyph-name="two" unicode="2" horiz-adv-x="731" 
d="M16 7l136.501 125.002c47 43.333 82.5 77.666 106.5 102.999c63.333 60 105.333 112 126 156s31 91 31 141c0 56 -11.5 100.333 -34.5 133s-56.5 49 -100.5 49c-32 0 -61.833 -8.5 -89.5 -25.5s-41.5 -35.167 -41.5 -54.5c0 -32 17.333 -48 52 -48
c25.333 0 45.833 -7.5 61.5 -22.5s23.5 -34.5 23.5 -58.5c0 -30 -10.333 -55 -31 -75s-46 -30 -76 -30c-37.333 0 -68.333 10.833 -93 32.5s-37 50.167 -37 85.5c0 41.333 14 78.833 42 112.5s59.5 58.167 94.5 73.5s66 25.166 93 29.499s55.833 6.5 86.5 6.5
c80.667 0 149.334 -18 206.001 -54s85 -88 85 -156c0 -42.667 -13.167 -80.667 -39.5 -114s-55.833 -58.5 -88.5 -75.5s-82.834 -38.667 -150.501 -65s-105.167 -45.5 -112.5 -57.5v-4c16.667 1.33301 35.834 2.33301 57.501 3s44.834 1 69.501 1h158
c32.667 0 55.667 4 69 12s23.166 19.333 29.499 34s11.666 29 15.999 43s8.16602 25.667 11.499 35h13l-64 -342h-610v7z" />
    <glyph glyph-name="three" unicode="3" horiz-adv-x="718" 
d="M462 412c68.667 0 123.001 -17.0029 163.001 -51.0029s60 -80 60 -138c0 -78 -40.833 -136.667 -122.5 -176s-173.167 -59 -274.5 -59c-68.667 0 -130.667 17 -186 51s-83 76.333 -83 127c0 38 13 69.667 39 95s58 38 96 38c40 0 72.5 -10.5 97.5 -31.5
s37.5 -48.5 37.5 -82.5c0 -24.667 -4.83301 -43.5 -14.5 -56.5s-22.334 -26.333 -38.001 -40s-25.167 -22.5 -28.5 -26.5s-5 -10.333 -5 -19c0 -12 9.33301 -21.5 28 -28.5s41 -10.5 67 -10.5c48 0 84.167 17.667 108.5 53s36.5 82.333 36.5 141
c0 52 -13.167 98.167 -39.5 138.5s-62.166 60.5 -107.499 60.5c-16 0 -31 -2 -45 -6l-37 -14c-3.33301 0 -6.83301 1.5 -10.5 4.5s-5.5 6.5 -5.5 10.5c0 8 7.16699 13.333 21.5 16s30.833 4 49.5 4c46 0 81.667 13.333 107 40s38 64.334 38 113.001
c0 42.667 -8.83301 78.834 -26.5 108.501s-46.5 44.5 -86.5 44.5c-23.333 0 -45.5 -4.5 -66.5 -13.5s-31.5 -21.5 -31.5 -37.5c0 -8.66699 2.66699 -16 8 -22s15.833 -10.333 31.5 -13s29.167 -10.5 40.5 -23.5s17 -29.5 17 -49.5c0 -28.667 -10.833 -50.667 -32.5 -66
s-49.834 -23 -84.501 -23c-32.667 0 -59.334 9.66699 -80.001 29s-31 44.333 -31 75c0 30 16.333 59.167 49 87.5s70.334 48.5 113.001 60.5s85.667 18 129 18c85.333 0 153.833 -13.667 205.5 -41s77.5 -70.666 77.5 -129.999c0 -44.667 -17.833 -79.5 -53.5 -104.5
s-79.167 -39.833 -130.5 -44.5v-8z" />
    <glyph glyph-name="four" unicode="4" horiz-adv-x="700" 
d="M325 199v193l1 110l-65.5 -75.5c-28.333 -33 -61.833 -70 -100.5 -111s-78 -79.5 -118 -115.5l124 -1h159zM563 199l118 0.00488281v-43h-118v-39c0 -12 0.833008 -26.833 2.5 -44.5s6.33398 -30.334 14.001 -38.001s18.167 -12.334 31.5 -14.001
s25.666 -2.66699 36.999 -3s21 -0.833008 29 -1.5v-16h-474v16c8.66699 0 17.5 0.166992 26.5 0.5s22.667 1.66602 41 3.99902s31.333 7.66602 39 15.999s12.5 23.166 14.5 44.499l2 75h-338v21c51.333 46 105 99 161 159l178 200.5l162 196.5h74v-534z" />
    <glyph glyph-name="five" unicode="5" horiz-adv-x="674" 
d="M77 340l86.999 394.998h9c23.333 -7.33301 51.5 -14.666 84.5 -21.999s69.5 -11 109.5 -11c51.333 0 93 3.66699 125 11l64 25c6.66699 0 10 -6.33301 10 -19c0 -20 -7.5 -42.833 -22.5 -68.5s-40.667 -52.667 -77 -81s-92.5 -42.5 -168.5 -42.5
c-34 0 -63 1.83301 -87 5.5s-46.667 10.5 -68 20.5l-32 -141c30.667 30 64.5 50.5 101.5 61.5s84.833 16.5 143.5 16.5c74 0 139.333 -21.333 196 -64s85 -98.334 85 -167.001c0 -86 -36.833 -152.667 -110.5 -200s-158.834 -71 -255.501 -71
c-73.333 0 -133.166 17.5 -179.499 52.5s-69.5 79.167 -69.5 132.5c0 28 11.333 52.333 34 73s49 31 79 31c36.667 0 67.667 -9.83301 93 -29.5s38 -46.167 38 -79.5s-10.667 -60.666 -32 -81.999s-32 -36.333 -32 -45c0 -12 7.16699 -21.167 21.5 -27.5
s28.833 -9.5 43.5 -9.5c50 0 84 20.333 102 61s27 91.334 27 152.001c0 64.667 -11.167 121.667 -33.5 171s-58.833 74 -109.5 74c-46 0 -80.333 -11.333 -103 -34s-37.167 -40 -43.5 -52s-11.166 -24.667 -14.499 -38z" />
    <glyph glyph-name="six" unicode="6" horiz-adv-x="708" 
d="M433 225c0 16.667 -0.499023 33.001 -1.49902 49.001s-2.5 33.667 -4.5 53c0 34 -5.66699 62 -17 84s-29 33 -53 33c-20 0 -36 -7.83301 -48 -23.5s-19.167 -30.334 -21.5 -44.001s-3.83301 -33.5 -4.5 -59.5s-1 -52.333 -1 -79v-13
c0 -32.667 2.33301 -68.334 7 -107.001s12 -66.834 22 -84.501s26.333 -26.5 49 -26.5c23.333 0 40.666 9.33301 51.999 28s17 46.667 17 84c0 10.667 0.666992 29.334 2 56.001s2 43.334 2 50.001zM359.001 -11.999c-54 0 -101.165 10.6641 -141.498 31.9971
s-74.5 49.833 -102.5 85.5s-48.167 75.334 -60.5 119.001s-18.5 90.167 -18.5 139.5c0 102.667 33.167 191 99.5 265s156.166 111 269.499 111c68 0 126.5 -13.333 175.5 -40s73.5 -62.667 73.5 -108c0 -27.333 -10.333 -49.333 -31 -66s-45.667 -25 -75 -25
c-34.667 0 -64.167 12.167 -88.5 36.5s-36.5 54.833 -36.5 91.5c0 10.667 1.83301 20.834 5.5 30.501l11.5 30.5c0 10.667 -3.33301 18.667 -10 24s-18.667 8 -36 8c-20 0 -37.5 -7.5 -52.5 -22.5s-26.333 -39.833 -34 -74.5s-13.5 -70.167 -17.5 -106.5
s-6 -71.166 -6 -104.499l4 -2c9.33301 22 26.166 38.5 50.499 49.5s52.833 16.5 85.5 16.5c72 0 131.333 -21 178 -63s70 -96 70 -162c0 -77.333 -30.5 -140.833 -91.5 -190.5s-134.833 -74.5 -221.5 -74.5z" />
    <glyph glyph-name="seven" unicode="7" horiz-adv-x="626" 
d="M705 729l2 -6.99902l-98 -100.5c-35.333 -37 -75 -82.167 -119 -135.5s-81.333 -113.833 -112 -181.5s-46 -135.167 -46 -202.5c0 -11.333 0.833008 -27.333 2.5 -48s2.5 -32.667 2.5 -36c0 -45.333 -14 -82.333 -42 -111s-61.667 -43 -101 -43
c-41.333 0 -74 13.667 -98 41s-36 61.666 -36 102.999c0 38.667 13.833 79 41.5 121s60.667 81.667 99 119s75.5 71.833 111.5 103.5l101.5 89l82.5 74.5l-2 5c-8 0 -27 -0.5 -57 -1.5s-50.333 -1.5 -61 -1.5h-224c-33.333 0 -55.833 -3.5 -67.5 -10.5
s-23.167 -22.167 -34.5 -45.5l-12 -30l-12 3l105 363h12l-3 -26c0 -19.333 5.16699 -31.5 15.5 -36.5s29.5 -7.5 57.5 -7.5h176c63.333 0 122.5 0.166992 177.5 0.5s101.167 0.833008 138.5 1.5z" />
    <glyph glyph-name="eight" unicode="8" horiz-adv-x="682" 
d="M159 328c-30.667 22 -53.6689 47.9971 -69.002 77.9971s-23 64.333 -23 103c0 45.333 12.833 85 38.5 119s59.834 61.167 102.501 81.5s93 30.5 151 30.5c71.333 0 131 -17.5 179 -52.5s72 -80.5 72 -136.5c0 -27.333 -8 -50.666 -24 -69.999s-39 -33 -69 -41v-4
c36 -20 66.333 -47 91 -81s37 -72 37 -114c0 -76.667 -30.167 -138 -90.5 -184s-134.166 -69 -221.499 -69c-36 0 -70.333 4.33301 -103 13s-72.5 28.334 -119.5 59.001s-70.5 77.667 -70.5 141c0 34.667 11.167 62.834 33.5 84.501s50.833 34.167 85.5 37.5v5z
M499.998 444.997c18 14 31.8311 31.4971 41.498 52.4971s14.5 44.5 14.5 70.5c0 47.333 -17.167 84.5 -51.5 111.5s-80.166 40.5 -137.499 40.5c-33.333 0 -61 -9.33301 -83 -28s-33 -43 -33 -73c0 -29.333 10 -53.666 30 -72.999s39.833 -33.166 59.5 -41.499
s47.834 -18.666 84.501 -30.999s61.667 -21.833 75 -28.5zM173.996 317.994c-19.333 -10.667 -34.667 -27.335 -46 -50.002s-17 -50.667 -17 -84c0 -50 20.667 -92 62 -126s94 -51 158 -51c37.333 0 70.166 9.33301 98.499 28s42.5 45 42.5 79
c0 30.667 -7.66699 55.834 -23 75.501s-50.166 40.334 -104.499 62.001z" />
    <glyph glyph-name="nine" unicode="9" horiz-adv-x="706" 
d="M275 503c0 -11.333 0.833008 -29.498 2.5 -54.498s2.5 -41.167 2.5 -48.5c0 -34 5.66699 -62 17 -84s29 -33 53 -33c20.667 0 36.667 7.66699 48 23s18 29.666 20 42.999s3.5 36.333 4.5 69s1.5 61 1.5 85c0 12.667 -0.666992 29.167 -2 49.5s-3.5 44.666 -6.5 72.999
s-9.5 51.333 -19.5 69s-26.333 26.5 -49 26.5c-46 0 -69 -37.333 -69 -112zM348 740.002c54 0 100.334 -10.332 139.001 -30.999s72.667 -48.334 102 -83.001s50.166 -73.667 62.499 -117s18.5 -90 18.5 -140c0 -105.333 -34 -195.166 -102 -269.499
s-158.333 -111.5 -271 -111.5c-70.667 0 -123 9.83301 -157 29.5s-57 37.667 -69 54s-18 35.833 -18 58.5c0 28.667 10.167 51 30.5 67s45.166 24 74.499 24c34 0 63.667 -11 89 -33s38 -48.667 38 -80c0 -14 -2 -27.333 -6 -40s-6 -22.334 -6 -29.001
c0 -10 3.33301 -17.667 10 -23s18.334 -8 35.001 -8c20 0 36.833 6.5 50.5 19.5s24.834 36.167 33.501 69.5s15 69 19 107s6 76.667 6 116l-4 2c-10 -22 -27.833 -39.833 -53.5 -53.5s-54.5 -20.5 -86.5 -20.5c-70.667 0 -129.5 20.667 -176.5 62s-70.5 96.333 -70.5 165
c0 76.667 30.167 140 90.5 190s134.166 75 221.499 75z" />
    <glyph glyph-name="colon" unicode=":" horiz-adv-x="312" 
d="M56 89c0 26.667 9.66699 49.332 29 67.999s42.666 28 69.999 28s50.833 -9.16699 70.5 -27.5s29.5 -41.166 29.5 -68.499s-9.66699 -50.333 -29 -69s-43 -28 -71 -28c-27.333 0 -50.666 9.33301 -69.999 28s-29 41.667 -29 69zM56 377.998
c0 26.667 9.66699 49.332 29 67.999s42.666 28 69.999 28s50.833 -9.16699 70.5 -27.5s29.5 -41.166 29.5 -68.499s-9.66699 -50.333 -29 -69s-43 -28 -71 -28c-27.333 0 -50.666 9.33301 -69.999 28s-29 41.667 -29 69z" />
    <glyph glyph-name="semicolon" unicode=";" horiz-adv-x="312" 
d="M70 -120c36 3.33301 67.168 15.002 93.501 35.002s39.5 45.667 39.5 77c0 7.33301 -0.833008 12.666 -2.5 15.999s-4.16699 5 -7.5 5c-6 0 -14 -2.16699 -24 -6.5s-18.667 -6.5 -26 -6.5c-24 0 -44.833 7.83301 -62.5 23.5s-26.5 36.167 -26.5 61.5
c0 27.333 8.83301 50.5 26.5 69.5s40.5 28.5 68.5 28.5c35.333 0 64.166 -13.167 86.499 -39.5s33.5 -57.833 33.5 -94.5c0 -52.667 -19 -96.334 -57 -131.001s-84.667 -52 -140 -52zM56.001 378.002c0 26.667 9.66699 49.332 29 67.999s42.666 28 69.999 28
s50.833 -9.16699 70.5 -27.5s29.5 -41.166 29.5 -68.499s-9.66699 -50.333 -29 -69s-43 -28 -71 -28c-27.333 0 -50.666 9.33301 -69.999 28s-29 41.667 -29 69z" />
    <glyph glyph-name="less" unicode="&#x3c;" horiz-adv-x="833" 
d="M249 332v-5l455 -184l-32 -76l-543 224v76l543 224l32 -76z" />
    <glyph glyph-name="equal" unicode="=" horiz-adv-x="833" 
d="M701 471v-81h-569v81h569zM701 269v-81h-569v81h569z" />
    <glyph glyph-name="greater" unicode="&#x3e;" horiz-adv-x="833" 
d="M704 291l-543 -226l-32 76l455 186v5l-455 185l32 76l543 -226v-76z" />
    <glyph glyph-name="question" unicode="?" horiz-adv-x="618" 
d="M275 88c0 -26.667 -9.5 -49.167 -28.5 -67.5s-42.167 -27.5 -69.5 -27.5c-26.667 0 -49.5 9.16699 -68.5 27.5s-28.5 40.833 -28.5 67.5c0 26 9.5 48.167 28.5 66.5s41.833 27.5 68.5 27.5c27.333 0 50.5 -8.83301 69.5 -26.5s28.5 -40.167 28.5 -67.5zM164 210
l-0.00195312 193h16c2.66699 -14 6 -26.333 10 -37s10.167 -20.167 18.5 -28.5s18.333 -15 30 -20s23.834 -7.5 36.501 -7.5c29.333 0 53.166 14 71.499 42s27.5 75.333 27.5 142c0 61.333 -9.16699 113.5 -27.5 156.5s-53.166 64.5 -104.499 64.5
c-22.667 0 -42.5 -4 -59.5 -12s-25.5 -18.667 -25.5 -32c0 -4.66699 2.16699 -8.66699 6.5 -12s11.833 -5 22.5 -5c24.667 0 44.834 -7.5 60.501 -22.5s23.5 -34.5 23.5 -58.5c0 -26.667 -10.333 -48.667 -31 -66s-45.334 -26 -74.001 -26c-25.333 0 -47.333 9.33301 -66 28
s-28 42 -28 70c0 47.333 22.333 86 67 116s95 45 151 45c80.667 0 148.334 -19.5 203.001 -58.5s82 -96.833 82 -173.5c0 -70 -25.333 -125 -76 -165s-113.667 -60 -189 -60c-28 0 -52 5 -72 15s-36.333 23.667 -49 41h-4v-129h-20z" />
    <glyph glyph-name="at" unicode="@" horiz-adv-x="986" 
d="M601 313c10 28.667 14.998 49.999 14.998 63.999c0 9.33301 -2.16699 16.333 -6.5 21s-11.166 7 -20.499 7c-10.667 0 -23 -8.16699 -37 -24.5s-27.667 -37.5 -41 -63.5l-33 -65c-8.66699 -17.333 -14 -28.666 -16 -33.999l-43 -98c-9.33301 -22.667 -16.333 -41 -21 -55
s-7 -24.667 -7 -32c0 -5.33301 1.33301 -9.33301 4 -12s6.33398 -4 11.001 -4c16.667 0 36 10.5 58 31.5s39.667 46.167 53 75.5l44 94l22.5 51c7.66699 17.333 13.5 32 17.5 44zM917.998 327.999c0 73.333 -23.3359 137.168 -70.0029 191.501s-131 81.5 -253 81.5
c-118 0 -220.667 -45.333 -308 -136s-131 -196 -131 -316c0 -108 31.833 -191.333 95.5 -250s142.167 -88 235.5 -88c54.667 0 107.834 8.33301 159.501 25s114.834 52 189.501 106l8 -12c-53.333 -44 -111.166 -79 -173.499 -105s-126.833 -39 -193.5 -39
c-118.667 0 -219 31.667 -301 95s-123 153.666 -123 270.999c0 138.667 52.833 255.334 158.5 350.001s231.167 142 376.5 142c105.333 0 190.333 -28.333 255 -85s97 -130.667 97 -222c0 -52.667 -9.33301 -99.834 -28 -141.501s-45.334 -80.167 -80.001 -115.5
s-70 -59.333 -106 -72s-68 -19 -96 -19c-32 0 -58.833 8.33301 -80.5 25s-32.5 40.334 -32.5 71.001l-4 1c-22 -32 -43.667 -55.333 -65 -70s-49.333 -22 -84 -22c-36 0 -65.5 11.167 -88.5 33.5s-34.5 52.5 -34.5 90.5c0 71.333 32.5 142.666 97.5 213.999
s137.5 107 217.5 107c20 0 37.333 -4.66699 52 -14s22 -24 22 -44c-0.666992 -4 -1 -7 -1 -9h4l25 58h177l-45 -97l-64.5 -140.5l-45.5 -101c-5.33301 -12.333 -8 -24.166 -8 -35.499c0 -10 2.33301 -17.667 7 -23s11.667 -8 21 -8c18.667 0 38.334 5.5 59.001 16.5
s45 31.667 73 62s49.333 63.166 64 98.499s22 77.333 22 126z" />
    <glyph glyph-name="A" unicode="A" horiz-adv-x="748" 
d="M341 249l-88 246l-85 -246h173zM161 228l-31 -104c-6.66699 -24 -10 -43 -10 -57c0 -15.333 3.83301 -26 11.5 -32s17.5 -10.167 29.5 -12.5s23.667 -3.83301 35 -4.5l33 -2v-16h-282v16l59 4c22 2.66699 38.667 8.16699 50 16.5s19.833 18.833 25.5 31.5
s12 27.667 19 45s12.833 33 17.5 47l191 572h110l211 -572l31 -78c9.33301 -20.667 18.833 -35.5 28.5 -44.5s23.167 -14.833 40.5 -17.5l41 -4v-16h-475v16c8 0 15.167 0.166992 21.5 0.5s17.833 1.83301 34.5 4.5s28.667 6.16699 36 10.5s11 13.5 11 27.5
c0 14.667 -4.66699 35.667 -14 63l-36 106h-188z" />
    <glyph glyph-name="B" unicode="B" horiz-adv-x="881" 
d="M478 396c28 5.33301 46.666 21.6641 55.999 48.9971s14 62 14 104c0 34 -6.16699 66.833 -18.5 98.5s-27.666 49.834 -45.999 54.501s-35.333 7.33398 -51 8.00098s-29.5 1.33398 -41.5 2.00098v-323c12.667 0 25.5 0.166992 38.5 0.5s29.167 2.5 48.5 6.5z
M513.999 -1.00195l-489.001 1.00195v16h31c14 2 27.667 3.83301 41 5.5s23.833 6.66699 31.5 15s12.5 23.166 14.5 44.499l2 46v474l-2 46c-2 21.333 -7 36.333 -15 45s-19.167 14 -33.5 16s-27.333 3.16699 -39 3.5s-22.167 0.833008 -31.5 1.5v16l462 1
c62.667 0 111.667 -2.33301 147 -7s64.833 -15 88.5 -31s42.167 -35.833 55.5 -59.5s20 -51.834 20 -84.501c0 -48.667 -14.167 -83.667 -42.5 -105s-56.666 -35.5 -84.999 -42.5s-63.166 -10.5 -104.499 -10.5v-8c48.667 0 85.167 -1.83301 109.5 -5.5
s48.666 -10.5 72.999 -20.5s45.833 -28.833 64.5 -56.5s28 -63.167 28 -106.5c0 -42 -9.66699 -77 -29 -105s-44 -48.833 -74 -62.5s-66.667 -21.5 -110 -23.5s-81 -3 -113 -3zM514.998 28c22 5.33301 37.833 26.333 47.5 63s14.5 75 14.5 115c0 36 -7.5 71.167 -22.5 105.5
s-33.167 52.833 -54.5 55.5s-37.833 4.16699 -49.5 4.5s-20.5 0.5 -26.5 0.5h-33v-354h12c24 0 44 0.5 60 1.5s33.333 3.83301 52 8.5z" />
    <glyph glyph-name="C" unicode="C" horiz-adv-x="793" 
d="M443 -12c-114.667 0 -208.837 35.498 -282.504 106.498s-110.5 160.833 -110.5 269.5c0 111.333 36.5 201.833 109.5 271.5s167.167 104.5 282.5 104.5c49.333 0 92 -8.33301 128 -25l106 -60c20 0 33.333 6.83301 40 20.5s11.334 33.167 14.001 58.5h20v-316h-17
c-29.333 81.333 -50.166 136.333 -62.499 165s-32.833 56.334 -61.5 83.001s-65.334 40 -110.001 40c-58 0 -101 -32.667 -129 -98s-42 -141.666 -42 -228.999c0 -94 16.833 -175.5 50.5 -244.5s83.167 -103.5 148.5 -103.5c60.667 0 109.334 22 146.001 66
s61 101.333 73 172l17 -3c-9.33301 -80 -39.666 -146.333 -90.999 -199s-127.666 -79 -228.999 -79z" />
    <glyph glyph-name="D" unicode="D" horiz-adv-x="941" 
d="M27 0l-0.000976562 16.002c8.66699 0 18.667 0.5 30 1.5s24.166 2.33301 38.499 4s25.333 6.66699 33 15s12.5 23.166 14.5 44.499l2 46v474l-2 46c-2 21.333 -7 36.333 -15 45s-19.167 14 -33.5 16s-27.333 3.16699 -39 3.5s-22.167 0.833008 -31.5 1.5v16l373 2
c78 0 151.5 -7.33301 220.5 -22s132.667 -52 191 -112s87.5 -144.667 87.5 -254c0 -104.667 -26.167 -181.834 -78.5 -231.501s-107.666 -80.667 -165.999 -93s-126.166 -18.5 -203.499 -18.5h-421zM496.999 700.002c-9.33301 4 -23.833 6.66797 -43.5 8.00098
s-36.5 2 -50.5 2h-12v-691c4.66699 0 9 -0.166992 13 -0.5s9 -0.5 15 -0.5c25.333 0 48.5 1.66699 69.5 5s40.667 11.833 59 25.5s36 50 53 109s25.5 119.5 25.5 181.5c0 86.667 -10.5 164.167 -31.5 232.5s-53.5 111.166 -97.5 128.499z" />
    <glyph glyph-name="E" unicode="E" horiz-adv-x="868" 
d="M391 20c28 0.666992 56.668 1.16895 86.001 1.50195s60.333 2.66602 93 6.99902s73 37.333 121 99s83.333 125.167 106 190.5h16v-318h-786v16c8.66699 0 18.667 0.5 30 1.5s24.166 2.33301 38.499 4s25.333 6.66699 33 15s12.5 23.166 14.5 44.499l2 46v474l-2 46
c-2 21.333 -7 36.333 -15 45s-19.167 14 -33.5 16s-27.333 3.16699 -39 3.5s-22.167 0.833008 -31.5 1.5v16h769v-296h-16c-34 74.667 -75.333 137.5 -124 188.5s-89.5 78.167 -122.5 81.5s-60.833 5.33301 -83.5 6s-37.667 1 -45 1h-9l-2 -328l42 2
c38.667 4 67.834 22.167 87.501 54.5s29.5 70.5 29.5 114.5h19v-364h-19c0 44.667 -9.83301 83.667 -29.5 117s-48.834 52 -87.501 56l-42 2v-344z" />
    <glyph glyph-name="F" unicode="F" horiz-adv-x="784" 
d="M773 729l-0.000976562 -324h-16c-28 60.667 -54 111.667 -78 153s-53.5 76.5 -88.5 105.5s-76.167 43.5 -123.5 43.5l-76 3v-321l46 2c38.667 4 67.834 22.333 87.501 55s29.5 70.667 29.5 114h19v-364h-19c0 44.667 -9.66699 83.667 -29 117s-48.666 52 -87.999 56
l-46 2v-241l2 -46c2 -21.333 7.33301 -36.666 16 -45.999s20.167 -15 34.5 -17s27.333 -3.16699 39 -3.5s22.167 -0.833008 31.5 -1.5v-16h-487v16c8.66699 0 18.667 0.5 30 1.5s24.166 2.33301 38.499 4s25.333 6.66699 33 15s12.5 23.166 14.5 44.499l2 46v474l-2 46
c-2 21.333 -7 36.333 -15 45s-19.167 14 -33.5 16s-27.333 3.16699 -39 3.5s-22.167 0.833008 -31.5 1.5v16h749z" />
    <glyph glyph-name="G" unicode="G" horiz-adv-x="909" 
d="M327 379c0 -105.333 10.334 -192.833 31.001 -262.5s56.667 -104.5 108 -104.5c25.333 0 44.666 5 57.999 15s21.666 21.167 24.999 33.5s5.33301 26.833 6 43.5s1 37.334 1 62.001v39c0 28.667 -1 48 -3 58c-2 22 -6.5 37 -13.5 45s-17.833 13 -32.5 15
s-28 3.16699 -40 3.5s-23 0.833008 -33 1.5v16h468v-16l-46 -3c-20.667 -2 -34.5 -6.83301 -41.5 -14.5s-11.5 -22.834 -13.5 -45.501l-2 -47v-131l2 -90h-15c-8.66699 19.333 -23.834 37 -45.501 53s-45.5 24 -71.5 24c-23.333 0 -56.666 -14.333 -99.999 -43
s-100.666 -43 -171.999 -43c-98.667 0 -181.667 35.667 -249 107s-101 161 -101 269c0 113.333 37 204.333 111 273s168.333 103 283 103c62.667 0 122 -14 178 -42s87.333 -42.667 94 -44c19.333 0 32.333 7.16699 39 21.5s13 34.833 19 61.5h20v-323h-17
c-20 82.667 -53.167 152.667 -99.5 210s-105.5 86 -177.5 86c-57.333 0 -100 -33.167 -128 -99.5s-42 -143.5 -42 -231.5z" />
    <glyph glyph-name="H" unicode="H" horiz-adv-x="1005" 
d="M614 362l-223 -0.000976562v-237l2 -46c0 -22 3.83301 -36.833 11.5 -44.5s22.167 -12.834 43.5 -15.501l36 -3v-16h-446v16l50 4c19.333 2.66699 32.833 8.33398 40.5 17.001s12.5 23.334 14.5 44.001l2 46v475l-2 46c-2 21.333 -6.5 36.166 -13.5 44.499
s-20.833 13.833 -41.5 16.5l-52 4v16h448v-16l-36 -3c-21.333 -2 -35.833 -7.16699 -43.5 -15.5s-11.5 -23.166 -11.5 -44.499l-2 -46v-220h223v220l-2 46c-2 22 -6.5 36.833 -13.5 44.5s-20.833 12.834 -41.5 15.501l-36 3v16h448v-16l-52 -4
c-19.333 -2.66699 -32.833 -8.33398 -40.5 -17.001s-12.5 -23.334 -14.5 -44.001l-2 -46v-475l2 -46c2 -21.333 6.5 -36.166 13.5 -44.499s20.833 -13.833 41.5 -16.5l50 -4v-16h-446v16l36 3c21.333 2.66699 35.333 7.66699 42 15s11 22.333 13 45l2 46v237z" />
    <glyph glyph-name="I" unicode="I" horiz-adv-x="536" 
d="M502 0l-471.001 0.00292969v16c4.66699 0 11 0.166992 19 0.5s21.167 1.66602 39.5 3.99902s31.333 7.83301 39 16.5s12.5 23.334 14.5 44.001l2 46v475l-2 46c-2 21.333 -6.5 36.166 -13.5 44.499s-20.833 13.833 -41.5 16.5l-54 4v16h468v-16l-54 -3
c-20.667 -2 -34.5 -6.83301 -41.5 -14.5s-11.5 -22.834 -13.5 -45.501l-2 -46v-479l2 -46c2 -22 6.83301 -36.833 14.5 -44.5s21.834 -12.834 42.501 -15.501l52 -3v-16z" />
    <glyph glyph-name="J" unicode="J" horiz-adv-x="656" 
d="M292 115l2 45.999v443l-2 46c-2 22 -6.5 36.833 -13.5 44.5s-17 12.334 -30 14.001s-24 2.66699 -33 3s-16.833 0.833008 -23.5 1.5v16h452v-16l-47 -4c-20 -2.66699 -33.667 -8 -41 -16s-12 -23 -14 -45l-2 -46v-347c0 -73.333 -35.167 -136.166 -105.5 -188.499
s-148.166 -78.5 -233.499 -78.5c-62.667 0 -113.834 14.667 -153.501 44s-59.5 70.333 -59.5 123c0 33.333 12.333 62 37 86s54 36 88 36c40 0 71.667 -11.333 95 -34s35 -52.334 35 -89.001c0 -32 -7.66699 -57.667 -23 -77l-51 -54c0 -6.66699 4.66699 -11.167 14 -13.5
s21 -3.5 35 -3.5c28.667 0 48.167 11.167 58.5 33.5s15.5 47.5 15.5 75.5z" />
    <glyph glyph-name="K" unicode="K" horiz-adv-x="932" 
d="M418 340l-27 -32.001v-183l2 -46c2 -22 6.5 -36.833 13.5 -44.5s20.833 -12.834 41.5 -15.501l36 -3v-16h-446v16l50 4c19.333 2.66699 32.833 8.33398 40.5 17.001s12.5 23.334 14.5 44.001l2 46v475l-2 46c-2 21.333 -6.5 36.166 -13.5 44.499
s-20.833 13.833 -41.5 16.5l-52 4v16h451v-16l-39 -3c-20.667 -2 -34.5 -6.83301 -41.5 -14.5s-11.5 -22.834 -13.5 -45.501l-2 -46v-270l81 94l106.5 123.5c36.333 42.333 60.666 72 72.999 89s18.5 30.833 18.5 41.5c0 9.33301 -3.5 16 -10.5 20s-16.5 6.66699 -28.5 8
l-47 3v16h254v-16c-8.66699 -0.666992 -17.667 -1.16699 -27 -1.5s-20.666 -1.83301 -33.999 -4.5s-27.166 -8 -41.499 -16s-31.166 -22.667 -50.499 -44l-100 -115l273 -422c25.333 -38 43.666 -61.667 54.999 -71s23.666 -15.166 36.999 -17.499
s23.5 -3.66602 30.5 -3.99902s13.167 -0.833008 18.5 -1.5v-16h-481v16l42 2c14 1.33301 24.333 3.33301 31 6s10 9 10 19c0 6 -1.66699 13.5 -5 22.5s-11 22.667 -23 41l-40.5 62l-60 90z" />
    <glyph glyph-name="L" unicode="L" horiz-adv-x="819" 
d="M477 23c40 0 79.833 18.334 119.5 55.001s74.667 79 105 127s57.833 98.667 82.5 152h16v-357h-782v16c5.33301 0 12.833 0.166992 22.5 0.5s24.334 1.66602 44.001 3.99902s33.834 7.83301 42.501 16.5s14 23.334 16 44.001l2 46v475l-2 46
c-2 21.333 -6.5 36.166 -13.5 44.499s-17.833 13.5 -32.5 15.5s-27.334 3.16699 -38.001 3.5s-20.334 0.833008 -29.001 1.5v16h484v-16l-66 -3c-20 -2 -33.667 -7 -41 -15s-12 -23 -14 -45l-2 -46v-584z" />
    <glyph glyph-name="M" unicode="M" horiz-adv-x="1081" 
d="M162 605v-466.999l2 -48c2 -21.333 7.5 -37.5 16.5 -48.5s23.833 -17.833 44.5 -20.5l70 -5v-16h-288v16c10 0.666992 20.833 1.16699 32.5 1.5s25.834 1.66602 42.501 3.99902s29.834 9.16602 39.501 20.499s15.5 27.333 17.5 48l2 48v464l-2 46
c-4.66699 16 -11.834 29.333 -21.501 40s-21.334 17 -35.001 19s-27.167 3.33301 -40.5 4s-23.333 1.33398 -30 2.00098v16h370l168 -434l151 434h360v-16h-23c-6.66699 0 -20.5 -1.33301 -41.5 -4s-35.5 -8.33398 -43.5 -17.001s-13 -23.667 -15 -45l-2 -46v-474l2 -46
c2 -21.333 6.5 -36.166 13.5 -44.499s20.833 -13.833 41.5 -16.5l50 -4v-16h-456v16l46 3c21.333 2.66699 35.333 7.66699 42 15s11 22.333 13 45l2 46v371c0 20.667 0.833008 45.167 2.5 73.5s3.5 54.833 5.5 79.5h-6l-41 -129l-177 -520h-62l-244 605h-6z" />
    <glyph glyph-name="N" unicode="N" horiz-adv-x="900" 
d="M896 713c-8.66699 -0.666992 -18.168 -1.33496 -28.501 -2.00195s-24.833 -2.5 -43.5 -5.5s-32.834 -10.667 -42.501 -23s-15.5 -29.166 -17.5 -50.499l-2 -48v-584h-122l-475 608h-4v-467l2 -48c2 -22 7.5 -38.333 16.5 -49s22.667 -17.5 41 -20.5s34 -4.83301 47 -5.5
s21.833 -1.33398 26.5 -2.00098v-16h-288v16c8.66699 0.666992 18.334 1.33398 29.001 2.00098s29.5 3.16699 56.5 7.5s42.5 26.833 46.5 67.5l2 48v455l-2 46c-8.66699 14 -19 27 -31 39s-25.167 20.333 -39.5 25s-28.166 7 -41.499 7h-30v16h382l359 -460h4v319l-2 48
c-2 21.333 -7.5 37.5 -16.5 48.5s-22.5 18 -40.5 21s-32.5 4.83301 -43.5 5.5s-21.167 1.33398 -30.5 2.00098v16h288v-16z" />
    <glyph glyph-name="O" unicode="O" horiz-adv-x="906" 
d="M858 364c0 -106.667 -40.333 -196 -121 -268s-176 -108 -286 -108c-114.667 0 -210.5 35.5 -287.5 106.5s-115.5 160.833 -115.5 269.5c0 112 39.333 202.667 118 272s173.667 104 285 104s207 -35.167 287 -105.5s120 -160.5 120 -270.5zM554 637
c-20 56 -54.334 83.999 -103.001 83.999c-24.667 0 -46 -8 -64 -24s-31.833 -39.167 -41.5 -69.5s-16.667 -69.333 -21 -117s-6.5 -96.5 -6.5 -146.5c0 -68.667 2.66699 -124.667 8 -168s15.333 -85.666 30 -126.999s46.334 -62 95.001 -62c24.667 0 46 8 64 24
s31.833 39.167 41.5 69.5s16.667 69.333 21 117s6.5 96.5 6.5 146.5c0 59.333 -2 110.833 -6 154.5s-12 83.167 -24 118.5z" />
    <glyph glyph-name="P" unicode="P" horiz-adv-x="813" 
d="M513 0l-488.003 0.000976562v16h31c14 2 27.667 3.83301 41 5.5s23.833 6.66699 31.5 15s12.5 23.166 14.5 44.499l2 46v474l-2 46c-2 21.333 -7 36.333 -15 45s-19.167 14 -33.5 16s-27.333 3.16699 -39 3.5s-22.167 0.833008 -31.5 1.5v16l467 1
c108.667 0 180.834 -12 216.501 -36s60.5 -49.833 74.5 -77.5s21 -57.5 21 -89.5c0 -30 -4.66699 -58.667 -14 -86s-23.666 -49.833 -42.999 -67.5s-43.333 -30.834 -72 -39.501s-65.667 -13 -111 -13c-43.333 0 -78.333 -0.166992 -105 -0.5s-49 -0.833008 -67 -1.5v-192
l2 -46c2 -21.333 6.83301 -36.166 14.5 -44.499s18.834 -13.5 33.501 -15.5s29 -3.16699 43 -3.5s23.667 -0.833008 29 -1.5v-16zM552.997 529.001c0 38 -5 75 -15 111s-25.167 56.833 -45.5 62.5s-40 8.66699 -59 9s-33.167 0.5 -42.5 0.5v-374l41 2
c14 0.666992 32.5 3.16699 55.5 7.5s39.667 24.333 50 60s15.5 76.167 15.5 121.5z" />
    <glyph glyph-name="Q" unicode="Q" horiz-adv-x="906" 
d="M368 55c21.333 -31.333 49 -46.999 83 -46.999c13.333 0 26.666 3 39.999 9c-6 26.667 -14.5 48.667 -25.5 66s-26.167 26 -45.5 26c-15.333 0 -27.166 -4.83301 -35.499 -14.5s-13.833 -22.834 -16.5 -39.501zM673 56.001c11.333 -6 25.165 -11.335 41.498 -16.002
s32.166 -7 47.499 -7c37.333 0 66 9.33301 86 28s30 47.334 30 86.001h14v-73c0 -68.667 -18.167 -125 -54.5 -169s-84.166 -66 -143.499 -66c-49.333 0 -90.333 14.5 -123 43.5s-57 66.5 -73 112.5c-7.33301 -1.33301 -15.166 -2.66602 -23.499 -3.99902
s-16.166 -2 -23.499 -2c-114.667 0 -210.5 35.5 -287.5 106.5s-115.5 160.5 -115.5 268.5c0 111.333 39.5 201.833 118.5 271.5s173.833 104.5 284.5 104.5s206.167 -35.5 286.5 -106.5s120.5 -160.833 120.5 -269.5c0 -64 -17 -123 -51 -177s-78.667 -97.667 -134 -131z
M583.999 363.999c0 59.333 -1.99902 110.833 -5.99902 154.5s-14 88.334 -30 134.001s-48.333 68.5 -97 68.5c-24.667 0 -46 -8 -64 -24s-31.833 -39.167 -41.5 -69.5s-16.667 -69.333 -21 -117s-6.5 -96.5 -6.5 -146.5c0 -54.667 2.83301 -110 8.5 -166
s15.167 -98 28.5 -126h4c3.33301 20.667 12.833 39 28.5 55s35.5 24 59.5 24c26 0 48.667 -5.33301 68 -16c19.333 -13.333 32.666 -22.333 39.999 -27c10.667 32.667 18.167 71.167 22.5 115.5s6.5 91.166 6.5 140.499z" />
    <glyph glyph-name="R" unicode="R" horiz-adv-x="912" 
d="M391 364l0.00390625 -234l2 -46c2 -21.333 7.33301 -36.666 16 -45.999s23.334 -15.333 44.001 -18l51 -4v-16h-480v16h31l42 5.5c13.333 1.66699 23.833 6.66699 31.5 15s12.5 23.166 14.5 44.499l2 46v474l-2 46c-2 21.333 -7 36.333 -15 45s-19.333 14 -34 16
s-27.334 3.16699 -38.001 3.5s-20.667 0.833008 -30 1.5v16l447 1c62 0 112.333 -2.66699 151 -8s70.167 -16 94.5 -32s43.666 -35.833 57.999 -59.5s21.5 -51.167 21.5 -82.5c0 -23.333 -4.16699 -46.666 -12.5 -69.999s-21.166 -43.333 -38.499 -60
s-38.833 -29.667 -64.5 -39s-66.5 -14 -122.5 -14v-7c34 -7.33301 62.5 -14.333 85.5 -21s43.833 -16.334 62.5 -29.001s35.5 -31.5 50.5 -56.5s27.167 -52.333 36.5 -82s17.666 -50.667 24.999 -63s17.666 -18.5 30.999 -18.5c17.333 0 28.833 11.167 34.5 33.5
s8.5 47.833 8.5 76.5h16c0 -32.667 -2 -58.667 -6 -78s-14 -39.5 -30 -60.5s-38.833 -38 -68.5 -51s-61.834 -19.5 -96.501 -19.5c-54 0 -97.167 15.5 -129.5 46.5s-52.333 71.667 -60 122s-13.834 92.833 -18.501 127.5c-7.33301 38.667 -17 61.167 -29 67.5
s-25 9.83301 -39 10.5s-28 1 -42 1zM471.004 385c25.333 4 44.501 22.3311 57.501 54.998s19.5 69 19.5 109c0 32.667 -6.66699 64.834 -20 96.501s-29.333 50.167 -48 55.5s-35.334 8.33301 -50.001 9s-27.667 1.33398 -39 2.00098v-330h34c18.667 0 34 1 46 3z" />
    <glyph glyph-name="S" unicode="S" horiz-adv-x="710" 
d="M671 214c0 -66 -27.8379 -120.169 -83.5049 -162.502s-116.167 -63.5 -181.5 -63.5c-57.333 0 -114 18.167 -170 54.5s-88.333 54.5 -97 54.5c-22 0 -35.667 -8.33301 -41 -25s-10.333 -44.667 -15 -84h-17v358h17l20.5 -69c9.66699 -32 27.667 -70.167 54 -114.5
s61 -81.166 104 -110.499s92.833 -44 149.5 -44c32.667 0 59.334 8.66699 80.001 26s31 38 31 62c0 28.667 -7.66699 51.334 -23 68.001s-43 32.834 -83 48.501l-127 50.5c-44.667 18 -92 42.333 -142 73c-50 30 -75 86.667 -75 170c0 65.333 26.333 120.666 79 165.999
s113.334 68 182.001 68c38 0 75 -9 111 -27l104 -58c19.333 0 32 8.16699 38 24.5s9 36.5 9 60.5h19v-265h-18c-3.33301 11.333 -10.166 30.666 -20.499 57.999s-30.333 58 -60 92s-59 58.5 -88 73.5s-63.833 22.5 -104.5 22.5c-27.333 0 -52.666 -8 -75.999 -24
s-35 -36 -35 -60c0 -25.333 8.83301 -46.5 26.5 -63.5s38 -30.5 61 -40.5s54.833 -22.667 95.5 -38s82.834 -33.166 126.501 -53.499s79.5 -50 107.5 -89s42 -85.167 42 -138.5z" />
    <glyph glyph-name="T" unicode="T" horiz-adv-x="802" 
d="M6 729h790v-321h-17c-18 40.667 -39.5 83.834 -64.5 129.501s-51.167 85.5 -78.5 119.5s-51.333 51 -72 51l-40 2v-583l2 -46c2 -21.333 6.5 -36.166 13.5 -44.499s17.833 -13.333 32.5 -15s28 -2.83398 40 -3.50098s22.667 -1.33398 32 -2.00098v-16h-489v16l66 3
c20 2 33.667 7 41 15s12 23 14 45l2 46v585l-39 -2c-21.333 0 -45 -15.833 -71 -47.5s-52.167 -71.667 -78.5 -120s-48.5 -92.5 -66.5 -132.5h-17v321z" />
    <glyph glyph-name="U" unicode="U" horiz-adv-x="853" 
d="M869 713c-8.66699 -0.666992 -18.502 -1.33496 -29.502 -2.00195s-25.667 -2.33398 -44 -5.00098s-32.333 -10.667 -42 -24s-15.5 -30.666 -17.5 -51.999l-2 -48v-297l-2 -50c-10 -92 -35 -156.167 -75 -192.5s-102 -54.5 -186 -54.5c-110.667 0 -196 21 -256 63
s-90 94.333 -90 157v394l-2 46c-2 21.333 -6.5 36.166 -13.5 44.499s-20.833 13.833 -41.5 16.5l-42 4v16h468v-16c-8.66699 -0.666992 -18.5 -1.16699 -29.5 -1.5s-25.167 -1.66602 -42.5 -3.99902s-29.333 -7.16602 -36 -14.499s-11 -22.333 -13 -45l-2 -46v-401
c0 -8 0.333008 -17.667 1 -29s2.83398 -28.833 6.50098 -52.5s17 -47 40 -70s54.5 -34.5 94.5 -34.5c56 0 98.167 14.167 126.5 42.5s47.333 60.833 57 97.5s14.834 68 15.501 94l1 47v290l-2 48c-2 22 -7.5 38.667 -16.5 50s-22.5 18.5 -40.5 21.5s-33 4.83301 -45 5.5
s-23.333 1.33398 -34 2.00098v16h294v-16z" />
    <glyph glyph-name="V" unicode="V" horiz-adv-x="745" 
d="M792 713c-6 -0.666992 -13.001 -1.16895 -21.001 -1.50195s-20.5 -1.83301 -37.5 -4.5s-31.5 -8.33398 -43.5 -17.001s-22.667 -24 -32 -46l-30 -77l-201 -571h-103l-204 573l-31 78c-10 21.333 -19.667 36.5 -29 45.5s-22.666 14.5 -39.999 16.5l-41 4v16h463v-16
l-44 -4c-14.667 -2.66699 -26.5 -5.66699 -35.5 -9s-13.5 -13.666 -13.5 -30.999c0 -12 4.83301 -32.667 14.5 -62s24.167 -70.166 43.5 -122.499l87 -231.5l71 194.5c24 67 40.333 115.333 49 145s13 51.834 13 66.501c0 16.667 -4 28.334 -12 35.001
s-17.333 11.167 -28 13.5s-21.167 3.66602 -31.5 3.99902s-19.833 0.833008 -28.5 1.5v16h265v-16z" />
    <glyph glyph-name="W" unicode="W" horiz-adv-x="1186" 
d="M583 541l-41.001 105.999c-9.33301 19.333 -17.166 33.666 -23.499 42.999s-19.833 15.666 -40.5 18.999l-31 4v16h440v-16h-14c-4.66699 0 -13.334 -1.16699 -26.001 -3.5s-23.334 -5.16602 -32.001 -8.49902s-13 -13.333 -13 -30c0 -15.333 4.5 -36.666 13.5 -63.999
l31.5 -91.5l47 -130.5l42 -116l31.5 82l51 135.5c21.667 58.333 35.834 98.333 42.501 120s10 40.5 10 56.5c0 15.333 -4 26.333 -12 33s-17.667 10.834 -29 12.501s-22 2.66699 -32 3s-19.333 0.833008 -28 1.5v16h257v-16l-44 -5c-21.333 -3.33301 -38 -9.33301 -50 -18
s-22.667 -24 -32 -46l-30 -77l-214 -571h-80l-182 516l-191 -516h-80l-204 573l-31 78c-10 21.333 -19.167 36.5 -27.5 45.5s-20.833 14.5 -37.5 16.5l-35 4v16h432v-16l-32 -3c-15.333 -2 -26.166 -5.16699 -32.499 -9.5s-9.5 -12.5 -9.5 -24.5
c0 -14.667 5.5 -38.167 16.5 -70.5l41.5 -117.5l45 -122l33 -88z" />
    <glyph glyph-name="X" unicode="X" horiz-adv-x="764" 
d="M298 306l-195 312.998c-22 34.667 -39.667 57.667 -53 69s-30.666 18.666 -51.999 21.999l-31 3v16h460v-16l-42 -2c-14 -1.33301 -24 -3.5 -30 -6.5s-9 -9.16699 -9 -18.5c0 -7.33301 1.33301 -14.5 4 -21.5s8.33398 -17.833 17.001 -32.5l84 -140l58 73.5l48.5 65.5
c13.667 19.333 20.5 35.666 20.5 48.999c0 18.667 -8.5 28.667 -25.5 30s-29.333 2.16602 -37 2.49902s-14.834 0.5 -21.501 0.5v16h256v-16l-37 -2c-23.333 -3.33301 -42.333 -8.66602 -57 -15.999s-32.167 -22.5 -52.5 -45.5s-43.166 -50.333 -68.499 -82l-74 -91.5
l128 -207l98 -155c25.333 -39.333 44.166 -64.166 56.499 -74.499s29.166 -17.166 50.499 -20.499l33 -3v-16h-462v16l42 2c24.667 2.66699 37 12.334 37 29.001c0 12.667 -6.33301 29.667 -19 51l-118 193l-94 -120.5c-24.667 -32.333 -43.334 -57.5 -56.001 -75.5
s-19 -33 -19 -45c0 -17.333 8.16699 -27 24.5 -29s29.833 -3.16699 40.5 -3.5s19.334 -0.833008 26.001 -1.5v-16h-273v16c7.33301 0 15.666 0.166992 24.999 0.5s20.666 1.33301 33.999 3s27.833 6.33398 43.5 14.001s35.334 25 59.001 52s54.334 63.833 92.001 110.5z" />
    <glyph glyph-name="Y" unicode="Y" horiz-adv-x="744" 
d="M524 127l2 -45.9951c2 -21.333 6.5 -36.166 13.5 -44.499s17.667 -13.333 32 -15s27.5 -2.83398 39.5 -3.50098s22.333 -1.33398 31 -2.00098v-16h-487v16l66 3c20 2 33.667 7 41 15s12 23 14 45l2 46v186l-189 308c-22.667 35.333 -40.5 58.666 -53.5 69.999
s-30.167 18.333 -51.5 21l-28 3v16h467v-16l-52 -2c-14 -1.33301 -24 -3.33301 -30 -6s-9 -9 -9 -19c0 -7.33301 1.33301 -14.5 4 -21.5s9.33398 -19.667 20.001 -38s31.167 -51.833 61.5 -100.5l87.5 -139l74 127.5c26.667 45.667 46.5 80.667 59.5 105
s19.5 44.166 19.5 59.499c0 18 -14.667 28.667 -44 32l-40 2v16h238v-16l-26 -2c-22.667 0 -41.667 -4.33301 -57 -13s-31.333 -25.834 -48 -51.501s-39.834 -64.334 -69.501 -116.001l-87.5 -154.5v-249z" />
    <glyph glyph-name="Z" unicode="Z" horiz-adv-x="834" 
d="M310 20c26 0.666992 49.5 1.16699 70.5 1.5s45.5 0.833008 73.5 1.5c48 0 102.5 36.333 163.5 109s108.833 144.334 143.5 215.001h16v-347h-767v11l489 694v5l-115 -3c-50.667 0 -106.167 -34.333 -166.5 -103s-108.5 -138.334 -144.5 -209.001h-16v334h743v-11
l-490 -693v-5z" />
    <glyph glyph-name="bracketleft" unicode="[" horiz-adv-x="460" 
d="M454 -125c0 -22.667 -8.3291 -40.998 -24.9961 -54.998c-2.66699 -2.66699 -5.83398 -2.83398 -9.50098 -0.500977s-4.16699 5.5 -1.5 9.5c6.66699 8.66699 10 18.667 10 30c0 17.333 -12.833 29.166 -38.5 35.499s-53.5 9.5 -83.5 9.5c-42.667 0 -86 -2.33301 -130 -7
s-83.667 -12 -119 -22v859c34.667 -9.33301 73.667 -16.5 117 -21.5s87.333 -7.5 132 -7.5c32 0 60.333 3 85 9s37 18 37 36c0 11.333 -3.33301 21.333 -10 30c-2.66699 3.33301 -2.33398 6.33301 0.999023 9s6.66602 4 9.99902 4c16.667 -16.667 25 -36.334 25 -59.001
c0 -39.333 -12.833 -68.166 -38.5 -86.499s-55.834 -27.5 -90.501 -27.5c-47.333 0 -93.5 11.167 -138.5 33.5l-104.5 52.5v-803l110.5 55.5c41.667 20.333 85.834 30.5 132.501 30.5c35.333 0 65.666 -9 90.999 -27s38 -47 38 -87z" />
    <glyph glyph-name="backslash" unicode="\" horiz-adv-x="361" 
d="M395 -101l-45 -15l-369 870l45 16z" />
    <glyph glyph-name="bracketright" unicode="]" horiz-adv-x="460" 
d="M404 -125c-34.667 9.33301 -73.668 16.499 -117.001 21.499s-87.333 7.5 -132 7.5c-32 0 -60.333 -3 -85 -9s-37 -18 -37 -36c0 -11.333 3.33301 -21.333 10 -30c2.66699 -3.33301 2.33398 -6.33301 -0.999023 -9s-6.66602 -4 -9.99902 -4
c-16.667 16.667 -25 36.334 -25 59.001c0 39.333 12.833 68.166 38.5 86.499s55.834 27.5 90.501 27.5c47.333 0 93.5 -11.167 138.5 -33.5l104.5 -52.5v803l-110.5 -55.5c-41.667 -20.333 -85.834 -30.5 -132.501 -30.5c-35.333 0 -65.666 9 -90.999 27s-38 47 -38 87
c0 24.667 8.33301 43 25 55c3.33301 2.66699 6.66602 4 9.99902 4s3.66602 -4.33301 0.999023 -13c-3.33301 -4 -5.83301 -8.5 -7.5 -13.5s-2.5 -10.5 -2.5 -16.5c0 -17.333 12.833 -29.166 38.5 -35.499s53.5 -9.5 83.5 -9.5c42.667 0 86 2.33301 130 7s83.667 12 119 22
v-859z" />
    <glyph glyph-name="asciicircum" unicode="^" horiz-adv-x="833" 
d="M420 609h-5l-184 -375l-76 32l225 463h74l225 -463l-76 -32z" />
    <glyph glyph-name="underscore" unicode="_" 
d="M500 -83v-81h-500v81h500z" />
    <glyph glyph-name="grave" unicode="`" 
d="M323 532l-8 -11c-22.667 13.333 -49 26.333 -79 39l-86.5 36.5c-27.667 11.667 -46.167 21.834 -55.5 30.501s-14 23.667 -14 45c0 6.66699 0.666992 13.167 2 19.5s3 10.833 5 13.5s8.33301 6 19 10s22 6 34 6c19.333 0 48.833 -25.833 88.5 -77.5
s71.167 -88.834 94.5 -111.501z" />
    <glyph glyph-name="a" unicode="a" horiz-adv-x="575" 
d="M530 50c16 0 27.168 9.83496 33.501 29.502s9.5 43.167 9.5 70.5h14c0 -58.667 -10.5 -97.334 -31.5 -116.001s-39.833 -30.5 -56.5 -35.5s-38 -7.5 -64 -7.5c-28.667 0 -54.167 7.33301 -76.5 22s-35.833 34.334 -40.5 59.001
c-10.667 -27.333 -28.5 -47.833 -53.5 -61.5s-57.5 -20.5 -97.5 -20.5c-42.667 0 -77.334 11.667 -104.001 35s-40 55.666 -40 96.999c0 33.333 8.33301 60.166 25 80.499s33.667 32.833 51 37.5s44 8.66699 80 12s62.5 7.16602 79.5 11.499s29.167 9 36.5 14
s11 13.5 11 25.5l-1 91c0 26 -3.33301 44.667 -10 56s-20.667 17 -42 17c-13.333 0 -24.5 -3 -33.5 -9s-13.5 -13.667 -13.5 -23c0 -7.33301 7.16699 -16.5 21.5 -27.5s21.5 -27.5 21.5 -49.5c0 -20.667 -9.16699 -39 -27.5 -55s-48.166 -24 -89.499 -24
c-22.667 0 -42.5 6.16699 -59.5 18.5s-25.5 28.833 -25.5 49.5c0 41.333 23.167 74.333 69.5 99s101.5 37 165.5 37c54 0 103.667 -11.167 149 -33.5s68 -56.833 68 -103.5v-229c0 -21.333 2 -37.666 6 -48.999c3.33301 -12 11.666 -18 24.999 -18zM306.001 79.002
l-0.00390625 191l-3 1c-6 -8 -17.167 -15.5 -33.5 -22.5s-27.666 -13.833 -33.999 -20.5s-11.333 -19.5 -15 -38.5s-5.5 -38.5 -5.5 -58.5c0 -30 2.33301 -54 7 -72s15.334 -27 32.001 -27c12.667 0 23.834 5 33.501 15s15.834 20.667 18.501 32z" />
    <glyph glyph-name="b" unicode="b" horiz-adv-x="616" 
d="M601 239c0 -75.333 -25.3291 -135.666 -75.9961 -180.999s-115 -68 -193 -68c-51.333 0 -91.333 10.667 -120 32s-52.334 42.666 -71.001 63.999h-6c-9.33301 -9.33301 -19.166 -22.5 -29.499 -39.5l-29.5 -49.5h-12c0.666992 26.667 1.16699 51.834 1.5 75.501
s0.833008 52.167 1.5 85.5v461l-1 41c0 18 -2.83301 30.5 -8.5 37.5s-17.834 11.5 -36.501 13.5l-38 2v16h276v-226l-2 -79c7.33301 13.333 19.166 26.666 35.499 39.999s47.166 20 92.499 20c63.333 0 115.166 -22.5 155.499 -67.5s60.5 -104.167 60.5 -177.5zM399.004 238
c0 9.33301 -0.666016 27.168 -1.99902 53.501s-2 42.5 -2 48.5c0 35.333 -5.33301 63.833 -16 85.5s-28 32.5 -52 32.5c-20.667 0 -35.667 -5.83301 -45 -17.5s-15.333 -25 -18 -40s-4.33398 -36.667 -5.00098 -65s-1 -56.5 -1 -84.5v-67c0 -18 1 -36.667 3 -56
c0 -35.333 5.5 -64.5 16.5 -87.5s27.833 -34.5 50.5 -34.5c22 0 38.667 12 50 36s17 53.333 17 88c0 13.333 0.333008 29.166 1 47.499s1.66699 38.5 3 60.5z" />
    <glyph glyph-name="c" unicode="c" horiz-adv-x="533" 
d="M314 468c-18.667 0 -34.334 -7.33398 -47.001 -22.001s-22.5 -32.667 -29.5 -54s-12 -44.5 -15 -69.5s-4.5 -49.167 -4.5 -72.5c0 -60.667 10.167 -113.5 30.5 -158.5s56.166 -67.5 107.499 -67.5c36.667 0 68.667 11.5 96 34.5s48 52.167 62 87.5l15 -8
c-44.667 -98.667 -124.667 -148 -240 -148c-76 0 -140.667 22.5 -194 67.5s-80 104.5 -80 178.5c0 74.667 26.167 134.667 78.5 180s117.5 68 195.5 68c29.333 0 56.333 -3.16699 81 -9.5s47.834 -15 69.501 -26s42.334 -26.667 62.001 -47s29.5 -44.166 29.5 -71.499
c0 -24.667 -7.66699 -44.5 -23 -59.5s-38 -22.5 -68 -22.5c-26 0 -49.5 9.16699 -70.5 27.5s-31.5 39.166 -31.5 62.499c0 18 3.66699 35.333 11 52s11 30.667 11 42c0 10.667 -4 19.334 -12 26.001s-19.333 10 -34 10z" />
    <glyph glyph-name="d" unicode="d" horiz-adv-x="621" 
d="M354 405c-2.66699 16.667 -9.99902 29.332 -21.999 37.999s-26 13 -42 13c-20.667 0 -36.167 -9.83301 -46.5 -29.5s-17 -42 -20 -67s-4.83301 -47.667 -5.5 -68s-1 -39.166 -1 -56.499v-45c0 -12.667 1.5 -34.667 4.5 -66s9.66699 -57 20 -77s26.166 -30 47.499 -30
c36.667 0 58 17.667 64 53c1.33301 15.333 2.33301 42.5 3 81.5s1 68.167 1 87.5v92c0 28 -1 52.667 -3 74zM357.001 476.998l-0.000976562 127.998l-2 46c0 22 -3.33301 36.667 -10 44s-21 12.333 -43 15l-47 3v16h294v-619l1 -41c0 -18 3.16699 -30.5 9.5 -37.5
s18.5 -11.5 36.5 -13.5l32 -2v-16h-269v50c-7.33301 -13.333 -19.166 -26.666 -35.499 -39.999s-47.166 -20 -92.499 -20c-64 0 -116 22.333 -156 67s-60 105.334 -60 182.001c0 74 20 133.333 60 178s92 67 156 67c46.667 0 77.667 -6.33301 93 -19s26.666 -26 33.999 -40z
" />
    <glyph glyph-name="e" unicode="e" horiz-adv-x="530" 
d="M521 150c-18.667 -50 -48.668 -89.168 -90.001 -117.501s-90 -42.5 -146 -42.5c-78.667 0 -143.334 21.833 -194.001 65.5s-76 104.167 -76 181.5c0 72 26.167 131.167 78.5 177.5s115.166 69.5 188.499 69.5c76.667 0 135.334 -21.667 176.001 -65s61 -96.333 61 -159
h-307c0 -24 1.83301 -48.5 5.5 -73.5s10.667 -49.167 21 -72.5s25 -42.166 44 -56.499s42.833 -21.5 71.5 -21.5c40.667 0 72.834 11.5 96.501 34.5s41.834 51.833 54.501 86.5zM344.999 279.999c-0.666992 7.33301 -1.16895 16 -1.50195 26s-0.5 22.667 -0.5 38
c0 40.667 -5 71.5 -15 92.5s-27.333 31.5 -52 31.5c-21.333 0 -36.166 -10.167 -44.499 -30.5s-14.166 -51.5 -17.499 -93.5l-2 -64h133z" />
    <glyph glyph-name="f" unicode="f" horiz-adv-x="360" 
d="M329 620c0 17.333 6.66699 33 20 47s20 24.333 20 31c0 8 -2.83301 14 -8.5 18s-14.167 6 -25.5 6c-23.333 0 -40.166 -13.5 -50.499 -40.5s-15.5 -61.167 -15.5 -102.5l-2 -105h114l-17 -38h-97v-311l1 -46c0 -24 2 -39.667 6 -47s15.667 -12.333 35 -15l36 -1v-16h-336
v16l24 1c19.333 2 31 6.66699 35 14s6 23.333 6 48l1 46v311h-73l16 38h57c0 13.333 0.5 27.5 1.5 42.5s1.5 25.833 1.5 32.5c0 47.333 27.167 90.833 81.5 130.5s115.833 59.5 184.5 59.5c45.333 0 85.166 -9.5 119.499 -28.5s51.5 -47.167 51.5 -84.5
c0 -24 -9.83301 -44.167 -29.5 -60.5s-41.5 -24.5 -65.5 -24.5s-45.167 7.16699 -63.5 21.5s-27.5 33.5 -27.5 57.5z" />
    <glyph glyph-name="g" unicode="g" horiz-adv-x="540" 
d="M118 -81c-18.667 -2.66699 -32.167 -8.16602 -40.5 -16.499s-12.5 -20.5 -12.5 -36.5c0 -26.667 19.5 -46.834 58.5 -60.501s83.833 -20.5 134.5 -20.5c63.333 0 114.333 7 153 21s58 36.333 58 67c0 18.667 -8.66699 31 -26 37s-42 9 -74 9h-251zM291 314.001
l-2.99805 72.999c0 24.667 -3.33301 44.334 -10 59.001s-18.334 22 -35.001 22c-15.333 0 -26.5 -7.5 -33.5 -22.5s-10.5 -34.5 -10.5 -58.5l-3 -73l3 -73c0 -23.333 3.66699 -42.5 11 -57.5s18.666 -22.5 33.999 -22.5s26.5 7.33301 33.5 22s10.5 34 10.5 58zM392.002 429
c7.33301 16.667 18.6689 30.002 34.002 40.002s34 15 56 15c23.333 0 42 -6 56 -18s21 -28.333 21 -49c0 -16 -5.33301 -29.333 -16 -40s-24.667 -16 -42 -16c-16 0 -29.5 4.5 -40.5 13.5s-16.5 22.167 -16.5 39.5c0 9.33301 3.16699 18.166 9.5 26.499s9.5 14.5 9.5 18.5
c0 2.66699 -2.66699 4 -8 4c-8.66699 0 -18.334 -3.5 -29.001 -10.5s-19.334 -17.5 -26.001 -31.5c12 -12.667 21.333 -28.5 28 -47.5s10 -38.833 10 -59.5c0 -50.667 -19.333 -91.5 -58 -122.5s-84 -46.5 -136 -46.5c-32 0 -63.333 6.33301 -94 19
c-14 1.33301 -27.333 -1 -40 -7s-19 -15.667 -19 -29c0 -9.33301 5 -16.333 15 -21c9.33301 -5.33301 20 -8 32 -8h213c54.667 0 98.334 -15.667 131.001 -47s49 -70.666 49 -117.999c0 -58 -27.5 -100.667 -82.5 -128s-119.5 -41 -193.5 -41
c-60.667 0 -113.834 7.33301 -159.501 22s-68.5 40.334 -68.5 77.001c0 17.333 6.83301 31.166 20.5 41.499s30.834 17.5 51.501 21.5c-26.667 15.333 -47.5 32.5 -62.5 51.5s-22.5 42.167 -22.5 69.5c0 33.333 11 61.666 33 84.999s48.333 37.333 79 42
c-24.667 16 -43.834 35.5 -57.501 58.5s-20.5 49.5 -20.5 79.5c0 51.333 19.167 92.666 57.5 123.999s84.5 47 138.5 47c60.667 0 110 -18.333 148 -55z" />
    <glyph glyph-name="h" unicode="h" horiz-adv-x="649" 
d="M259 400c12.667 26.667 30.334 47.333 53.001 62s55 22 97 22c46 0 86.667 -12.5 122 -37.5s53 -57.167 53 -96.5v-225l1 -46c0 -24 2 -39.833 6 -47.5s15.667 -12.5 35 -14.5l22 -1v-16h-309v16l13 1c18 0 29 4 33 12s6 24.667 6 50l1 46v204l-1 41
c0 28 -4.66699 48 -14 60s-23.333 18 -42 18c-22.667 0 -38.834 -7.33301 -48.501 -22s-17.5 -29.667 -23.5 -45v-256l1 -46c0 -26 1.83301 -42.833 5.5 -50.5s14.834 -11.5 33.501 -11.5l13 -1v-16h-310v16l23 1c19.333 2 31 6.66699 35 14s6 23.333 6 48l1 46v494l-1 41
c0 18 -2.83301 30.5 -8.5 37.5s-17.834 11.5 -36.501 13.5l-38 2v16h276v-237c0 -22 -0.333008 -40.5 -1 -55.5s-1.66699 -27.167 -3 -36.5z" />
    <glyph glyph-name="i" unicode="i" horiz-adv-x="340" 
d="M332 0h-324v16l24 1c19.333 2 31 6.66699 35 14s6 23.333 6 48l1 46v239l-1 41c-1.33301 16 -3.33301 28 -6 36s-14.667 13 -36 15l-27 2v16h262v-349l1 -46c0 -24 2 -39.833 6 -47.5s15.667 -12.5 35 -14.5l24 -1v-16zM72 641c0 26 9.5 48.167 28.5 66.5
s41.833 27.5 68.5 27.5c27.333 0 50.5 -8.83301 69.5 -26.5s28.5 -40.167 28.5 -67.5c0 -26.667 -9.5 -49.167 -28.5 -67.5s-42.167 -27.5 -69.5 -27.5c-26.667 0 -49.5 9.16699 -68.5 27.5s-28.5 40.833 -28.5 67.5z" />
    <glyph glyph-name="j" unicode="j" horiz-adv-x="330" 
d="M270 641c0 -26.667 -9.5 -49.167 -28.5 -67.5s-42.167 -27.5 -69.5 -27.5c-26.667 0 -49.5 9.16699 -68.5 27.5s-28.5 40.833 -28.5 67.5c0 26 9.5 48.167 28.5 66.5s41.833 27.5 68.5 27.5c27.333 0 50.5 -8.83301 69.5 -26.5s28.5 -40.167 28.5 -67.5zM271 54
c0 -14.667 -0.499023 -30.166 -1.49902 -46.499s-1.5 -25.833 -1.5 -28.5c0 -50 -26.167 -97.5 -78.5 -142.5s-111.5 -67.5 -177.5 -67.5c-46.667 0 -85.334 8.33301 -116.001 25s-46 44 -46 82c0 24 9.16699 44.167 27.5 60.5s39.5 24.5 63.5 24.5
c23.333 0 43.833 -7.33301 61.5 -22s26.5 -33.667 26.5 -57c0 -18 -6.16699 -33.833 -18.5 -47.5s-18.5 -23.834 -18.5 -30.501c0 -5.33301 2.5 -9.5 7.5 -12.5s12.5 -4.5 22.5 -4.5c20.667 0 35.167 12 43.5 36s12.5 55.667 12.5 95l1 105v341l-1 41
c-1.33301 16 -3.33301 28 -6 36s-14.667 13 -36 15l-37 2v16h272v-420z" />
    <glyph glyph-name="k" unicode="k" horiz-adv-x="628" 
d="M261 214l105.997 108.999c35.333 36.667 59.833 63.334 73.5 80.001s20.5 29.334 20.5 38.001c0 5.33301 -2.16699 9.16602 -6.5 11.499s-10.5 3.83301 -18.5 4.5l-34 2v15h188v-15c-6.66699 0 -13.167 -0.166992 -19.5 -0.5s-15 -1.66602 -26 -3.99902
s-20.167 -5.66602 -27.5 -9.99902s-18.166 -12.833 -32.499 -25.5s-26.666 -24.334 -36.999 -35.001l-28.5 -30l100 -162.5l74.5 -118c15.667 -23.667 27.334 -38.5 35.001 -44.5s18.167 -10 31.5 -12l24 -1v-16h-339v16l20 1c17.333 0 26 5.33301 26 16
c0 6.66699 -4.5 17.667 -13.5 33s-22.833 37.666 -41.5 66.999l-54 84l-19 -20v-72l1 -46c0 -26 1.83301 -42.833 5.5 -50.5s14.834 -11.5 33.501 -11.5l19 -1v-16h-316v16l23 1c19.333 2 31 6.66699 35 14s6 23.333 6 48l1 46v494l-1 41c0 18 -2.83301 30.5 -8.5 37.5
s-17.834 11.5 -36.501 13.5l-38 2v16h276v-449z" />
    <glyph glyph-name="l" unicode="l" horiz-adv-x="337" 
d="M332 0h-324v16l24 1c19.333 2 31 6.66699 35 14s6 23.333 6 48l1 46v494l-1 41c-1.33301 16 -3.33301 28 -6 36s-14.667 13 -36 15l-34 2v16h269v-604l1 -46c0 -24 2 -39.833 6 -47.5s15.667 -12.5 35 -14.5l24 -1v-16z" />
    <glyph glyph-name="m" unicode="m" horiz-adv-x="946" 
d="M942 0l-300.995 -0.000976562v16c23.333 0 37.166 3.66699 41.499 11s6.5 24.666 6.5 51.999l1 46v202l-1 41c0 28.667 -3.5 49.334 -10.5 62.001s-19.5 19 -37.5 19c-12 0 -24.833 -5.5 -38.5 -16.5s-22.834 -32.5 -27.501 -64.5v-243l1 -46
c0 -21.333 1.16699 -36.666 3.5 -45.999s15.166 -15 38.499 -17v-16h-284v16c22.667 0 36.334 3.66699 41.001 11s7 24.666 7 51.999l1 46v202l-1 41c0 28.667 -3.5 49.334 -10.5 62.001s-19.5 19 -37.5 19c-22.667 0 -38.167 -7.33301 -46.5 -22s-14.833 -29.667 -19.5 -45
v-257l1 -46c0 -21.333 1.16699 -36.666 3.5 -45.999s15.166 -15 38.499 -17v-16h-299v16l22 1c19.333 2 31 6.66699 35 14s6 23.333 6 48l1 46v239l-1 41c-1.33301 16 -3.33301 28 -6 36s-14.667 13 -36 15l-23 2v16h254v-75c6 18.667 17.833 37.5 35.5 56.5
s53.5 28.5 107.5 28.5c37.333 0 69.833 -7.83301 97.5 -23.5s48.167 -39.167 61.5 -70.5c3.33301 12 12.166 30.667 26.499 56s54.833 38 121.5 38c45.333 0 84.666 -12.667 117.999 -38s50 -58 50 -98v-223l1 -46c0 -25.333 1.83301 -41.333 5.5 -48
s15.5 -11.334 35.5 -14.001l18 -1v-16z" />
    <glyph glyph-name="n" unicode="n" horiz-adv-x="653" 
d="M396 329l-1 40.998c0 52 -18.333 78 -55 78c-23.333 0 -39.833 -7.33301 -49.5 -22s-17.5 -29.667 -23.5 -45v-256l1 -46c0 -27.333 2.5 -44.666 7.5 -51.999s19.833 -11 44.5 -11v-16h-311v16l24 1c19.333 2 31 6.66699 35 14s6 23.333 6 48l1 46v239l-1 41
c-1.33301 16 -3.33301 28 -6 36s-14.667 13 -36 15l-23 2v16h254v-75c7.33301 18.667 20.5 37.5 39.5 56.5s55.833 28.5 110.5 28.5c47.333 0 88.333 -13.333 123 -40s52 -58 52 -94v-225l1 -46c0 -24 2 -39.833 6 -47.5s15.667 -12.5 35 -14.5l22 -1v-16h-309v16
c24 0 38.667 3.83301 44 11.5s8 24.834 8 51.501l1 46v204z" />
    <glyph glyph-name="o" unicode="o" horiz-adv-x="570" 
d="M555 237c0 -70.667 -26.8301 -129.5 -80.4971 -176.5s-116.834 -70.5 -189.501 -70.5c-76.667 0 -140.834 23.5 -192.501 70.5s-77.5 105.833 -77.5 176.5s26.167 129.5 78.5 176.5s116.166 70.5 191.499 70.5c74 0 137.5 -23.333 190.5 -70s79.5 -105.667 79.5 -177z
M356.003 238c0 9.33301 -0.667969 28 -2.00098 56s-2 44.667 -2 50c0 36 -5.5 65.667 -16.5 89s-28.167 35 -51.5 35c-21.333 0 -37.666 -12.167 -48.999 -36.5s-17 -53.5 -17 -87.5c0 -12.667 -0.5 -28.167 -1.5 -46.5s-1.83301 -38.166 -2.5 -59.499
c0 -9.33301 0.666992 -28.5 2 -57.5s2 -45.833 2 -50.5c0 -36 5.5 -65.667 16.5 -89s27.833 -35 50.5 -35c22 0 38.667 12 50 36s17 53.333 17 88c0 13.333 0.333008 29.166 1 47.499s1.66699 38.5 3 60.5z" />
    <glyph glyph-name="p" unicode="p" horiz-adv-x="619" 
d="M265 69c2.66699 -16.667 10.167 -29.3311 22.5 -37.998s26.166 -13 41.499 -13c20.667 0 36.167 10 46.5 30s16.833 42 19.5 66s4.5 45.333 5.5 64s1.5 39 1.5 61v65l-6.5 60.5c-2.33301 21 -8.83301 41.333 -19.5 61s-27 29.5 -49 29.5
c-13.333 0 -26.166 -5.83301 -38.499 -17.5s-19.833 -25.834 -22.5 -42.501c-1.33301 -16 -2.33301 -36.833 -3 -62.5s-1 -51.167 -1 -76.5v-110c0 -30.667 1 -56.334 3 -77.001zM-11 -230.997l0.00195312 16.0039l35 2c19.333 2 31.666 6.16699 36.999 12.5
s8 19.166 8 38.499l1 41v485l-1 41c0 18.667 -2.83301 31.334 -8.5 38.001s-18.167 11 -37.5 13l-32 2v16h269v-59c7.33301 15.333 19.166 30.666 35.499 45.999s47.166 23 92.499 23c64 0 116 -22.333 156 -67s60 -105.334 60 -182.001c0 -74 -20 -133.333 -60 -178
s-92 -67 -156 -67c-46.667 0 -77.667 6.33301 -93 19s-26.666 26 -33.999 40l1 -59v-95l2 -46c2 -22.667 6.5 -37.834 13.5 -45.501s20.833 -12.834 41.5 -15.501l48 -3v-16h-378z" />
    <glyph glyph-name="q" unicode="q" horiz-adv-x="611" 
d="M551 479l-2 -129.996v-470l1 -41c0 -18 2.83301 -30.5 8.5 -37.5s17.834 -11.5 36.501 -13.5l28 -2v-16h-357v16c6.66699 0 14.5 0.166992 23.5 0.5s19.667 1.16602 32 2.49902s21.166 5.16602 26.499 11.499s8 19.166 8 38.499l1 41v170
c-6.66699 -13.333 -17.834 -26.5 -33.501 -39.5s-46.5 -19.5 -92.5 -19.5c-63.333 0 -115.166 22.5 -155.499 67.5s-60.5 104.167 -60.5 177.5c0 75.333 25.333 135.666 76 180.999s115 68 193 68c50 0 88.667 -9.5 116 -28.5s50.333 -38.5 69 -58.5l72 82h10zM357 238.004
v89c-1.33301 8 -2 13.667 -2 17c0 38 -5.16699 68.167 -15.5 90.5s-27.833 33.5 -52.5 33.5c-21.333 0 -37.666 -12.167 -48.999 -36.5s-17 -53.5 -17 -87.5c0 -12.667 -0.5 -28.167 -1.5 -46.5s-1.83301 -38.166 -2.5 -59.499c0 -9.33301 0.666992 -28.5 2 -57.5
s2 -45.833 2 -50.5c0 -32.667 5.66699 -59.834 17 -81.501s28.333 -32.5 51 -32.5c20 0 35 6.16699 45 18.5s15.667 24.5 17 36.5s2.66602 40.5 3.99902 85.5s2 72.167 2 81.5z" />
    <glyph glyph-name="r" unicode="r" horiz-adv-x="512" 
d="M6 0l-0.00292969 16l27 1c19.333 2 31 6.66699 35 14s6 23.333 6 48l1 46v239l-1 41c-1.33301 16 -3.33301 28 -6 36s-14.667 13 -36 15l-26 2v16h259v-84c4.66699 12 14.667 30 30 54s50.333 36 105 36c32 0 59.167 -11.167 81.5 -33.5s33.5 -48.833 33.5 -79.5
s-10.5 -56.167 -31.5 -76.5s-46.833 -30.5 -77.5 -30.5c-25.333 0 -47.166 8.83301 -65.499 26.5s-27.5 37.834 -27.5 60.501c0 16.667 3 32 9 46l20 39c-3.33301 4.66699 -6.66602 7 -9.99902 7c-17.333 0 -32.5 -10.333 -45.5 -31s-19.5 -40 -19.5 -58v-231l1 -50
c0 -18.667 2.33301 -31.334 7 -38.001s16.334 -11 35.001 -13l30 -2v-16h-334z" />
    <glyph glyph-name="s" unicode="s" horiz-adv-x="484" 
d="M44 207l13.0059 0.00195312c17.333 -54 34.666 -93.667 51.999 -119s36.166 -44.333 56.499 -57s45.166 -19 74.499 -19c16.667 0 31 4.5 43 13.5s18 21.5 18 37.5c0 20.667 -4.66699 36 -14 46s-24 20.833 -44 32.5l-69.5 39c-26.333 14.333 -48.333 28.333 -66 42
s-31.334 29.167 -41.001 46.5s-14.5 37.333 -14.5 60c0 49.333 18.667 87.5 56 114.5s83 40.5 137 40.5c25.333 0 49.333 -4.66699 72 -14l67 -33c9.33301 0 17.333 5.66699 24 17s10 24.666 10 39.999h14v-201h-13c-5.33301 16 -12 33.667 -20 53s-19.5 38.833 -34.5 58.5
s-30.833 34.834 -47.5 45.501s-38 16 -64 16c-18.667 0 -33.834 -4.5 -45.501 -13.5s-17.5 -20.167 -17.5 -33.5c0 -15.333 4.16699 -27.333 12.5 -36s20.5 -17.834 36.5 -27.501s37.833 -22 65.5 -37s52.5 -29.833 74.5 -44.5s40.333 -32.834 55 -54.501s22 -46.5 22 -74.5
c0 -51.333 -19.5 -90 -58.5 -116s-86.167 -39 -141.5 -39c-28.667 0 -56.667 6 -84 18l-79 41c-8.66699 0 -16.334 -7 -23.001 -21s-10.667 -29 -12 -45h-14v224z" />
    <glyph glyph-name="t" unicode="t" horiz-adv-x="403" 
d="M66 436l-68.001 -0.00292969v27c22.667 6 46.334 17.167 71.001 33.5s48.167 35.333 70.5 57s41 42.834 56 63.501s26.5 39.334 34.5 56.001h28v-199h131l-14 -38h-117v-272l2 -51c0 -28.667 6.33301 -50.334 19 -65.001s28.667 -22 48 -22c26 0 45 10.833 57 32.5
s18 45.834 18 72.501h14c0 -37.333 -11 -70.166 -33 -98.499s-69.333 -42.5 -142 -42.5c-46 0 -86.667 12 -122 36s-53 57.667 -53 101v309z" />
    <glyph glyph-name="u" unicode="u" horiz-adv-x="652" 
d="M652 0h-262.002v64c-15.333 -24 -34.166 -42.333 -56.499 -55s-53.166 -19 -92.499 -19c-46 0 -86.667 13.667 -122 41c-36 26.667 -54 63.667 -54 111v222l-1 41c0 18 -2.83301 30.5 -8.5 37.5s-17.834 11.5 -36.501 13.5l-28 2v16h266v-327l1 -41
c0 -27.333 4.83301 -47.833 14.5 -61.5s24.167 -20.5 43.5 -20.5c21.333 0 36.833 6 46.5 18s17.5 24.333 23.5 37v270l-2 46c0 22 -3.66699 37 -11 45s-22 13.333 -44 16l-31 2v16h280v-364l1 -41c0 -18 2.83301 -30.5 8.5 -37.5s17.834 -11.5 36.501 -13.5l28 -2v-16z" />
    <glyph glyph-name="v" unicode="v" horiz-adv-x="505" 
d="M312 458c-4 0 -8 -0.166016 -12 -0.499023s-11.167 -1.33301 -21.5 -3s-15.5 -9.5 -15.5 -23.5c0 -7.33301 0.666992 -13.666 2 -18.999s3.66602 -12 6.99902 -20l76 -202l71 184c8 23.333 12 41.666 12 54.999c0 9.33301 -2.33301 15.666 -7 18.999s-12 6 -22 8l-32 2
v16h167v-16l-37 -4c-10.667 -2 -20.334 -8.16699 -29.001 -18.5s-17.667 -27.333 -27 -51l-54.5 -140.5l-61.5 -160l-33 -88h-71l-42 108.5l-63 163l-52 131.5c-9.33301 22.667 -16.166 37.167 -20.499 43.5s-10.833 10.333 -19.5 12s-16.667 2.66699 -24 3
s-12.666 0.5 -15.999 0.5v16h325v-16z" />
    <glyph glyph-name="w" unicode="w" horiz-adv-x="811" 
d="M406 348l-21 58.0039c-5.33301 13.333 -10.333 24.5 -15 33.5s-12 14.5 -22 16.5l-22 2v16h306v-16h-15c-5.33301 0 -12.666 -1 -21.999 -3s-14 -10 -14 -24c0 -4.66699 0.333008 -9.33398 1 -14.001s4.16699 -17.167 10.5 -37.5s16.5 -50.5 30.5 -90.5l34 -95l69 180
c8.66699 26 13 44.667 13 56c0 10 -2.33301 16.333 -7 19s-11 4.66699 -19 6s-14.833 2.16602 -20.5 2.49902s-11.167 0.5 -16.5 0.5v16h167v-16l-36 -4c-20 -3.33301 -38.667 -26.333 -56 -69l-148 -389h-72l-116 328l-129 -328h-71l-31 88l-57.5 162.5
c-27.667 78.333 -46 129.166 -55 152.499s-15.5 38 -19.5 44s-10 9.83301 -18 11.5s-15.833 2.66699 -23.5 3s-14.834 0.5 -21.501 0.5v16h315v-16h-7c-2.66699 0 -8.5 -1 -17.5 -3s-13.5 -10 -13.5 -24c0 -4.66699 0.333008 -9.33398 1 -14.001s3.66699 -15.167 9 -31.5
l27 -80.5l40 -113z" />
    <glyph glyph-name="x" unicode="x" horiz-adv-x="541" 
d="M201 197l-118.999 200.995c-14 22.667 -25 37.667 -33 45s-19 12 -33 14l-28 2v15h337v-15l-27 -1c-9.33301 -0.666992 -16 -2 -20 -4s-6 -6.66699 -6 -14c0 -3.33301 0.5 -7.16602 1.5 -11.499s4.5 -11.833 10.5 -22.5l50 -87l64 82c11.333 16.667 17 29.334 17 38.001
c0 12.667 -8.33301 19 -25 19l-23 1v15h166v-15h-11c-4.66699 0 -11.834 -0.666992 -21.501 -2s-18.834 -4.16602 -27.501 -8.49902s-22.667 -17.5 -42 -39.5l-87 -106l135 -226c14.667 -24 25.834 -39.333 33.501 -46s18.5 -11 32.5 -13l21 -2v-16h-331v16l27 1
c16.667 2 25 8.66699 25 20c0 6.66699 -3.66699 17.334 -11 32.001l-65 112l-83 -107c-11.333 -16.667 -17 -29 -17 -37c0 -11.333 8.33301 -18 25 -20l27 -1v-16h-178v16l31 1c18 2.66699 32 7.33398 42 14.001s20.833 16.667 32.5 30s28.167 33.333 49.5 60z" />
    <glyph glyph-name="y" unicode="y" horiz-adv-x="503" 
d="M61 406c-8 16.667 -14.6709 28.499 -20.0039 35.499s-12.333 11.5 -21 13.5l-39 3v16h327v-16h-15c-5.33301 0 -12.166 -0.833008 -20.499 -2.5s-12.5 -8.5 -12.5 -20.5c0 -5.33301 1.33301 -12.166 4 -20.499l8 -24.5l78 -186l32 78.5
c14.667 36.333 26.334 67.166 35.001 92.499s13 43.666 13 54.999c0 8.66699 -1.5 14.667 -4.5 18s-11.167 6 -24.5 8l-32 2v16h167v-16c-4 0 -8.16699 -0.166992 -12.5 -0.5s-12.333 -1.5 -24 -3.5s-21.5 -8 -29.5 -18s-22.833 -42.667 -44.5 -98l-70 -176
c-25 -62 -53 -126.333 -84 -193s-60 -116.667 -87 -150s-63.167 -50 -108.5 -50c-26.667 0 -51.167 9 -73.5 27s-33.5 41.333 -33.5 70c0 26.667 9 49.334 27 68.001s41 28 69 28c28.667 0 51 -8.33301 67 -25s24 -36.334 24 -59.001s-6.33301 -41 -19 -55
s-19 -22.333 -19 -25c6 0.666992 12.333 1.33398 19 2.00098c14.667 6.66699 28.834 19.334 42.501 38.001s25.834 38 36.501 58s22 43.667 34 71l-54.5 128.5l-72 168.5z" />
    <glyph glyph-name="z" unicode="z" horiz-adv-x="542" 
d="M298 20c32 0 67.333 22.999 106 68.999s69 91.667 91 137h13v-226h-507v9l302 444l-54 2c-32.667 0 -68.5 -21.667 -107.5 -65s-69.833 -87.666 -92.5 -132.999h-13v217h486v-9l-301 -444z" />
    <glyph glyph-name="braceleft" unicode="{" horiz-adv-x="380" 
d="M105 271v-6.99805c39.333 -4.66699 73.5 -18.834 102.5 -42.501s43.5 -62.167 43.5 -115.5c0 -16 -3.33301 -41.167 -10 -75.5s-10 -56.5 -10 -66.5c0 -54 11.833 -91.167 35.5 -111.5s58.5 -30.5 104.5 -30.5v-18c-90.667 0 -157.167 13.5 -199.5 40.5
s-63.5 67.167 -63.5 120.5c0 30 9.33301 66.667 28 110s28 75 28 95c0 28 -8.16699 49.667 -24.5 65s-52.166 23 -107.499 23v18c55.333 0 91.166 7.66699 107.499 23s24.5 37.666 24.5 66.999c0 21.333 -9.33301 53.5 -28 96.5s-28 78.5 -28 106.5
c0 68.667 27.167 112.667 81.5 132s114.833 29 181.5 29v-18c-46 0 -80.833 -10 -104.5 -30s-35.5 -57.333 -35.5 -112c0 -12.667 3.33301 -36 10 -70s10 -58 10 -72c0 -52.667 -14.667 -91 -44 -115s-63.333 -38 -102 -42z" />
    <glyph glyph-name="bar" unicode="|" horiz-adv-x="445" 
d="M183 754h79v-1000h-79v1000z" />
    <glyph glyph-name="braceright" unicode="}" horiz-adv-x="380" 
d="M349 258c-55.333 0 -91.167 -7.5 -107.5 -22.5s-24.5 -36.833 -24.5 -65.5c0 -21.333 9.33301 -52.666 28 -93.999s28 -78.333 28 -111c0 -68 -27 -111.833 -81 -131.5s-114.667 -29.5 -182 -29.5v18c46 0 80.833 10 104.5 30s35.5 57.333 35.5 112
c0 13.333 -3.33301 37 -10 71s-10 57.667 -10 71c0 52.667 14.667 91 44 115s63.333 38.333 102 43v7c-39.333 4 -73.5 17.833 -102.5 41.5s-43.5 62.167 -43.5 115.5c0 16 3.33301 41.333 10 76s10 56.667 10 66c0 55.333 -11.667 92.833 -35 112.5s-58.333 29.5 -105 29.5
v18c68.667 0 129.667 -9.5 183 -28.5s80 -63.167 80 -132.5c0 -29.333 -9.33301 -65.333 -28 -108s-28 -74.334 -28 -95.001c0 -30 8 -52.5 24 -67.5s52 -22.5 108 -22.5v-18z" />
    <glyph glyph-name="asciitilde" unicode="~" horiz-adv-x="833" 
d="M710 443c0 -60.667 -14.333 -112.001 -43 -154.001s-69.667 -63 -123 -63c-20 0 -38.167 3 -54.5 9s-33.5 15.333 -51.5 28l-79 57c-12.667 10 -25 17.667 -37 23s-24.667 8 -38 8c-28.667 0 -50.667 -13 -66 -39s-23 -58.667 -23 -98h-73c0 56 14.5 106 43.5 150
s69.833 66 122.5 66c18 0 36 -3.33301 54 -10s32.167 -13.5 42.5 -20.5l48.5 -34.5c22 -16 37.5 -27 46.5 -33s19.667 -12 32 -18s24.5 -9 36.5 -9c28.667 0 50.667 12.833 66 38.5s23 58.834 23 99.501h73z" />
    <glyph glyph-name="nonbreakingspace" unicode="&#xa0;" horiz-adv-x="250" 
 />
    <glyph glyph-name="exclamdown" unicode="&#xa1;" horiz-adv-x="323" 
d="M49 140c0 40 18 92.834 54 158.501s54 137.834 54 216.501h15c0 -72.667 17.833 -148.334 53.5 -227.001s53.5 -128.667 53.5 -150c0 -36.667 -12.5 -70.834 -37.5 -102.501s-51.167 -47.5 -78.5 -47.5c-26 0 -51.5 15.5 -76.5 46.5s-37.5 66.167 -37.5 105.5z
M66 645.001c0 26.667 9.5 49.167 28.5 67.5s42.167 27.5 69.5 27.5c26.667 0 49.5 -9.16699 68.5 -27.5s28.5 -40.833 28.5 -67.5c0 -26 -9.5 -48.167 -28.5 -66.5s-41.833 -27.5 -68.5 -27.5c-27.333 0 -50.5 8.83301 -69.5 26.5s-28.5 40.167 -28.5 67.5z" />
    <glyph glyph-name="cent" unicode="&#xa2;" horiz-adv-x="573" 
d="M434 457c31.333 -18 57.1689 -36.833 77.502 -56.5s30.5 -43.5 30.5 -71.5c0 -24.667 -7.66699 -44.5 -23 -59.5s-38 -22.5 -68 -22.5c-19.333 0 -37.833 5.66699 -55.5 17s-30.834 25.666 -39.501 42.999l-104 -199c11.333 -25.333 27.333 -45.333 48 -60s43 -22 67 -22
c36 0 68 11.667 96 35s48.667 52 62 86l15 -8c-43.333 -98 -123.333 -147 -240 -147c-36.667 0 -70 5.33301 -100 16l-86 -165l-18 9l84 162c-46 18.667 -83.167 47.334 -111.5 86.001s-42.5 84 -42.5 136c0 74 26.333 133.667 79 179s117.667 68 195 68
c24 0 44.667 -1.5 62 -4.5s34.666 -7.83301 51.999 -14.5l77 147l19 -8zM349.003 338c0 16.667 3.50098 33.833 10.501 51.5s10.5 31.5 10.5 41.5c0 12 -3.33301 21 -10 27s-18 9 -34 9c-20 0 -36 -6.83301 -48 -20.5s-21.333 -31.167 -28 -52.5
s-11.834 -45.5 -15.501 -72.5s-5.5 -50.833 -5.5 -71.5c0 -46 4.66699 -84.667 14 -116z" />
    <glyph glyph-name="sterling" unicode="&#xa3;" horiz-adv-x="810" 
d="M238 84c-36.667 27.333 -67.002 47.999 -91.002 61.999s-51.333 21 -82 21c-19.333 0 -36.166 -6.16699 -50.499 -18.5s-21.5 -28.166 -21.5 -47.499c0 -26 10.333 -46.833 31 -62.5s44.334 -23.5 71.001 -23.5c31.333 0 58 5.16699 80 15.5s42.667 26.5 62 48.5z
M232.998 403.999c-8 22.667 -12 45.668 -12 69.001c0 82 30.5 147 91.5 195s133.833 72 218.5 72c58 0 107.5 -13.833 148.5 -41.5s61.5 -65.167 61.5 -112.5c0 -26 -9.16699 -49.167 -27.5 -69.5s-40.166 -30.5 -65.499 -30.5c-28.667 0 -53 8.66699 -73 26
s-30 40.666 -30 69.999c0 27.333 8.5 50.166 25.5 68.499s35.167 27.5 54.5 27.5c10 1.33301 15 5.33301 15 12c0 6 -8.16699 12.5 -24.5 19.5s-35.166 10.5 -56.499 10.5c-28.667 0 -52.834 -9.83301 -72.501 -29.5s-29.5 -45.167 -29.5 -76.5c0 -20 9 -51 27 -93
s27 -81 27 -117h163l-10 -28h-157c-6.66699 -24 -19 -48.833 -37 -74.5s-39 -51.834 -63 -78.501l82 -11.5c17.333 -2.33301 35.333 -3.5 54 -3.5c71.333 0 117.666 9.83301 138.999 29.5s36.333 49.167 45 88.5h12c1.33301 -8 2.33301 -16.833 3 -26.5s1 -19.167 1 -28.5
c0 -86 -26 -154.667 -78 -206s-122.667 -77 -212 -77c-28.667 0 -54.667 4.33301 -78 13s-60.333 29.334 -111 62.001c-26 -22.667 -51.667 -39.5 -77 -50.5s-53 -16.5 -83 -16.5c-34.667 0 -65 10.167 -91 30.5s-39 46.5 -39 78.5c0 44.667 25.833 78.834 77.5 102.501
s109.167 35.5 172.5 35.5c31.333 0 65.666 -2.66699 102.999 -8c-5.33301 19.333 -19.166 45.333 -41.499 78s-35.833 53.667 -40.5 63h-155l10 28h133z" />
    <glyph glyph-name="currency" unicode="&#xa4;" horiz-adv-x="882" 
d="M650 301c0 -23.333 -3.50195 -45.001 -10.502 -65.001s-17.5 -40 -31.5 -60l38 -40l-45 -44l-39 38c-38 -30 -83.333 -45 -136 -45c-22.667 0 -44.5 3.83301 -65.5 11.5s-41.167 18.834 -60.5 33.501l-40 -38l-46 44l39 40c-14 21.333 -24.5 42.166 -31.5 62.499
s-10.5 42.5 -10.5 66.5c0 48 14 92.667 42 134l-39 36l46 49l40 -40c18.667 14.667 39.334 25.334 62.001 32.001s46.667 10 72 10c48.667 0 91.334 -14 128.001 -42l39 40l45 -49l-38 -36c28 -42 42 -88 42 -138zM555.998 304.999c0 34.667 -12.167 65.167 -36.5 91.5
s-53.5 39.5 -87.5 39.5c-36 0 -66.667 -12.667 -92 -38s-38 -56.333 -38 -93c0 -33.333 12.667 -62.333 38 -87s55 -37 89 -37c36 0 66.167 11.833 90.5 35.5s36.5 53.167 36.5 88.5z" />
    <glyph glyph-name="yen" unicode="&#xa5;" horiz-adv-x="804" 
d="M221 424l-116.997 195c-22.667 35.333 -40.334 58.5 -53.001 69.5s-29.667 18.167 -51 21.5l-17 3v16h457v-16h-25c-8.66699 0 -18.834 -0.666992 -30.501 -2s-20.834 -3.5 -27.501 -6.5s-10 -9.16699 -10 -18.5c0 -7.33301 1.33301 -14.5 4 -21.5s11 -22.833 25 -47.5
l60 -101l80 -129l75.5 136c26.333 48 44.666 82.333 54.999 103s15.5 36.667 15.5 48c0 21.333 -15 33.666 -45 36.999l-39 2v16h226v-16l-23 -2c-14.667 -2 -29 -5.5 -43 -10.5s-29.333 -20.5 -46 -46.5s-36.834 -60.167 -60.501 -102.5l-71.5 -127.5h164l-10 -28h-169
l-11 -20v-85h190l-10 -28h-180v-136l2 -46c2 -21.333 6.5 -36.166 13.5 -44.499s17.833 -13.5 32.5 -15.5s27.334 -3.16699 38.001 -3.5s20.334 -0.833008 29.001 -1.5v-16h-484v16l66 3c20 2 33.667 7 41 15s12 23 14 45l2 46v138h-210l10 28h200v20l-51 85h-159l10 28h133
z" />
    <glyph glyph-name="brokenbar" unicode="&#xa6;" horiz-adv-x="445" 
d="M262 280h-78l-1 494h79v-494zM262 -306h-79l1 486h78v-486z" />
    <glyph glyph-name="section" unicode="&#xa7;" horiz-adv-x="598" 
d="M226 399c-40 28 -69.8359 55.332 -89.5029 81.999s-29.5 55.667 -29.5 87c0 47.333 20.167 87.833 60.5 121.5s93.5 50.5 159.5 50.5c48 0 89.167 -11.833 123.5 -35.5s51.5 -53.167 51.5 -88.5c0 -20 -7.16699 -37.167 -21.5 -51.5s-32.833 -21.5 -55.5 -21.5
c-24.667 0 -47.334 6.5 -68.001 19.5s-31 33.167 -31 60.5c0 36.667 10.167 57.667 30.5 63s30.5 11.666 30.5 18.999c0 4.66699 -5.83301 9 -17.5 13s-25.5 6 -41.5 6c-27.333 0 -50.833 -6.5 -70.5 -19.5s-29.5 -32.833 -29.5 -59.5
c0 -21.333 6.83301 -40.666 20.5 -57.999s28.334 -31.666 44.001 -42.999s43.834 -30 84.501 -56s70 -45.5 88 -58.5s34.667 -31.167 50 -54.5s23 -50.333 23 -81c0 -39.333 -15.667 -72.333 -47 -99s-71.666 -43 -120.999 -49c37.333 -29.333 66.833 -54.166 88.5 -74.499
s32.5 -53.833 32.5 -100.5c0 -44.667 -22.333 -84.334 -67 -119.001s-98.334 -52 -161.001 -52c-48 0 -87.833 11 -119.5 33s-47.5 52 -47.5 90c0 20.667 7.5 38.167 22.5 52.5s35.5 21.5 61.5 21.5c23.333 0 44.333 -7 63 -21s28 -33.333 28 -58
c0 -16 -4.16699 -30.5 -12.5 -43.5s-18.333 -21.167 -30 -24.5s-17.5 -8.33301 -17.5 -15c0 -4.66699 5.33301 -8.83398 16 -12.501s23.334 -5.5 38.001 -5.5c27.333 0 51.833 6.66699 73.5 20s32.5 34.666 32.5 63.999c0 20 -6.33301 38.667 -19 56
c-13.333 17.333 -38.166 38.5 -74.499 63.5l-128.5 88.5c-24 18.667 -43.833 39.334 -59.5 62.001s-23.5 48.334 -23.5 77.001c0 40 14.667 73.333 44 100s68 43.667 116 51zM358.997 150.999c14 6 24.167 15.167 30.5 27.5s9.5 27.5 9.5 45.5c0 22 -5.5 41 -16.5 57
s-29.5 33.667 -55.5 53l-89 58c-10.667 -4 -19.5 -13 -26.5 -27s-10.5 -29.667 -10.5 -47c0 -20.667 5.66699 -40 17 -58s31.333 -36.667 60 -56z" />
    <glyph glyph-name="dieresis" unicode="&#xa8;" 
d="M70 618c0 17.333 6.66602 32.668 19.999 46.001s29.333 20 48 20s34.334 -6.33301 47.001 -19s19 -28.334 19 -47.001c0 -20 -6 -36.333 -18 -49s-28 -19 -48 -19c-18.667 0 -34.667 6.66699 -48 20s-20 29.333 -20 48zM295.999 618.002c0 17.333 6.66699 32.667 20 46
s29 20 47 20c18.667 0 34.5 -6.5 47.5 -19.5s19.5 -28.5 19.5 -46.5c0 -20 -6.33301 -36.333 -19 -49s-28.667 -19 -48 -19c-18 0 -33.667 6.66699 -47 20s-20 29.333 -20 48z" />
    <glyph glyph-name="copyright" unicode="&#xa9;" horiz-adv-x="1000" 
d="M888 344c0 -108 -38.333 -200.667 -115 -278s-169.667 -116 -279 -116c-108.667 0 -201.5 38.5 -278.5 115.5s-115.5 169.833 -115.5 278.5s38.333 201.667 115 279s169.667 116 279 116s202.333 -38.667 279 -116s115 -170.333 115 -279zM856 344
c0 100.667 -35 186.336 -105 257.003s-155.667 106 -257 106s-187 -35.333 -257 -106s-105 -156.334 -105 -257.001s35 -186.334 105 -257.001s155.667 -106 257 -106c100.667 0 186.167 35.167 256.5 105.5s105.5 156.166 105.5 257.499zM507 108.002
c-74.667 0 -135.333 22.334 -182 67.001s-70 101.667 -70 171c0 70.667 23.333 128 70 172s107 66 181 66c34 0 62 -5 84 -15l64 -38c12 0 20.5 4.33301 25.5 13s7.5 20 7.5 34h18v-199h-16c-23.333 64.667 -43.666 110.5 -60.999 137.5s-46 40.5 -86 40.5
c-38 0 -65.667 -19.833 -83 -59.5s-26 -87.167 -26 -142.5c0 -58.667 10.833 -109.167 32.5 -151.5s53.167 -63.5 94.5 -63.5c36.667 0 66.5 13.167 89.5 39.5s38.833 62.166 47.5 107.499l17 -3c-6 -51.333 -25.333 -93.5 -58 -126.5s-82.334 -49.5 -149.001 -49.5z" />
    <glyph glyph-name="ordfeminine" unicode="&#xaa;" horiz-adv-x="544" 
d="M471 420c14 0 23.333 7.16699 28 21.5s7 31.5 7 51.5h15c0 -44 -8.33301 -72.667 -25 -86s-32.667 -21.833 -48 -25.5s-34 -5.5 -56 -5.5c-25.333 0 -47.166 5.16699 -65.499 15.5s-29.166 25.166 -32.499 44.499c-10 -20 -24.667 -35.167 -44 -45.5s-46 -15.5 -80 -15.5
c-36.667 0 -66.167 8.5 -88.5 25.5s-33.5 40.833 -33.5 71.5c0 24.667 7 44.334 21 59.001s30 24.334 48 29.001s39.5 7.66699 64.5 9s44.333 3.66602 58 6.99902s24 6.5 31 9.5s11.167 10.167 12.5 21.5l-1 61c0 19.333 -3 33.5 -9 42.5s-17.667 13.5 -35 13.5
c-11.333 0 -20 -1.66699 -26 -5s-9 -8.66602 -9 -15.999c0 -4 5.66699 -10.333 17 -19s17 -21.334 17 -38.001c0 -14.667 -7.66699 -28 -23 -40s-40 -18 -74 -18c-18.667 0 -35.334 4.5 -50.001 13.5s-22 21.167 -22 36.5c0 30.667 19.167 55.167 57.5 73.5
s84.166 27.5 137.499 27.5c44 0 85.5 -8.66699 124.5 -26s58.5 -43 58.5 -77v-168c0 -15.333 1.33301 -27 4 -35c2.66699 -8.66699 9.66699 -13 21 -13zM283 444v134.001l-3 1c-4 -5.33301 -13.167 -11.333 -27.5 -18s-23.5 -12 -27.5 -16s-7.5 -12.167 -10.5 -24.5
s-4.5 -26.5 -4.5 -42.5c0 -20.667 1.83301 -37.334 5.5 -50.001s12.5 -19 26.5 -19c10.667 0 19.5 3.5 26.5 10.5s11.833 15.167 14.5 24.5zM120 244.001h322l-10 -28h-322zM120 124.001h322l-10 -28h-322z" />
    <glyph glyph-name="guillemotleft" unicode="&#xab;" horiz-adv-x="496" 
d="M276 74l-11 -9.99902l-223 167v28l223 166l11 -10l-46 -77.5c-17.333 -29.667 -33.666 -60.5 -48.999 -92.5c17.333 -34.667 34.166 -66.334 50.499 -95.001zM442 91.001l-10.999 -10l-203 151v25l203 151l11 -10l-40.5 -67.5c-15 -25.667 -30.5 -54.167 -46.5 -85.5
c17.333 -34.667 33.166 -64.167 47.499 -88.5z" />
    <glyph glyph-name="logicalnot" unicode="&#xac;" horiz-adv-x="833" 
d="M701 370v-245h-86v164h-483v81h569z" />
    <glyph glyph-name="registered" unicode="&#xae;" horiz-adv-x="1000" 
d="M889 345c0 -109.333 -38.333 -202.333 -115 -279s-169.667 -115 -279 -115s-202.333 38.333 -279 115s-115 169.667 -115 279s38.333 202.333 115 279s169.667 115 279 115s202.333 -38.333 279 -115s115 -169.667 115 -279zM465 344v-141l1 -27
c0 -23.333 12.333 -37 37 -41l32 -2v-14h-284v14l28 2c13.333 2 22.333 5.66699 27 11s8 14.666 10 27.999l1 27v290l-1 29c-2 12.667 -5.5 21.834 -10.5 27.501s-13.833 9.16699 -26.5 10.5l-27 3v14h266c38.667 0 69.834 -1.5 93.501 -4.5s43 -9.66699 58 -20
s26.833 -22.833 35.5 -37.5s13 -32 13 -52c0 -15.333 -2.5 -30 -7.5 -44s-14.5 -27.333 -28.5 -40s-28.833 -20.834 -44.5 -24.501s-37.5 -5.5 -65.5 -5.5c30 -9.33301 49.667 -15.666 59 -18.999s19.5 -8.66602 30.5 -15.999s21.333 -18.833 31 -34.5
s17.334 -32.834 23.001 -51.501s10.334 -31.167 14.001 -37.5s10.167 -9.5 19.5 -9.5c11.333 0 18.5 5.66699 21.5 17s4.5 27.333 4.5 48h14c0 -22.667 -1 -39.334 -3 -50.001s-7.33301 -22.667 -16 -36c-24.667 -30 -59.334 -45 -104.001 -45
c-68 0 -106.167 25.333 -114.5 76s-13.833 86.667 -16.5 108c-4.66699 22.667 -10.334 35.834 -17.001 39.501s-20.334 6.16699 -41.001 7.5h-12zM516 361c16 2.66699 28.334 13.999 37.001 33.999s13 42.333 13 67c0 20 -4.33301 39.333 -13 58
s-19.334 29.834 -32.001 33.501s-23.167 5.66699 -31.5 6s-16.5 0.5 -24.5 0.5v-200h28c11.333 0 19 0.333008 23 1zM857.001 345.999c0 100 -34.999 185.333 -104.999 256s-155.333 106 -256 106s-186.334 -35.333 -257.001 -106s-106 -156 -106 -256
c0 -101.333 35 -187.333 105 -258s156 -106 258 -106c100.667 0 186 35.333 256 106s105 156.667 105 258z" />
    <glyph glyph-name="degree" unicode="&#xb0;" horiz-adv-x="329" 
d="M165 739c40 0 74.499 -14.168 103.499 -42.501s43.5 -62.166 43.5 -101.499s-14.333 -73 -43 -101s-63.667 -42 -105 -42c-40.667 0 -75.167 13.833 -103.5 41.5s-42.5 61.5 -42.5 101.5s14.333 74 43 102s63.334 42 104.001 42zM254.999 595.999
c0 25.333 -8.66699 46.666 -26 63.999s-38.666 26 -63.999 26c-24.667 0 -46 -8.66699 -64 -26s-27 -38.666 -27 -63.999s8.83301 -46.833 26.5 -64.5s39.167 -26.5 64.5 -26.5s46.666 9 63.999 27s26 39.333 26 64z" />
    <glyph glyph-name="plusminus" unicode="&#xb1;" horiz-adv-x="833" 
d="M376 164v201h-247v81h247v223h81v-223h247v-81h-247v-201h247v-81h-575v81h247z" />
    <glyph glyph-name="acute" unicode="&#xb4;" 
d="M176 532c25.333 24.667 57.499 62.334 96.499 113.001s67.833 76 86.5 76c13.333 0 24.833 -1.83301 34.5 -5.5s16.334 -7.83398 20.001 -12.501s5.5 -15 5.5 -31c0 -21.333 -4.5 -36.333 -13.5 -45s-29.5 -19.667 -61.5 -33l-88 -37
c-26.667 -11.333 -50.667 -23.333 -72 -36z" />
    <glyph glyph-name="mu" unicode="&#xb5;" horiz-adv-x="668" 
d="M641 225c0 -39.333 -3.50195 -75.665 -10.502 -108.998s-17.667 -58.833 -32 -76.5s-28.166 -30.167 -41.499 -37.5s-28.666 -11 -45.999 -11c-26 0 -45.5 9.33301 -58.5 28s-19.5 41.667 -19.5 69l2 49l-4 2c-20 -40.667 -47.833 -75.667 -83.5 -105
s-72.5 -44 -110.5 -44c-39.333 0 -69 14.5 -89 43.5s-30 72.167 -30 129.5h-4c-12 -38.667 -21.167 -75.167 -27.5 -109.5s-9.5 -67.833 -9.5 -100.5c10 -23.333 19 -45.333 27 -66s12 -40.334 12 -59.001s-6.66699 -33.167 -20 -43.5s-26.333 -15.5 -39 -15.5
c-14.667 0 -28.667 5 -42 15s-20 26.667 -20 50c0 28 9.83301 72.667 29.5 134s37 113.333 52 156s23.5 68 25.5 76l23 170c4.66699 32.667 12.667 59.834 24 81.501s32 32.5 62 32.5c19.333 0 33.333 -5.33301 42 -16s13 -24.334 13 -41.001
c0 -24.667 -10.333 -56.667 -31 -96l-59 -111c0 -26 7.5 -47.833 22.5 -65.5s37.5 -26.5 67.5 -26.5c35.333 0 65.833 8.83301 91.5 26.5s44.834 42.167 57.501 73.5c0 30.667 0.666992 60.5 2 89.5s3.83301 54.667 7.5 77s11 42.833 22 61.5s31.167 28 60.5 28
c20 0 34.333 -5.83301 43 -17.5s13 -25.167 13 -40.5c0 -36 -12.667 -77.833 -38 -125.5l-70 -128.5c8 -14.667 18.167 -26.834 30.5 -36.501s28.5 -14.5 48.5 -14.5c26 0 46.667 8 62 24s25.666 42.667 30.999 80h14z" />
    <glyph glyph-name="paragraph" unicode="&#xb6;" horiz-adv-x="587" 
d="M460 96c0 -69.333 -3.99902 -121.664 -11.999 -156.997s-23 -63.5 -45 -84.5s-42.667 -35.5 -62 -43.5s-40.333 -12 -63 -12c-39.333 0 -72.833 11.667 -100.5 35s-41.5 55.333 -41.5 96c0 34 11.333 62.667 34 86s52.667 35 90 35c28 0 50.667 -7.66699 68 -23
s26 -35 26 -59c0 -22 -6.16699 -39.5 -18.5 -52.5s-28.5 -19.5 -48.5 -19.5c-20.667 0 -37 5.83301 -49 17.5s-18 26.5 -18 44.5c0 8 3.16699 17.333 9.5 28s9.5 17 9.5 19c-4 3.33301 -7.33301 5 -10 5c-21.333 0 -38.833 -8.16699 -52.5 -24.5
s-20.5 -35.166 -20.5 -56.499c0 -31.333 11.5 -57.833 34.5 -79.5s51.167 -32.5 84.5 -32.5c54 0 92 16.667 114 50s35.167 64.666 39.5 93.999s6.5 68.333 6.5 117v109c-124.667 0 -220.667 22.333 -288 67s-101 111 -101 199c0 49.333 13.333 94.666 40 135.999
s60.167 72.5 100.5 93.5s78.666 34 114.999 39s81.833 7.5 136.5 7.5h158v-16c-8 0 -17.333 -0.166992 -28 -0.5s-25.667 -1.83301 -45 -4.5s-33.833 -8.83398 -43.5 -18.501s-15.5 -25.834 -17.5 -48.501l-2 -51v-495z" />
    <glyph glyph-name="cedilla" unicode="&#xb8;" horiz-adv-x="484" 
d="M252 1l-44.999 -60c3.33301 0.666992 8.66602 1.33398 15.999 2.00098s14 1 20 1c42.667 0 73 -9.83301 91 -29.5s27 -39.5 27 -59.5c0 -36.667 -14 -62.334 -42 -77.001s-58 -22 -90 -22c-22 0 -41.333 4.5 -58 13.5s-25 20.833 -25 35.5c0 8 3.16699 15.833 9.5 23.5
s14.833 11.5 25.5 11.5c12.667 0 21.667 -3.66699 27 -11s8 -15.333 8 -24c0 -6 -3.66699 -15.667 -11 -29c9.33301 -4.66699 17 -7 23 -7c12 0 22.5 5.16699 31.5 15.5s13.5 25.166 13.5 44.499c0 24.667 -5.83301 43.167 -17.5 55.5s-29.167 18.5 -52.5 18.5
c-10.667 0 -19.5 -1.16699 -26.5 -3.5s-12.167 -4.16602 -15.5 -5.49902l-4 5l77 102h18z" />
    <glyph glyph-name="ordmasculine" unicode="&#xba;" horiz-adv-x="550" 
d="M501 558c0 -54.667 -22.333 -98.5 -67 -131.5s-98 -49.5 -160 -49.5c-64.667 0 -118.334 16.5 -161.001 49.5s-64 76.833 -64 131.5s21.333 98.5 64 131.5s96.334 49.5 161.001 49.5c64 0 117.833 -16.333 161.5 -49s65.5 -76.667 65.5 -132zM333 559
l-0.000976562 45.001c-2 14.667 -4 32.667 -6 54s-7.5 37.666 -16.5 48.999s-21.5 17 -37.5 17c-17.333 0 -30 -8 -38 -24s-13 -37.333 -15 -64l-3 -77l3 -79c3.33301 -36 9.5 -59.667 18.5 -71s20.833 -17 35.5 -17c18.667 0 31.834 7.83301 39.501 23.5
s12.5 33.167 14.5 52.5s3.33301 36.5 4 51.5s1 28.167 1 39.5zM119.999 244.001h322l-10 -28h-322zM119.999 124.001h322l-10 -28h-322z" />
    <glyph glyph-name="guillemotright" unicode="&#xbb;" horiz-adv-x="496" 
d="M454 231l-223 -167.001l-11 10l44 74.5c16 27.667 33 59.834 51 96.501c-18 36 -34.833 67.667 -50.5 95l-44.5 75l11 10l223 -166v-28zM268 231.999l-203.001 -150.999l-11 10l40 66.5c14.667 25 30.334 54.167 47.001 87.5c-19.333 38 -35.5 68.167 -48.5 90.5
s-25.833 43.166 -38.5 62.499l11 10l203 -151v-25z" />
    <glyph glyph-name="questiondown" unicode="&#xbf;" horiz-adv-x="618" 
d="M343 645c0 26.667 9.5 49.167 28.5 67.5s42.167 27.5 69.5 27.5c26.667 0 49.5 -9.16699 68.5 -27.5s28.5 -40.833 28.5 -67.5c0 -26 -9.5 -48.167 -28.5 -66.5s-41.833 -27.5 -68.5 -27.5c-27.333 0 -50.5 8.83301 -69.5 26.5s-28.5 40.167 -28.5 67.5zM454 517
l0.00390625 -192.999h-16c0 25.333 -9.83301 47.166 -29.5 65.499s-43.5 27.5 -71.5 27.5c-36.667 0 -61.334 -17.833 -74.001 -53.5s-19 -79.167 -19 -130.5c0 -61.333 9.16699 -113.333 27.5 -156s53.166 -64 104.499 -64c22 0 41.667 3.83301 59 11.5s26 18.167 26 31.5
c0 4.66699 -2.16699 8.66699 -6.5 12s-11.833 5 -22.5 5c-24.667 0 -44.834 7.5 -60.501 22.5s-23.5 34.5 -23.5 58.5c0 27.333 10.167 49.5 30.5 66.5s44.833 25.5 73.5 25.5c25.333 0 47.5 -9.5 66.5 -28.5s28.5 -42.167 28.5 -69.5c0 -47.333 -22.333 -86 -67 -116
s-95 -45 -151 -45c-80.667 0 -148.334 19.5 -203.001 58.5s-82 96.833 -82 173.5c0 70 24.5 125 73.5 165s110.167 60 183.5 60c30.667 0 56.667 -5 78 -15s38.333 -23.667 51 -41h4v129h20z" />
    <glyph glyph-name="Agrave" unicode="&#xc0;" horiz-adv-x="748" 
d="M341 249l-88 246l-85 -246h173zM161 228l-31 -104c-6.66699 -24 -10 -43 -10 -57c0 -15.333 3.83301 -26 11.5 -32s17.5 -10.167 29.5 -12.5s23.667 -3.83301 35 -4.5l33 -2v-16h-282v16l59 4c22 2.66699 38.667 8.16699 50 16.5s19.833 18.833 25.5 31.5
s12 27.667 19 45s12.833 33 17.5 47l191 572h110l211 -572l31 -78c9.33301 -20.667 18.833 -35.5 28.5 -44.5s23.167 -14.833 40.5 -17.5l41 -4v-16h-475v16c8 0 15.167 0.166992 21.5 0.5s17.833 1.83301 34.5 4.5s28.667 6.16699 36 10.5s11 13.5 11 27.5
c0 14.667 -4.66699 35.667 -14 63l-36 106h-188zM447 782l-8 -11c-22.667 13.333 -49 26.333 -79 39l-86.5 36.5c-27.667 11.667 -46.167 21.834 -55.5 30.501s-14 23.667 -14 45c0 6.66699 0.666992 13.167 2 19.5s3 10.833 5 13.5s8.33301 6 19 10s22 6 34 6
c19.333 0 48.833 -25.833 88.5 -77.5s71.167 -88.834 94.5 -111.501z" />
    <glyph glyph-name="Aacute" unicode="&#xc1;" horiz-adv-x="748" 
d="M341 249l-88 246l-85 -246h173zM161 228l-31 -104c-6.66699 -24 -10 -43 -10 -57c0 -15.333 3.83301 -26 11.5 -32s17.5 -10.167 29.5 -12.5s23.667 -3.83301 35 -4.5l33 -2v-16h-282v16l59 4c22 2.66699 38.667 8.16699 50 16.5s19.833 18.833 25.5 31.5
s12 27.667 19 45s12.833 33 17.5 47l191 572h110l211 -572l31 -78c9.33301 -20.667 18.833 -35.5 28.5 -44.5s23.167 -14.833 40.5 -17.5l41 -4v-16h-475v16c8 0 15.167 0.166992 21.5 0.5s17.833 1.83301 34.5 4.5s28.667 6.16699 36 10.5s11 13.5 11 27.5
c0 14.667 -4.66699 35.667 -14 63l-36 106h-188zM300 782c25.333 24.667 57.499 62.334 96.499 113.001s67.833 76 86.5 76c13.333 0 24.833 -1.83301 34.5 -5.5s16.334 -7.83398 20.001 -12.501s5.5 -15 5.5 -31c0 -21.333 -4.5 -36.333 -13.5 -45s-29.5 -19.667 -61.5 -33
l-88 -37c-26.667 -11.333 -50.667 -23.333 -72 -36z" />
    <glyph glyph-name="Acircumflex" unicode="&#xc2;" horiz-adv-x="748" 
d="M341 249l-88 246l-85 -246h173zM161 228l-31 -104c-6.66699 -24 -10 -43 -10 -57c0 -15.333 3.83301 -26 11.5 -32s17.5 -10.167 29.5 -12.5s23.667 -3.83301 35 -4.5l33 -2v-16h-282v16l59 4c22 2.66699 38.667 8.16699 50 16.5s19.833 18.833 25.5 31.5
s12 27.667 19 45s12.833 33 17.5 47l191 572h110l211 -572l31 -78c9.33301 -20.667 18.833 -35.5 28.5 -44.5s23.167 -14.833 40.5 -17.5l41 -4v-16h-475v16c8 0 15.167 0.166992 21.5 0.5s17.833 1.83301 34.5 4.5s28.667 6.16699 36 10.5s11 13.5 11 27.5
c0 14.667 -4.66699 35.667 -14 63l-36 106h-188zM524 776l-11 -8l-141 102l-141 -102l-11 8l109 181h86z" />
    <glyph glyph-name="Atilde" unicode="&#xc3;" horiz-adv-x="748" 
d="M341 249l-88 246l-85 -246h173zM161 228l-31 -104c-6.66699 -24 -10 -43 -10 -57c0 -15.333 3.83301 -26 11.5 -32s17.5 -10.167 29.5 -12.5s23.667 -3.83301 35 -4.5l33 -2v-16h-282v16l59 4c22 2.66699 38.667 8.16699 50 16.5s19.833 18.833 25.5 31.5
s12 27.667 19 45s12.833 33 17.5 47l191 572h110l211 -572l31 -78c9.33301 -20.667 18.833 -35.5 28.5 -44.5s23.167 -14.833 40.5 -17.5l41 -4v-16h-475v16c8 0 15.167 0.166992 21.5 0.5s17.833 1.83301 34.5 4.5s28.667 6.16699 36 10.5s11 13.5 11 27.5
c0 14.667 -4.66699 35.667 -14 63l-36 106h-188zM307 840c-21.333 0 -37 -3.66797 -47 -11.001s-17.667 -20.666 -23 -39.999h-17c10 48.667 24.167 83.5 42.5 104.5s43.166 31.5 74.499 31.5c10 0 31.333 -4.33301 64 -13s51 -13 55 -13c38.667 0 62.334 17 71.001 51h17
c-10 -48.667 -24.167 -83.5 -42.5 -104.5s-43.166 -31.5 -74.499 -31.5c-14.667 0 -37.834 4.33301 -69.501 13s-48.5 13 -50.5 13z" />
    <glyph glyph-name="Adieresis" unicode="&#xc4;" horiz-adv-x="748" 
d="M341 249l-88 246l-85 -246h173zM161 228l-31 -104c-6.66699 -24 -10 -43 -10 -57c0 -15.333 3.83301 -26 11.5 -32s17.5 -10.167 29.5 -12.5s23.667 -3.83301 35 -4.5l33 -2v-16h-282v16l59 4c22 2.66699 38.667 8.16699 50 16.5s19.833 18.833 25.5 31.5
s12 27.667 19 45s12.833 33 17.5 47l191 572h110l211 -572l31 -78c9.33301 -20.667 18.833 -35.5 28.5 -44.5s23.167 -14.833 40.5 -17.5l41 -4v-16h-475v16c8 0 15.167 0.166992 21.5 0.5s17.833 1.83301 34.5 4.5s28.667 6.16699 36 10.5s11 13.5 11 27.5
c0 14.667 -4.66699 35.667 -14 63l-36 106h-188zM194 868c0 17.333 6.66602 32.668 19.999 46.001s29.333 20 48 20s34.334 -6.33301 47.001 -19s19 -28.334 19 -47.001c0 -20 -6 -36.333 -18 -49s-28 -19 -48 -19c-18.667 0 -34.667 6.66699 -48 20s-20 29.333 -20 48z
M419.999 868.002c0 17.333 6.66699 32.667 20 46s29 20 47 20c18.667 0 34.5 -6.5 47.5 -19.5s19.5 -28.5 19.5 -46.5c0 -20 -6.33301 -36.333 -19 -49s-28.667 -19 -48 -19c-18 0 -33.667 6.66699 -47 20s-20 29.333 -20 48z" />
    <glyph glyph-name="Aring" unicode="&#xc5;" horiz-adv-x="748" 
d="M341 249l-88 246l-85 -246h173zM161 228l-31 -104c-6.66699 -24 -10 -43 -10 -57c0 -15.333 3.83301 -26 11.5 -32s17.5 -10.167 29.5 -12.5s23.667 -3.83301 35 -4.5l33 -2v-16h-282v16l59 4c22 2.66699 38.667 8.16699 50 16.5s19.833 18.833 25.5 31.5
s12 27.667 19 45s12.833 33 17.5 47l191 572h110l211 -572l31 -78c9.33301 -20.667 18.833 -35.5 28.5 -44.5s23.167 -14.833 40.5 -17.5l41 -4v-16h-475v16c8 0 15.167 0.166992 21.5 0.5s17.833 1.83301 34.5 4.5s28.667 6.16699 36 10.5s11 13.5 11 27.5
c0 14.667 -4.66699 35.667 -14 63l-36 106h-188zM308 880c0 -18.667 6 -34 18 -46s27.333 -18 46 -18s34.167 5.83301 46.5 17.5s18.5 27.167 18.5 46.5c0 18.667 -6.16699 34.167 -18.5 46.5s-27.833 18.5 -46.5 18.5s-34 -6 -46 -18s-18 -27.667 -18 -47zM267 880
c0 30 10.333 54.667 31 74s45.667 29 75 29s54.5 -9.5 75.5 -28.5s31.5 -43.833 31.5 -74.5c0 -29.333 -10.5 -53.833 -31.5 -73.5s-46.167 -29.5 -75.5 -29.5c-28.667 0 -53.5 9.83301 -74.5 29.5s-31.5 44.167 -31.5 73.5z" />
    <glyph glyph-name="AE" unicode="&#xc6;" horiz-adv-x="1130" 
d="M420 375l-0.000976562 327c0 5.33301 -2 8 -6 8c-3.33301 0 -6.66602 -3 -9.99902 -9l-180 -326h196zM212.999 354l-73.5029 -134.997l-49.5 -93.5c-8.66699 -17 -14.667 -31 -18 -42s-5 -20.5 -5 -28.5c0 -9.33301 3.16699 -16.333 9.5 -21s14.5 -8.33398 24.5 -11.001
s21.333 -4.33398 34 -5.00098s22 -1.33398 28 -2.00098v-16h-269v16l48 4c26.667 2.66699 50.334 14.167 71.001 34.5s44.334 55.5 71.001 105.5l249 455c15.333 30.667 23 52.334 23 65.001c0 10 -2.83301 16.333 -8.5 19s-15 5.33398 -28 8.00098
s-24.667 4.33398 -35 5.00098s-18.166 1 -23.499 1v16h794v-296h-16c-34 74.667 -75.333 137.5 -124 188.5s-89.667 78.167 -123 81.5s-59.166 5.16602 -77.499 5.49902s-34.5 0.833008 -48.5 1.5v-333l42 2c38.667 4 67.834 22.333 87.501 55s29.5 70.667 29.5 114h19v-364
h-19c0 43.333 -9.83301 82 -29.5 116s-48.834 53 -87.501 57l-42 2v-339c24.667 0.666992 50.5 1.16699 77.5 1.5s56.667 2.66602 89 6.99902s72.5 37.333 120.5 99s83.333 125.167 106 190.5h16v-318h-773v16c8.66699 0 18.667 0.5 30 1.5s24.166 2.33301 38.499 4
s25.333 6.66699 33 15s12.5 23.166 14.5 44.499l2 46v227h-207z" />
    <glyph glyph-name="Ccedilla" unicode="&#xc7;" horiz-adv-x="793" 
d="M443 -12c-114.667 0 -208.837 35.498 -282.504 106.498s-110.5 160.833 -110.5 269.5c0 111.333 36.5 201.833 109.5 271.5s167.167 104.5 282.5 104.5c49.333 0 92 -8.33301 128 -25l106 -60c20 0 33.333 6.83301 40 20.5s11.334 33.167 14.001 58.5h20v-316h-17
c-29.333 81.333 -50.166 136.333 -62.499 165s-32.833 56.334 -61.5 83.001s-65.334 40 -110.001 40c-58 0 -101 -32.667 -129 -98s-42 -141.666 -42 -228.999c0 -94 16.833 -175.5 50.5 -244.5s83.167 -103.5 148.5 -103.5c60.667 0 109.334 22 146.001 66
s61 101.333 73 172l17 -3c-9.33301 -80 -39.666 -146.333 -90.999 -199s-127.666 -79 -228.999 -79zM406.997 0.998047l-44.999 -60c3.33301 0.666992 8.66602 1.33398 15.999 2.00098s14 1 20 1c42.667 0 73 -9.83301 91 -29.5s27 -39.5 27 -59.5
c0 -36.667 -14 -62.334 -42 -77.001s-58 -22 -90 -22c-22 0 -41.333 4.5 -58 13.5s-25 20.833 -25 35.5c0 8 3.16699 15.833 9.5 23.5s14.833 11.5 25.5 11.5c12.667 0 21.667 -3.66699 27 -11s8 -15.333 8 -24c0 -6 -3.66699 -15.667 -11 -29c9.33301 -4.66699 17 -7 23 -7
c12 0 22.5 5.16699 31.5 15.5s13.5 25.166 13.5 44.499c0 24.667 -5.83301 43.167 -17.5 55.5s-29.167 18.5 -52.5 18.5c-10.667 0 -19.5 -1.16699 -26.5 -3.5s-12.167 -4.16602 -15.5 -5.49902l-4 5l77 102h18z" />
    <glyph glyph-name="Egrave" unicode="&#xc8;" horiz-adv-x="868" 
d="M391 20c28 0.666992 56.668 1.16895 86.001 1.50195s60.333 2.66602 93 6.99902s73 37.333 121 99s83.333 125.167 106 190.5h16v-318h-786v16c8.66699 0 18.667 0.5 30 1.5s24.166 2.33301 38.499 4s25.333 6.66699 33 15s12.5 23.166 14.5 44.499l2 46v474l-2 46
c-2 21.333 -7 36.333 -15 45s-19.167 14 -33.5 16s-27.333 3.16699 -39 3.5s-22.167 0.833008 -31.5 1.5v16h769v-296h-16c-34 74.667 -75.333 137.5 -124 188.5s-89.5 78.167 -122.5 81.5s-60.833 5.33301 -83.5 6s-37.667 1 -45 1h-9l-2 -328l42 2
c38.667 4 67.834 22.167 87.501 54.5s29.5 70.5 29.5 114.5h19v-364h-19c0 44.667 -9.83301 83.667 -29.5 117s-48.834 52 -87.501 56l-42 2v-344zM507.001 782.002l-8 -11c-22.667 13.333 -49 26.333 -79 39l-86.5 36.5c-27.667 11.667 -46.167 21.834 -55.5 30.501
s-14 23.667 -14 45c0 6.66699 0.666992 13.167 2 19.5s3 10.833 5 13.5s8.33301 6 19 10s22 6 34 6c19.333 0 48.833 -25.833 88.5 -77.5s71.167 -88.834 94.5 -111.501z" />
    <glyph glyph-name="Eacute" unicode="&#xc9;" horiz-adv-x="868" 
d="M391 20c28 0.666992 56.668 1.16895 86.001 1.50195s60.333 2.66602 93 6.99902s73 37.333 121 99s83.333 125.167 106 190.5h16v-318h-786v16c8.66699 0 18.667 0.5 30 1.5s24.166 2.33301 38.499 4s25.333 6.66699 33 15s12.5 23.166 14.5 44.499l2 46v474l-2 46
c-2 21.333 -7 36.333 -15 45s-19.167 14 -33.5 16s-27.333 3.16699 -39 3.5s-22.167 0.833008 -31.5 1.5v16h769v-296h-16c-34 74.667 -75.333 137.5 -124 188.5s-89.5 78.167 -122.5 81.5s-60.833 5.33301 -83.5 6s-37.667 1 -45 1h-9l-2 -328l42 2
c38.667 4 67.834 22.167 87.501 54.5s29.5 70.5 29.5 114.5h19v-364h-19c0 44.667 -9.83301 83.667 -29.5 117s-48.834 52 -87.501 56l-42 2v-344zM360.001 782.002c25.333 24.667 57.499 62.334 96.499 113.001s67.833 76 86.5 76c13.333 0 24.833 -1.83301 34.5 -5.5
s16.334 -7.83398 20.001 -12.501s5.5 -15 5.5 -31c0 -21.333 -4.5 -36.333 -13.5 -45s-29.5 -19.667 -61.5 -33l-88 -37c-26.667 -11.333 -50.667 -23.333 -72 -36z" />
    <glyph glyph-name="Ecircumflex" unicode="&#xca;" horiz-adv-x="868" 
d="M391 20c28 0.666992 56.668 1.16895 86.001 1.50195s60.333 2.66602 93 6.99902s73 37.333 121 99s83.333 125.167 106 190.5h16v-318h-786v16c8.66699 0 18.667 0.5 30 1.5s24.166 2.33301 38.499 4s25.333 6.66699 33 15s12.5 23.166 14.5 44.499l2 46v474l-2 46
c-2 21.333 -7 36.333 -15 45s-19.167 14 -33.5 16s-27.333 3.16699 -39 3.5s-22.167 0.833008 -31.5 1.5v16h769v-296h-16c-34 74.667 -75.333 137.5 -124 188.5s-89.5 78.167 -122.5 81.5s-60.833 5.33301 -83.5 6s-37.667 1 -45 1h-9l-2 -328l42 2
c38.667 4 67.834 22.167 87.501 54.5s29.5 70.5 29.5 114.5h19v-364h-19c0 44.667 -9.83301 83.667 -29.5 117s-48.834 52 -87.501 56l-42 2v-344zM584.001 776.002l-11 -8l-141 102l-141 -102l-11 8l109 181h86z" />
    <glyph glyph-name="Edieresis" unicode="&#xcb;" horiz-adv-x="868" 
d="M391 20c28 0.666992 56.668 1.16895 86.001 1.50195s60.333 2.66602 93 6.99902s73 37.333 121 99s83.333 125.167 106 190.5h16v-318h-786v16c8.66699 0 18.667 0.5 30 1.5s24.166 2.33301 38.499 4s25.333 6.66699 33 15s12.5 23.166 14.5 44.499l2 46v474l-2 46
c-2 21.333 -7 36.333 -15 45s-19.167 14 -33.5 16s-27.333 3.16699 -39 3.5s-22.167 0.833008 -31.5 1.5v16h769v-296h-16c-34 74.667 -75.333 137.5 -124 188.5s-89.5 78.167 -122.5 81.5s-60.833 5.33301 -83.5 6s-37.667 1 -45 1h-9l-2 -328l42 2
c38.667 4 67.834 22.167 87.501 54.5s29.5 70.5 29.5 114.5h19v-364h-19c0 44.667 -9.83301 83.667 -29.5 117s-48.834 52 -87.501 56l-42 2v-344zM254.001 868.002c0 17.333 6.66602 32.668 19.999 46.001s29.333 20 48 20s34.334 -6.33301 47.001 -19
s19 -28.334 19 -47.001c0 -20 -6 -36.333 -18 -49s-28 -19 -48 -19c-18.667 0 -34.667 6.66699 -48 20s-20 29.333 -20 48zM480 868.004c0 17.333 6.66699 32.667 20 46s29 20 47 20c18.667 0 34.5 -6.5 47.5 -19.5s19.5 -28.5 19.5 -46.5c0 -20 -6.33301 -36.333 -19 -49
s-28.667 -19 -48 -19c-18 0 -33.667 6.66699 -47 20s-20 29.333 -20 48z" />
    <glyph glyph-name="Igrave" unicode="&#xcc;" horiz-adv-x="536" 
d="M502 0l-471.001 0.00292969v16c4.66699 0 11 0.166992 19 0.5s21.167 1.66602 39.5 3.99902s31.333 7.83301 39 16.5s12.5 23.334 14.5 44.001l2 46v475l-2 46c-2 21.333 -6.5 36.166 -13.5 44.499s-20.833 13.833 -41.5 16.5l-54 4v16h468v-16l-54 -3
c-20.667 -2 -34.5 -6.83301 -41.5 -14.5s-11.5 -22.834 -13.5 -45.501l-2 -46v-479l2 -46c2 -22 6.83301 -36.833 14.5 -44.5s21.834 -12.834 42.501 -15.501l52 -3v-16zM340.999 782.003l-8 -11c-22.667 13.333 -49 26.333 -79 39l-86.5 36.5
c-27.667 11.667 -46.167 21.834 -55.5 30.501s-14 23.667 -14 45c0 6.66699 0.666992 13.167 2 19.5s3 10.833 5 13.5s8.33301 6 19 10s22 6 34 6c19.333 0 48.833 -25.833 88.5 -77.5s71.167 -88.834 94.5 -111.501z" />
    <glyph glyph-name="Iacute" unicode="&#xcd;" horiz-adv-x="536" 
d="M502 0l-471.001 0.00292969v16c4.66699 0 11 0.166992 19 0.5s21.167 1.66602 39.5 3.99902s31.333 7.83301 39 16.5s12.5 23.334 14.5 44.001l2 46v475l-2 46c-2 21.333 -6.5 36.166 -13.5 44.499s-20.833 13.833 -41.5 16.5l-54 4v16h468v-16l-54 -3
c-20.667 -2 -34.5 -6.83301 -41.5 -14.5s-11.5 -22.834 -13.5 -45.501l-2 -46v-479l2 -46c2 -22 6.83301 -36.833 14.5 -44.5s21.834 -12.834 42.501 -15.501l52 -3v-16zM193.999 782.003c25.333 24.667 57.499 62.334 96.499 113.001s67.833 76 86.5 76
c13.333 0 24.833 -1.83301 34.5 -5.5s16.334 -7.83398 20.001 -12.501s5.5 -15 5.5 -31c0 -21.333 -4.5 -36.333 -13.5 -45s-29.5 -19.667 -61.5 -33l-88 -37c-26.667 -11.333 -50.667 -23.333 -72 -36z" />
    <glyph glyph-name="Icircumflex" unicode="&#xce;" horiz-adv-x="536" 
d="M502 0l-471.001 0.00292969v16c4.66699 0 11 0.166992 19 0.5s21.167 1.66602 39.5 3.99902s31.333 7.83301 39 16.5s12.5 23.334 14.5 44.001l2 46v475l-2 46c-2 21.333 -6.5 36.166 -13.5 44.499s-20.833 13.833 -41.5 16.5l-54 4v16h468v-16l-54 -3
c-20.667 -2 -34.5 -6.83301 -41.5 -14.5s-11.5 -22.834 -13.5 -45.501l-2 -46v-479l2 -46c2 -22 6.83301 -36.833 14.5 -44.5s21.834 -12.834 42.501 -15.501l52 -3v-16zM417.999 776.003l-11 -8l-141 102l-141 -102l-11 8l109 181h86z" />
    <glyph glyph-name="Idieresis" unicode="&#xcf;" horiz-adv-x="536" 
d="M502 0l-471.001 0.00292969v16c4.66699 0 11 0.166992 19 0.5s21.167 1.66602 39.5 3.99902s31.333 7.83301 39 16.5s12.5 23.334 14.5 44.001l2 46v475l-2 46c-2 21.333 -6.5 36.166 -13.5 44.499s-20.833 13.833 -41.5 16.5l-54 4v16h468v-16l-54 -3
c-20.667 -2 -34.5 -6.83301 -41.5 -14.5s-11.5 -22.834 -13.5 -45.501l-2 -46v-479l2 -46c2 -22 6.83301 -36.833 14.5 -44.5s21.834 -12.834 42.501 -15.501l52 -3v-16zM87.999 868.003c0 17.333 6.66602 32.668 19.999 46.001s29.333 20 48 20s34.334 -6.33301 47.001 -19
s19 -28.334 19 -47.001c0 -20 -6 -36.333 -18 -49s-28 -19 -48 -19c-18.667 0 -34.667 6.66699 -48 20s-20 29.333 -20 48zM313.998 868.005c0 17.333 6.66699 32.667 20 46s29 20 47 20c18.667 0 34.5 -6.5 47.5 -19.5s19.5 -28.5 19.5 -46.5
c0 -20 -6.33301 -36.333 -19 -49s-28.667 -19 -48 -19c-18 0 -33.667 6.66699 -47 20s-20 29.333 -20 48z" />
    <glyph glyph-name="Eth" unicode="&#xd0;" horiz-adv-x="941" 
d="M391 394h143.001l-10 -28h-133v-347c4.66699 0 9 -0.166992 13 -0.5s9 -0.5 15 -0.5c25.333 0 48.5 1.66699 69.5 5s40.667 11.833 59 25.5s36 50 53 109s25.5 119.5 25.5 181.5c0 86.667 -10.5 164.167 -31.5 232.5s-44.833 107.833 -71.5 118.5
s-49.834 16.667 -69.501 18s-36.5 2 -50.5 2h-12v-316zM145.001 366l-125.001 0.00195312l10 28h115v207l-2 46c-2 21.333 -7 36.333 -15 45s-19.167 14 -33.5 16s-27.333 3.16699 -39 3.5s-22.167 0.833008 -31.5 1.5v16l373 2c78 0 151.5 -7.33301 220.5 -22
s132.667 -52 191 -112s87.5 -144.667 87.5 -254c0 -104.667 -26.167 -181.834 -78.5 -231.501s-107.666 -80.667 -165.999 -93s-126.166 -18.5 -203.499 -18.5h-421v16c8.66699 0 18.667 0.5 30 1.5s24.166 2.33301 38.499 4s25.333 6.66699 33 15s12.5 23.166 14.5 44.499
l2 46v239z" />
    <glyph glyph-name="Ntilde" unicode="&#xd1;" horiz-adv-x="900" 
d="M896 713c-8.66699 -0.666992 -18.168 -1.33496 -28.501 -2.00195s-24.833 -2.5 -43.5 -5.5s-32.834 -10.667 -42.501 -23s-15.5 -29.166 -17.5 -50.499l-2 -48v-584h-122l-475 608h-4v-467l2 -48c2 -22 7.5 -38.333 16.5 -49s22.667 -17.5 41 -20.5s34 -4.83301 47 -5.5
s21.833 -1.33398 26.5 -2.00098v-16h-288v16c8.66699 0.666992 18.334 1.33398 29.001 2.00098s29.5 3.16699 56.5 7.5s42.5 26.833 46.5 67.5l2 48v455l-2 46c-8.66699 14 -19 27 -31 39s-25.167 20.333 -39.5 25s-28.166 7 -41.499 7h-30v16h382l359 -460h4v319l-2 48
c-2 21.333 -7.5 37.5 -16.5 48.5s-22.5 18 -40.5 21s-32.5 4.83301 -43.5 5.5s-21.167 1.33398 -30.5 2.00098v16h288v-16zM382.999 839.999c-21.333 0 -37 -3.66797 -47 -11.001s-17.667 -20.666 -23 -39.999h-17c10 48.667 24.167 83.5 42.5 104.5
s43.166 31.5 74.499 31.5c10 0 31.333 -4.33301 64 -13s51 -13 55 -13c38.667 0 62.334 17 71.001 51h17c-10 -48.667 -24.167 -83.5 -42.5 -104.5s-43.166 -31.5 -74.499 -31.5c-14.667 0 -37.834 4.33301 -69.501 13s-48.5 13 -50.5 13z" />
    <glyph glyph-name="Ograve" unicode="&#xd2;" horiz-adv-x="906" 
d="M858 364c0 -106.667 -40.333 -196 -121 -268s-176 -108 -286 -108c-114.667 0 -210.5 35.5 -287.5 106.5s-115.5 160.833 -115.5 269.5c0 112 39.333 202.667 118 272s173.667 104 285 104s207 -35.167 287 -105.5s120 -160.5 120 -270.5zM554 637
c-20 56 -54.334 83.999 -103.001 83.999c-24.667 0 -46 -8 -64 -24s-31.833 -39.167 -41.5 -69.5s-16.667 -69.333 -21 -117s-6.5 -96.5 -6.5 -146.5c0 -68.667 2.66699 -124.667 8 -168s15.333 -85.666 30 -126.999s46.334 -62 95.001 -62c24.667 0 46 8 64 24
s31.833 39.167 41.5 69.5s16.667 69.333 21 117s6.5 96.5 6.5 146.5c0 59.333 -2 110.833 -6 154.5s-12 83.167 -24 118.5zM525.999 781.999l-8 -11c-22.667 13.333 -49 26.333 -79 39l-86.5 36.5c-27.667 11.667 -46.167 21.834 -55.5 30.501s-14 23.667 -14 45
c0 6.66699 0.666992 13.167 2 19.5s3 10.833 5 13.5s8.33301 6 19 10s22 6 34 6c19.333 0 48.833 -25.833 88.5 -77.5s71.167 -88.834 94.5 -111.501z" />
    <glyph glyph-name="Oacute" unicode="&#xd3;" horiz-adv-x="906" 
d="M858 364c0 -106.667 -40.333 -196 -121 -268s-176 -108 -286 -108c-114.667 0 -210.5 35.5 -287.5 106.5s-115.5 160.833 -115.5 269.5c0 112 39.333 202.667 118 272s173.667 104 285 104s207 -35.167 287 -105.5s120 -160.5 120 -270.5zM554 637
c-20 56 -54.334 83.999 -103.001 83.999c-24.667 0 -46 -8 -64 -24s-31.833 -39.167 -41.5 -69.5s-16.667 -69.333 -21 -117s-6.5 -96.5 -6.5 -146.5c0 -68.667 2.66699 -124.667 8 -168s15.333 -85.666 30 -126.999s46.334 -62 95.001 -62c24.667 0 46 8 64 24
s31.833 39.167 41.5 69.5s16.667 69.333 21 117s6.5 96.5 6.5 146.5c0 59.333 -2 110.833 -6 154.5s-12 83.167 -24 118.5zM378.999 781.999c25.333 24.667 57.499 62.334 96.499 113.001s67.833 76 86.5 76c13.333 0 24.833 -1.83301 34.5 -5.5
s16.334 -7.83398 20.001 -12.501s5.5 -15 5.5 -31c0 -21.333 -4.5 -36.333 -13.5 -45s-29.5 -19.667 -61.5 -33l-88 -37c-26.667 -11.333 -50.667 -23.333 -72 -36z" />
    <glyph glyph-name="Ocircumflex" unicode="&#xd4;" horiz-adv-x="906" 
d="M858 364c0 -106.667 -40.333 -196 -121 -268s-176 -108 -286 -108c-114.667 0 -210.5 35.5 -287.5 106.5s-115.5 160.833 -115.5 269.5c0 112 39.333 202.667 118 272s173.667 104 285 104s207 -35.167 287 -105.5s120 -160.5 120 -270.5zM554 637
c-20 56 -54.334 83.999 -103.001 83.999c-24.667 0 -46 -8 -64 -24s-31.833 -39.167 -41.5 -69.5s-16.667 -69.333 -21 -117s-6.5 -96.5 -6.5 -146.5c0 -68.667 2.66699 -124.667 8 -168s15.333 -85.666 30 -126.999s46.334 -62 95.001 -62c24.667 0 46 8 64 24
s31.833 39.167 41.5 69.5s16.667 69.333 21 117s6.5 96.5 6.5 146.5c0 59.333 -2 110.833 -6 154.5s-12 83.167 -24 118.5zM599.999 775.999l-11 -8l-141 102l-141 -102l-11 8l109 181h86z" />
    <glyph glyph-name="Otilde" unicode="&#xd5;" horiz-adv-x="906" 
d="M858 364c0 -106.667 -40.333 -196 -121 -268s-176 -108 -286 -108c-114.667 0 -210.5 35.5 -287.5 106.5s-115.5 160.833 -115.5 269.5c0 112 39.333 202.667 118 272s173.667 104 285 104s207 -35.167 287 -105.5s120 -160.5 120 -270.5zM554 637
c-20 56 -54.334 83.999 -103.001 83.999c-24.667 0 -46 -8 -64 -24s-31.833 -39.167 -41.5 -69.5s-16.667 -69.333 -21 -117s-6.5 -96.5 -6.5 -146.5c0 -68.667 2.66699 -124.667 8 -168s15.333 -85.666 30 -126.999s46.334 -62 95.001 -62c24.667 0 46 8 64 24
s31.833 39.167 41.5 69.5s16.667 69.333 21 117s6.5 96.5 6.5 146.5c0 59.333 -2 110.833 -6 154.5s-12 83.167 -24 118.5zM385.999 839.999c-21.333 0 -37 -3.66797 -47 -11.001s-17.667 -20.666 -23 -39.999h-17c10 48.667 24.167 83.5 42.5 104.5
s43.166 31.5 74.499 31.5c10 0 31.333 -4.33301 64 -13s51 -13 55 -13c38.667 0 62.334 17 71.001 51h17c-10 -48.667 -24.167 -83.5 -42.5 -104.5s-43.166 -31.5 -74.499 -31.5c-14.667 0 -37.834 4.33301 -69.501 13s-48.5 13 -50.5 13z" />
    <glyph glyph-name="Odieresis" unicode="&#xd6;" horiz-adv-x="906" 
d="M858 364c0 -106.667 -40.333 -196 -121 -268s-176 -108 -286 -108c-114.667 0 -210.5 35.5 -287.5 106.5s-115.5 160.833 -115.5 269.5c0 112 39.333 202.667 118 272s173.667 104 285 104s207 -35.167 287 -105.5s120 -160.5 120 -270.5zM554 637
c-20 56 -54.334 83.999 -103.001 83.999c-24.667 0 -46 -8 -64 -24s-31.833 -39.167 -41.5 -69.5s-16.667 -69.333 -21 -117s-6.5 -96.5 -6.5 -146.5c0 -68.667 2.66699 -124.667 8 -168s15.333 -85.666 30 -126.999s46.334 -62 95.001 -62c24.667 0 46 8 64 24
s31.833 39.167 41.5 69.5s16.667 69.333 21 117s6.5 96.5 6.5 146.5c0 59.333 -2 110.833 -6 154.5s-12 83.167 -24 118.5zM272.999 867.999c0 17.333 6.66602 32.668 19.999 46.001s29.333 20 48 20s34.334 -6.33301 47.001 -19s19 -28.334 19 -47.001
c0 -20 -6 -36.333 -18 -49s-28 -19 -48 -19c-18.667 0 -34.667 6.66699 -48 20s-20 29.333 -20 48zM498.998 868.001c0 17.333 6.66699 32.667 20 46s29 20 47 20c18.667 0 34.5 -6.5 47.5 -19.5s19.5 -28.5 19.5 -46.5c0 -20 -6.33301 -36.333 -19 -49s-28.667 -19 -48 -19
c-18 0 -33.667 6.66699 -47 20s-20 29.333 -20 48z" />
    <glyph glyph-name="multiply" unicode="&#xd7;" horiz-adv-x="833" 
d="M421 386l225 224l57 -57l-224 -225l224 -224l-57 -58l-225 225l-224 -225l-57 58l224 224l-224 225l57 57z" />
    <glyph glyph-name="Oslash" unicode="&#xd8;" horiz-adv-x="906" 
d="M858 364c0 -106.667 -40.333 -196 -121 -268s-176 -108 -286 -108c-84.667 0 -162 21.667 -232 65l-64 -82l-16 13l62 80c-48 34.667 -85.5 77.667 -112.5 129s-40.5 108.333 -40.5 171c0 112 39.333 202.667 118 272s173.667 104 285 104
c80.667 0 156.334 -21 227.001 -63l62 79l17 -12l-61 -78c49.333 -34 88.666 -77.167 117.999 -129.5s44 -109.833 44 -172.5zM579 526l-252 -347c3.33301 -21.333 6.16602 -37.833 8.49902 -49.5s9.66602 -35 21.999 -70s43.5 -52.5 93.5 -52.5
c24.667 0 46.334 8 65.001 24s32.834 39.167 42.501 69.5s16.667 69.333 21 117s6.5 96.5 6.5 146.5c0 59.333 -2.33301 113.333 -7 162zM574 558c-3.33301 22 -5.99805 37.166 -7.99805 45.499s-9.16699 30 -21.5 65s-43.5 52.5 -93.5 52.5
c-24.667 0 -46.334 -8 -65.001 -24s-32.834 -39.167 -42.501 -69.5s-16.667 -69.333 -21 -117s-6.5 -96.5 -6.5 -146.5c0 -31.333 0.5 -58.166 1.5 -80.499s2.83301 -46.833 5.5 -73.5z" />
    <glyph glyph-name="Ugrave" unicode="&#xd9;" horiz-adv-x="853" 
d="M869 713c-8.66699 -0.666992 -18.502 -1.33496 -29.502 -2.00195s-25.667 -2.33398 -44 -5.00098s-32.333 -10.667 -42 -24s-15.5 -30.666 -17.5 -51.999l-2 -48v-297l-2 -50c-10 -92 -35 -156.167 -75 -192.5s-102 -54.5 -186 -54.5c-110.667 0 -196 21 -256 63
s-90 94.333 -90 157v394l-2 46c-2 21.333 -6.5 36.166 -13.5 44.499s-20.833 13.833 -41.5 16.5l-42 4v16h468v-16c-8.66699 -0.666992 -18.5 -1.16699 -29.5 -1.5s-25.167 -1.66602 -42.5 -3.99902s-29.333 -7.16602 -36 -14.499s-11 -22.333 -13 -45l-2 -46v-401
c0 -8 0.333008 -17.667 1 -29s2.83398 -28.833 6.50098 -52.5s17 -47 40 -70s54.5 -34.5 94.5 -34.5c56 0 98.167 14.167 126.5 42.5s47.333 60.833 57 97.5s14.834 68 15.501 94l1 47v290l-2 48c-2 22 -7.5 38.667 -16.5 50s-22.5 18.5 -40.5 21.5s-33 4.83301 -45 5.5
s-23.333 1.33398 -34 2.00098v16h294v-16zM569.998 781.999l-8 -11c-22.667 13.333 -49 26.333 -79 39l-86.5 36.5c-27.667 11.667 -46.167 21.834 -55.5 30.501s-14 23.667 -14 45c0 6.66699 0.666992 13.167 2 19.5s3 10.833 5 13.5s8.33301 6 19 10s22 6 34 6
c19.333 0 48.833 -25.833 88.5 -77.5s71.167 -88.834 94.5 -111.501z" />
    <glyph glyph-name="Uacute" unicode="&#xda;" horiz-adv-x="853" 
d="M869 713c-8.66699 -0.666992 -18.502 -1.33496 -29.502 -2.00195s-25.667 -2.33398 -44 -5.00098s-32.333 -10.667 -42 -24s-15.5 -30.666 -17.5 -51.999l-2 -48v-297l-2 -50c-10 -92 -35 -156.167 -75 -192.5s-102 -54.5 -186 -54.5c-110.667 0 -196 21 -256 63
s-90 94.333 -90 157v394l-2 46c-2 21.333 -6.5 36.166 -13.5 44.499s-20.833 13.833 -41.5 16.5l-42 4v16h468v-16c-8.66699 -0.666992 -18.5 -1.16699 -29.5 -1.5s-25.167 -1.66602 -42.5 -3.99902s-29.333 -7.16602 -36 -14.499s-11 -22.333 -13 -45l-2 -46v-401
c0 -8 0.333008 -17.667 1 -29s2.83398 -28.833 6.50098 -52.5s17 -47 40 -70s54.5 -34.5 94.5 -34.5c56 0 98.167 14.167 126.5 42.5s47.333 60.833 57 97.5s14.834 68 15.501 94l1 47v290l-2 48c-2 22 -7.5 38.667 -16.5 50s-22.5 18.5 -40.5 21.5s-33 4.83301 -45 5.5
s-23.333 1.33398 -34 2.00098v16h294v-16zM372.998 781.999c25.333 24.667 57.499 62.334 96.499 113.001s67.833 76 86.5 76c13.333 0 24.833 -1.83301 34.5 -5.5s16.334 -7.83398 20.001 -12.501s5.5 -15 5.5 -31c0 -21.333 -4.5 -36.333 -13.5 -45
s-29.5 -19.667 -61.5 -33l-88 -37c-26.667 -11.333 -50.667 -23.333 -72 -36z" />
    <glyph glyph-name="Ucircumflex" unicode="&#xdb;" horiz-adv-x="853" 
d="M869 713c-8.66699 -0.666992 -18.502 -1.33496 -29.502 -2.00195s-25.667 -2.33398 -44 -5.00098s-32.333 -10.667 -42 -24s-15.5 -30.666 -17.5 -51.999l-2 -48v-297l-2 -50c-10 -92 -35 -156.167 -75 -192.5s-102 -54.5 -186 -54.5c-110.667 0 -196 21 -256 63
s-90 94.333 -90 157v394l-2 46c-2 21.333 -6.5 36.166 -13.5 44.499s-20.833 13.833 -41.5 16.5l-42 4v16h468v-16c-8.66699 -0.666992 -18.5 -1.16699 -29.5 -1.5s-25.167 -1.66602 -42.5 -3.99902s-29.333 -7.16602 -36 -14.499s-11 -22.333 -13 -45l-2 -46v-401
c0 -8 0.333008 -17.667 1 -29s2.83398 -28.833 6.50098 -52.5s17 -47 40 -70s54.5 -34.5 94.5 -34.5c56 0 98.167 14.167 126.5 42.5s47.333 60.833 57 97.5s14.834 68 15.501 94l1 47v290l-2 48c-2 22 -7.5 38.667 -16.5 50s-22.5 18.5 -40.5 21.5s-33 4.83301 -45 5.5
s-23.333 1.33398 -34 2.00098v16h294v-16zM626.998 775.999l-11 -8l-141 102l-141 -102l-11 8l109 181h86z" />
    <glyph glyph-name="Udieresis" unicode="&#xdc;" horiz-adv-x="853" 
d="M869 713c-8.66699 -0.666992 -18.502 -1.33496 -29.502 -2.00195s-25.667 -2.33398 -44 -5.00098s-32.333 -10.667 -42 -24s-15.5 -30.666 -17.5 -51.999l-2 -48v-297l-2 -50c-10 -92 -35 -156.167 -75 -192.5s-102 -54.5 -186 -54.5c-110.667 0 -196 21 -256 63
s-90 94.333 -90 157v394l-2 46c-2 21.333 -6.5 36.166 -13.5 44.499s-20.833 13.833 -41.5 16.5l-42 4v16h468v-16c-8.66699 -0.666992 -18.5 -1.16699 -29.5 -1.5s-25.167 -1.66602 -42.5 -3.99902s-29.333 -7.16602 -36 -14.499s-11 -22.333 -13 -45l-2 -46v-401
c0 -8 0.333008 -17.667 1 -29s2.83398 -28.833 6.50098 -52.5s17 -47 40 -70s54.5 -34.5 94.5 -34.5c56 0 98.167 14.167 126.5 42.5s47.333 60.833 57 97.5s14.834 68 15.501 94l1 47v290l-2 48c-2 22 -7.5 38.667 -16.5 50s-22.5 18.5 -40.5 21.5s-33 4.83301 -45 5.5
s-23.333 1.33398 -34 2.00098v16h294v-16zM296.998 867.999c0 17.333 6.66602 32.668 19.999 46.001s29.333 20 48 20s34.334 -6.33301 47.001 -19s19 -28.334 19 -47.001c0 -20 -6 -36.333 -18 -49s-28 -19 -48 -19c-18.667 0 -34.667 6.66699 -48 20s-20 29.333 -20 48z
M522.997 868.001c0 17.333 6.66699 32.667 20 46s29 20 47 20c18.667 0 34.5 -6.5 47.5 -19.5s19.5 -28.5 19.5 -46.5c0 -20 -6.33301 -36.333 -19 -49s-28.667 -19 -48 -19c-18 0 -33.667 6.66699 -47 20s-20 29.333 -20 48z" />
    <glyph glyph-name="Yacute" unicode="&#xdd;" horiz-adv-x="744" 
d="M524 127l2 -45.9951c2 -21.333 6.5 -36.166 13.5 -44.499s17.667 -13.333 32 -15s27.5 -2.83398 39.5 -3.50098s22.333 -1.33398 31 -2.00098v-16h-487v16l66 3c20 2 33.667 7 41 15s12 23 14 45l2 46v186l-189 308c-22.667 35.333 -40.5 58.666 -53.5 69.999
s-30.167 18.333 -51.5 21l-28 3v16h467v-16l-52 -2c-14 -1.33301 -24 -3.33301 -30 -6s-9 -9 -9 -19c0 -7.33301 1.33301 -14.5 4 -21.5s9.33398 -19.667 20.001 -38s31.167 -51.833 61.5 -100.5l87.5 -139l74 127.5c26.667 45.667 46.5 80.667 59.5 105
s19.5 44.166 19.5 59.499c0 18 -14.667 28.667 -44 32l-40 2v16h238v-16l-26 -2c-22.667 0 -41.667 -4.33301 -57 -13s-31.333 -25.834 -48 -51.501s-39.834 -64.334 -69.501 -116.001l-87.5 -154.5v-249zM353 782.005c25.333 24.667 57.499 62.334 96.499 113.001
s67.833 76 86.5 76c13.333 0 24.833 -1.83301 34.5 -5.5s16.334 -7.83398 20.001 -12.501s5.5 -15 5.5 -31c0 -21.333 -4.5 -36.333 -13.5 -45s-29.5 -19.667 -61.5 -33l-88 -37c-26.667 -11.333 -50.667 -23.333 -72 -36z" />
    <glyph glyph-name="Thorn" unicode="&#xde;" horiz-adv-x="814" 
d="M553 383c0 38 -4.99902 75.0029 -14.999 111.003s-24.833 57.167 -44.5 63.5s-39.334 9.66602 -59.001 9.99902s-34.167 0.5 -43.5 0.5v-378l41 2c14 0.666992 32.5 3.16699 55.5 7.5s39.667 24.666 50 60.999s15.5 77.166 15.5 122.499zM508.001 729.003
l-0.000976562 -16l-60 -4c-21.333 -2.66699 -35.333 -7.66699 -42 -15s-11 -22.333 -13 -45l-2 -63h100c55.333 0 102.166 -3.83301 140.499 -11.5s69.5 -19.5 93.5 -35.5s43 -38.167 57 -66.5s21 -58.5 21 -90.5c0 -29.333 -5 -57.833 -15 -85.5s-24.833 -50.667 -44.5 -69
s-43.667 -32 -72 -41s-64.5 -13.5 -108.5 -13.5c-43.333 0 -78.333 -0.166992 -105 -0.5s-49 -0.833008 -67 -1.5v-48c0 -14.667 0.833008 -30.667 2.5 -48s6.33398 -30.166 14.001 -38.499s18.834 -13.5 33.501 -15.5s29 -3.16699 43 -3.5s23.667 -0.833008 29 -1.5v-16
h-488v16h31c14 2 27.667 3.83301 41 5.5s23.833 6.66699 31.5 15s12.5 23.166 14.5 44.499l2 46v474l-2 46c-2 21.333 -7 36.333 -15 45s-19.167 14 -33.5 16s-27.333 3.16699 -39 3.5s-22.167 0.833008 -31.5 1.5v16h484z" />
    <glyph glyph-name="germandbls" unicode="&#xdf;" horiz-adv-x="634" 
d="M342 17c-15.333 13.333 -24.6689 28.3301 -28.002 44.9971s-5 44.334 -5 83.001h14c0 -34.667 1.66699 -59.667 5 -75s13.666 -23 30.999 -23c12 0 20.5 4.5 25.5 13.5s9.16699 25.833 12.5 50.5s5 57.667 5 99c0 34 -0.5 58.833 -1.5 74.5s-3.66699 34 -8 55
s-13.5 38 -27.5 51s-36 19.5 -66 19.5v15c23.333 2.66699 39.333 9.33398 48 20.001s14.334 27.167 17.001 49.5s4.33398 37.833 5.00098 46.5s1 20.334 1 35.001c0 12 -0.166992 23.167 -0.5 33.5s-1.83301 25.5 -4.5 45.5s-5.66699 36 -9 48s-15.666 18 -36.999 18
c-22 0 -35.833 -10.667 -41.5 -32s-8.5 -51 -8.5 -89l-2 -105v-495h-258v16l24 1c19.333 2 31 6.66699 35 14s6 23.333 6 48l1 46v311h-73l16 38h57c0 14.667 0.5 30.167 1.5 46.5s1.5 25.833 1.5 28.5c0 47.333 26.5 90.833 79.5 130.5s113.5 59.5 181.5 59.5
c82.667 0 139.834 -17 171.501 -51s47.5 -69.667 47.5 -107c0 -49.333 -15.833 -87.833 -47.5 -115.5s-80.834 -41.5 -147.501 -41.5v-10c90.667 0 155.5 -20.167 194.5 -60.5s58.5 -92.166 58.5 -155.499c0 -58.667 -17.667 -108 -53 -148s-79 -60 -131 -60
c-20.667 0 -37.667 1.66699 -51 5s-26.333 10.666 -39 21.999z" />
    <glyph glyph-name="agrave" unicode="&#xe0;" horiz-adv-x="575" 
d="M530 50c16 0 27.168 9.83496 33.501 29.502s9.5 43.167 9.5 70.5h14c0 -58.667 -10.5 -97.334 -31.5 -116.001s-39.833 -30.5 -56.5 -35.5s-38 -7.5 -64 -7.5c-28.667 0 -54.167 7.33301 -76.5 22s-35.833 34.334 -40.5 59.001
c-10.667 -27.333 -28.5 -47.833 -53.5 -61.5s-57.5 -20.5 -97.5 -20.5c-42.667 0 -77.334 11.667 -104.001 35s-40 55.666 -40 96.999c0 33.333 8.33301 60.166 25 80.499s33.667 32.833 51 37.5s44 8.66699 80 12s62.5 7.16602 79.5 11.499s29.167 9 36.5 14
s11 13.5 11 25.5l-1 91c0 26 -3.33301 44.667 -10 56s-20.667 17 -42 17c-13.333 0 -24.5 -3 -33.5 -9s-13.5 -13.667 -13.5 -23c0 -7.33301 7.16699 -16.5 21.5 -27.5s21.5 -27.5 21.5 -49.5c0 -20.667 -9.16699 -39 -27.5 -55s-48.166 -24 -89.499 -24
c-22.667 0 -42.5 6.16699 -59.5 18.5s-25.5 28.833 -25.5 49.5c0 41.333 23.167 74.333 69.5 99s101.5 37 165.5 37c54 0 103.667 -11.167 149 -33.5s68 -56.833 68 -103.5v-229c0 -21.333 2 -37.666 6 -48.999c3.33301 -12 11.666 -18 24.999 -18zM306.001 79.002
l-0.00390625 191l-3 1c-6 -8 -17.167 -15.5 -33.5 -22.5s-27.666 -13.833 -33.999 -20.5s-11.333 -19.5 -15 -38.5s-5.5 -38.5 -5.5 -58.5c0 -30 2.33301 -54 7 -72s15.334 -27 32.001 -27c12.667 0 23.834 5 33.501 15s15.834 20.667 18.501 32zM360.997 532.002l-8 -11
c-22.667 13.333 -49 26.333 -79 39l-86.5 36.5c-27.667 11.667 -46.167 21.834 -55.5 30.501s-14 23.667 -14 45c0 6.66699 0.666992 13.167 2 19.5s3 10.833 5 13.5s8.33301 6 19 10s22 6 34 6c19.333 0 48.833 -25.833 88.5 -77.5s71.167 -88.834 94.5 -111.501z" />
    <glyph glyph-name="aacute" unicode="&#xe1;" horiz-adv-x="575" 
d="M530 50c16 0 27.168 9.83496 33.501 29.502s9.5 43.167 9.5 70.5h14c0 -58.667 -10.5 -97.334 -31.5 -116.001s-39.833 -30.5 -56.5 -35.5s-38 -7.5 -64 -7.5c-28.667 0 -54.167 7.33301 -76.5 22s-35.833 34.334 -40.5 59.001
c-10.667 -27.333 -28.5 -47.833 -53.5 -61.5s-57.5 -20.5 -97.5 -20.5c-42.667 0 -77.334 11.667 -104.001 35s-40 55.666 -40 96.999c0 33.333 8.33301 60.166 25 80.499s33.667 32.833 51 37.5s44 8.66699 80 12s62.5 7.16602 79.5 11.499s29.167 9 36.5 14
s11 13.5 11 25.5l-1 91c0 26 -3.33301 44.667 -10 56s-20.667 17 -42 17c-13.333 0 -24.5 -3 -33.5 -9s-13.5 -13.667 -13.5 -23c0 -7.33301 7.16699 -16.5 21.5 -27.5s21.5 -27.5 21.5 -49.5c0 -20.667 -9.16699 -39 -27.5 -55s-48.166 -24 -89.499 -24
c-22.667 0 -42.5 6.16699 -59.5 18.5s-25.5 28.833 -25.5 49.5c0 41.333 23.167 74.333 69.5 99s101.5 37 165.5 37c54 0 103.667 -11.167 149 -33.5s68 -56.833 68 -103.5v-229c0 -21.333 2 -37.666 6 -48.999c3.33301 -12 11.666 -18 24.999 -18zM306.001 79.002
l-0.00390625 191l-3 1c-6 -8 -17.167 -15.5 -33.5 -22.5s-27.666 -13.833 -33.999 -20.5s-11.333 -19.5 -15 -38.5s-5.5 -38.5 -5.5 -58.5c0 -30 2.33301 -54 7 -72s15.334 -27 32.001 -27c12.667 0 23.834 5 33.501 15s15.834 20.667 18.501 32zM213.997 532.002
c25.333 24.667 57.499 62.334 96.499 113.001s67.833 76 86.5 76c13.333 0 24.833 -1.83301 34.5 -5.5s16.334 -7.83398 20.001 -12.501s5.5 -15 5.5 -31c0 -21.333 -4.5 -36.333 -13.5 -45s-29.5 -19.667 -61.5 -33l-88 -37c-26.667 -11.333 -50.667 -23.333 -72 -36z" />
    <glyph glyph-name="acircumflex" unicode="&#xe2;" horiz-adv-x="575" 
d="M530 50c16 0 27.168 9.83496 33.501 29.502s9.5 43.167 9.5 70.5h14c0 -58.667 -10.5 -97.334 -31.5 -116.001s-39.833 -30.5 -56.5 -35.5s-38 -7.5 -64 -7.5c-28.667 0 -54.167 7.33301 -76.5 22s-35.833 34.334 -40.5 59.001
c-10.667 -27.333 -28.5 -47.833 -53.5 -61.5s-57.5 -20.5 -97.5 -20.5c-42.667 0 -77.334 11.667 -104.001 35s-40 55.666 -40 96.999c0 33.333 8.33301 60.166 25 80.499s33.667 32.833 51 37.5s44 8.66699 80 12s62.5 7.16602 79.5 11.499s29.167 9 36.5 14
s11 13.5 11 25.5l-1 91c0 26 -3.33301 44.667 -10 56s-20.667 17 -42 17c-13.333 0 -24.5 -3 -33.5 -9s-13.5 -13.667 -13.5 -23c0 -7.33301 7.16699 -16.5 21.5 -27.5s21.5 -27.5 21.5 -49.5c0 -20.667 -9.16699 -39 -27.5 -55s-48.166 -24 -89.499 -24
c-22.667 0 -42.5 6.16699 -59.5 18.5s-25.5 28.833 -25.5 49.5c0 41.333 23.167 74.333 69.5 99s101.5 37 165.5 37c54 0 103.667 -11.167 149 -33.5s68 -56.833 68 -103.5v-229c0 -21.333 2 -37.666 6 -48.999c3.33301 -12 11.666 -18 24.999 -18zM306.001 79.002
l-0.00390625 191l-3 1c-6 -8 -17.167 -15.5 -33.5 -22.5s-27.666 -13.833 -33.999 -20.5s-11.333 -19.5 -15 -38.5s-5.5 -38.5 -5.5 -58.5c0 -30 2.33301 -54 7 -72s15.334 -27 32.001 -27c12.667 0 23.834 5 33.501 15s15.834 20.667 18.501 32zM437.997 526.002l-11 -8
l-141 102l-141 -102l-11 8l109 181h86z" />
    <glyph glyph-name="atilde" unicode="&#xe3;" horiz-adv-x="575" 
d="M530 50c16 0 27.168 9.83496 33.501 29.502s9.5 43.167 9.5 70.5h14c0 -58.667 -10.5 -97.334 -31.5 -116.001s-39.833 -30.5 -56.5 -35.5s-38 -7.5 -64 -7.5c-28.667 0 -54.167 7.33301 -76.5 22s-35.833 34.334 -40.5 59.001
c-10.667 -27.333 -28.5 -47.833 -53.5 -61.5s-57.5 -20.5 -97.5 -20.5c-42.667 0 -77.334 11.667 -104.001 35s-40 55.666 -40 96.999c0 33.333 8.33301 60.166 25 80.499s33.667 32.833 51 37.5s44 8.66699 80 12s62.5 7.16602 79.5 11.499s29.167 9 36.5 14
s11 13.5 11 25.5l-1 91c0 26 -3.33301 44.667 -10 56s-20.667 17 -42 17c-13.333 0 -24.5 -3 -33.5 -9s-13.5 -13.667 -13.5 -23c0 -7.33301 7.16699 -16.5 21.5 -27.5s21.5 -27.5 21.5 -49.5c0 -20.667 -9.16699 -39 -27.5 -55s-48.166 -24 -89.499 -24
c-22.667 0 -42.5 6.16699 -59.5 18.5s-25.5 28.833 -25.5 49.5c0 41.333 23.167 74.333 69.5 99s101.5 37 165.5 37c54 0 103.667 -11.167 149 -33.5s68 -56.833 68 -103.5v-229c0 -21.333 2 -37.666 6 -48.999c3.33301 -12 11.666 -18 24.999 -18zM306.001 79.002
l-0.00390625 191l-3 1c-6 -8 -17.167 -15.5 -33.5 -22.5s-27.666 -13.833 -33.999 -20.5s-11.333 -19.5 -15 -38.5s-5.5 -38.5 -5.5 -58.5c0 -30 2.33301 -54 7 -72s15.334 -27 32.001 -27c12.667 0 23.834 5 33.501 15s15.834 20.667 18.501 32zM220.997 590.002
c-21.333 0 -37 -3.66797 -47 -11.001s-17.667 -20.666 -23 -39.999h-17c10 48.667 24.167 83.5 42.5 104.5s43.166 31.5 74.499 31.5c10 0 31.333 -4.33301 64 -13s51 -13 55 -13c38.667 0 62.334 17 71.001 51h17c-10 -48.667 -24.167 -83.5 -42.5 -104.5
s-43.166 -31.5 -74.499 -31.5c-14.667 0 -37.834 4.33301 -69.501 13s-48.5 13 -50.5 13z" />
    <glyph glyph-name="adieresis" unicode="&#xe4;" horiz-adv-x="575" 
d="M530 50c16 0 27.168 9.83496 33.501 29.502s9.5 43.167 9.5 70.5h14c0 -58.667 -10.5 -97.334 -31.5 -116.001s-39.833 -30.5 -56.5 -35.5s-38 -7.5 -64 -7.5c-28.667 0 -54.167 7.33301 -76.5 22s-35.833 34.334 -40.5 59.001
c-10.667 -27.333 -28.5 -47.833 -53.5 -61.5s-57.5 -20.5 -97.5 -20.5c-42.667 0 -77.334 11.667 -104.001 35s-40 55.666 -40 96.999c0 33.333 8.33301 60.166 25 80.499s33.667 32.833 51 37.5s44 8.66699 80 12s62.5 7.16602 79.5 11.499s29.167 9 36.5 14
s11 13.5 11 25.5l-1 91c0 26 -3.33301 44.667 -10 56s-20.667 17 -42 17c-13.333 0 -24.5 -3 -33.5 -9s-13.5 -13.667 -13.5 -23c0 -7.33301 7.16699 -16.5 21.5 -27.5s21.5 -27.5 21.5 -49.5c0 -20.667 -9.16699 -39 -27.5 -55s-48.166 -24 -89.499 -24
c-22.667 0 -42.5 6.16699 -59.5 18.5s-25.5 28.833 -25.5 49.5c0 41.333 23.167 74.333 69.5 99s101.5 37 165.5 37c54 0 103.667 -11.167 149 -33.5s68 -56.833 68 -103.5v-229c0 -21.333 2 -37.666 6 -48.999c3.33301 -12 11.666 -18 24.999 -18zM306.001 79.002
l-0.00390625 191l-3 1c-6 -8 -17.167 -15.5 -33.5 -22.5s-27.666 -13.833 -33.999 -20.5s-11.333 -19.5 -15 -38.5s-5.5 -38.5 -5.5 -58.5c0 -30 2.33301 -54 7 -72s15.334 -27 32.001 -27c12.667 0 23.834 5 33.501 15s15.834 20.667 18.501 32zM107.997 618.002
c0 17.333 6.66602 32.668 19.999 46.001s29.333 20 48 20s34.334 -6.33301 47.001 -19s19 -28.334 19 -47.001c0 -20 -6 -36.333 -18 -49s-28 -19 -48 -19c-18.667 0 -34.667 6.66699 -48 20s-20 29.333 -20 48zM333.996 618.004c0 17.333 6.66699 32.667 20 46s29 20 47 20
c18.667 0 34.5 -6.5 47.5 -19.5s19.5 -28.5 19.5 -46.5c0 -20 -6.33301 -36.333 -19 -49s-28.667 -19 -48 -19c-18 0 -33.667 6.66699 -47 20s-20 29.333 -20 48z" />
    <glyph glyph-name="aring" unicode="&#xe5;" horiz-adv-x="575" 
d="M530 50c16 0 27.168 9.83496 33.501 29.502s9.5 43.167 9.5 70.5h14c0 -58.667 -10.5 -97.334 -31.5 -116.001s-39.833 -30.5 -56.5 -35.5s-38 -7.5 -64 -7.5c-28.667 0 -54.167 7.33301 -76.5 22s-35.833 34.334 -40.5 59.001
c-10.667 -27.333 -28.5 -47.833 -53.5 -61.5s-57.5 -20.5 -97.5 -20.5c-42.667 0 -77.334 11.667 -104.001 35s-40 55.666 -40 96.999c0 33.333 8.33301 60.166 25 80.499s33.667 32.833 51 37.5s44 8.66699 80 12s62.5 7.16602 79.5 11.499s29.167 9 36.5 14
s11 13.5 11 25.5l-1 91c0 26 -3.33301 44.667 -10 56s-20.667 17 -42 17c-13.333 0 -24.5 -3 -33.5 -9s-13.5 -13.667 -13.5 -23c0 -7.33301 7.16699 -16.5 21.5 -27.5s21.5 -27.5 21.5 -49.5c0 -20.667 -9.16699 -39 -27.5 -55s-48.166 -24 -89.499 -24
c-22.667 0 -42.5 6.16699 -59.5 18.5s-25.5 28.833 -25.5 49.5c0 41.333 23.167 74.333 69.5 99s101.5 37 165.5 37c54 0 103.667 -11.167 149 -33.5s68 -56.833 68 -103.5v-229c0 -21.333 2 -37.666 6 -48.999c3.33301 -12 11.666 -18 24.999 -18zM306.001 79.002
l-0.00390625 191l-3 1c-6 -8 -17.167 -15.5 -33.5 -22.5s-27.666 -13.833 -33.999 -20.5s-11.333 -19.5 -15 -38.5s-5.5 -38.5 -5.5 -58.5c0 -30 2.33301 -54 7 -72s15.334 -27 32.001 -27c12.667 0 23.834 5 33.501 15s15.834 20.667 18.501 32zM221.997 630.002
c0 -18.667 6 -34 18 -46s27.333 -18 46 -18s34.167 5.83301 46.5 17.5s18.5 27.167 18.5 46.5c0 18.667 -6.16699 34.167 -18.5 46.5s-27.833 18.5 -46.5 18.5s-34 -6 -46 -18s-18 -27.667 -18 -47zM180.997 630.002c0 30 10.333 54.667 31 74s45.667 29 75 29
s54.5 -9.5 75.5 -28.5s31.5 -43.833 31.5 -74.5c0 -29.333 -10.5 -53.833 -31.5 -73.5s-46.167 -29.5 -75.5 -29.5c-28.667 0 -53.5 9.83301 -74.5 29.5s-31.5 44.167 -31.5 73.5z" />
    <glyph glyph-name="ae" unicode="&#xe6;" horiz-adv-x="812" 
d="M627 280c-0.666992 7.33301 -1.16699 16 -1.5 26s-0.5 22.667 -0.5 38c-3.33301 42 -9 73.167 -17 93.5s-23.333 30.5 -46 30.5c-21.333 0 -36.333 -10.333 -45 -31s-14.667 -51 -18 -91l-2 -66h130zM307 271c-6.66699 -8 -18.499 -15.499 -35.499 -22.499
s-28.833 -13.833 -35.5 -20.5s-11.834 -19.5 -15.501 -38.5s-5.5 -38.5 -5.5 -58.5c0 -24.667 4.5 -46.334 13.5 -65.001s22.5 -28 40.5 -28c24 0 41.833 8 53.5 24s17.5 31.333 17.5 46c-6.66699 14.667 -13 29.667 -19 45c-9.33301 30.667 -14 70 -14 118zM353.001 87.001
c-10 -29.333 -28.5 -52.8291 -55.5 -70.4961s-63.833 -26.5 -110.5 -26.5c-51.333 0 -91.5 11.5 -120.5 34.5s-43.5 55.5 -43.5 97.5c0 33.333 8.33301 60.166 25 80.499s33.667 32.833 51 37.5s44 8.66699 80 12s62.667 7.33301 80 12s29.666 9.33398 36.999 14.001
s11 13 11 25v90c0 25.333 -3.66699 44.166 -11 56.499s-21.333 18.5 -42 18.5c-13.333 0 -24.833 -3.16699 -34.5 -9.5s-14.5 -13.833 -14.5 -22.5c0 -6.66699 7.16699 -15.834 21.5 -27.501s21.5 -28.167 21.5 -49.5c0 -20.667 -9.16699 -39 -27.5 -55
s-48.166 -24 -89.499 -24c-22.667 0 -42.5 6.16699 -59.5 18.5s-25.5 28.833 -25.5 49.5c0 41.333 23.167 74.333 69.5 99s100.166 37 161.499 37c30 0 59.333 -3.16699 88 -9.5s53.667 -17.833 75 -34.5c14 12.667 33.167 23.167 57.5 31.5s47.833 12.5 70.5 12.5
c78.667 0 137.167 -21.333 175.5 -64s57.5 -96 57.5 -160h-304c0 -22 2.16699 -45.833 6.5 -71.5s11.833 -50.334 22.5 -74.001s25.334 -42.667 44.001 -57s42.334 -21.5 71.001 -21.5c38.667 0 69 10.667 91 32s40.667 50.666 56 87.999l15 -7
c-18 -50 -46.833 -89 -86.5 -117s-87.834 -42 -144.501 -42c-48.667 0 -91.667 8.66699 -129 26s-67.333 41 -90 71z" />
    <glyph glyph-name="ccedilla" unicode="&#xe7;" horiz-adv-x="533" 
d="M314 468c-18.667 0 -34.334 -7.33398 -47.001 -22.001s-22.5 -32.667 -29.5 -54s-12 -44.5 -15 -69.5s-4.5 -49.167 -4.5 -72.5c0 -60.667 10.167 -113.5 30.5 -158.5s56.166 -67.5 107.499 -67.5c36.667 0 68.667 11.5 96 34.5s48 52.167 62 87.5l15 -8
c-44.667 -98.667 -124.667 -148 -240 -148c-76 0 -140.667 22.5 -194 67.5s-80 104.5 -80 178.5c0 74.667 26.167 134.667 78.5 180s117.5 68 195.5 68c29.333 0 56.333 -3.16699 81 -9.5s47.834 -15 69.501 -26s42.334 -26.667 62.001 -47s29.5 -44.166 29.5 -71.499
c0 -24.667 -7.66699 -44.5 -23 -59.5s-38 -22.5 -68 -22.5c-26 0 -49.5 9.16699 -70.5 27.5s-31.5 39.166 -31.5 62.499c0 18 3.66699 35.333 11 52s11 30.667 11 42c0 10.667 -4 19.334 -12 26.001s-19.333 10 -34 10zM277 0.999023l-44.999 -60
c3.33301 0.666992 8.66602 1.33398 15.999 2.00098s14 1 20 1c42.667 0 73 -9.83301 91 -29.5s27 -39.5 27 -59.5c0 -36.667 -14 -62.334 -42 -77.001s-58 -22 -90 -22c-22 0 -41.333 4.5 -58 13.5s-25 20.833 -25 35.5c0 8 3.16699 15.833 9.5 23.5s14.833 11.5 25.5 11.5
c12.667 0 21.667 -3.66699 27 -11s8 -15.333 8 -24c0 -6 -3.66699 -15.667 -11 -29c9.33301 -4.66699 17 -7 23 -7c12 0 22.5 5.16699 31.5 15.5s13.5 25.166 13.5 44.499c0 24.667 -5.83301 43.167 -17.5 55.5s-29.167 18.5 -52.5 18.5
c-10.667 0 -19.5 -1.16699 -26.5 -3.5s-12.167 -4.16602 -15.5 -5.49902l-4 5l77 102h18z" />
    <glyph glyph-name="egrave" unicode="&#xe8;" horiz-adv-x="530" 
d="M521 150c-18.667 -50 -48.668 -89.168 -90.001 -117.501s-90 -42.5 -146 -42.5c-78.667 0 -143.334 21.833 -194.001 65.5s-76 104.167 -76 181.5c0 72 26.167 131.167 78.5 177.5s115.166 69.5 188.499 69.5c76.667 0 135.334 -21.667 176.001 -65s61 -96.333 61 -159
h-307c0 -24 1.83301 -48.5 5.5 -73.5s10.667 -49.167 21 -72.5s25 -42.166 44 -56.499s42.833 -21.5 71.5 -21.5c40.667 0 72.834 11.5 96.501 34.5s41.834 51.833 54.501 86.5zM344.999 279.999c-0.666992 7.33301 -1.16895 16 -1.50195 26s-0.5 22.667 -0.5 38
c0 40.667 -5 71.5 -15 92.5s-27.333 31.5 -52 31.5c-21.333 0 -36.166 -10.167 -44.499 -30.5s-14.166 -51.5 -17.499 -93.5l-2 -64h133zM397.997 531.999l-8 -11c-22.667 13.333 -49 26.333 -79 39l-86.5 36.5c-27.667 11.667 -46.167 21.834 -55.5 30.501
s-14 23.667 -14 45c0 6.66699 0.666992 13.167 2 19.5s3 10.833 5 13.5s8.33301 6 19 10s22 6 34 6c19.333 0 48.833 -25.833 88.5 -77.5s71.167 -88.834 94.5 -111.501z" />
    <glyph glyph-name="eacute" unicode="&#xe9;" horiz-adv-x="530" 
d="M521 150c-18.667 -50 -48.668 -89.168 -90.001 -117.501s-90 -42.5 -146 -42.5c-78.667 0 -143.334 21.833 -194.001 65.5s-76 104.167 -76 181.5c0 72 26.167 131.167 78.5 177.5s115.166 69.5 188.499 69.5c76.667 0 135.334 -21.667 176.001 -65s61 -96.333 61 -159
h-307c0 -24 1.83301 -48.5 5.5 -73.5s10.667 -49.167 21 -72.5s25 -42.166 44 -56.499s42.833 -21.5 71.5 -21.5c40.667 0 72.834 11.5 96.501 34.5s41.834 51.833 54.501 86.5zM344.999 279.999c-0.666992 7.33301 -1.16895 16 -1.50195 26s-0.5 22.667 -0.5 38
c0 40.667 -5 71.5 -15 92.5s-27.333 31.5 -52 31.5c-21.333 0 -36.166 -10.167 -44.499 -30.5s-14.166 -51.5 -17.499 -93.5l-2 -64h133zM190.997 531.999c25.333 24.667 57.499 62.334 96.499 113.001s67.833 76 86.5 76c13.333 0 24.833 -1.83301 34.5 -5.5
s16.334 -7.83398 20.001 -12.501s5.5 -15 5.5 -31c0 -21.333 -4.5 -36.333 -13.5 -45s-29.5 -19.667 -61.5 -33l-88 -37c-26.667 -11.333 -50.667 -23.333 -72 -36z" />
    <glyph glyph-name="ecircumflex" unicode="&#xea;" horiz-adv-x="530" 
d="M521 150c-18.667 -50 -48.668 -89.168 -90.001 -117.501s-90 -42.5 -146 -42.5c-78.667 0 -143.334 21.833 -194.001 65.5s-76 104.167 -76 181.5c0 72 26.167 131.167 78.5 177.5s115.166 69.5 188.499 69.5c76.667 0 135.334 -21.667 176.001 -65s61 -96.333 61 -159
h-307c0 -24 1.83301 -48.5 5.5 -73.5s10.667 -49.167 21 -72.5s25 -42.166 44 -56.499s42.833 -21.5 71.5 -21.5c40.667 0 72.834 11.5 96.501 34.5s41.834 51.833 54.501 86.5zM344.999 279.999c-0.666992 7.33301 -1.16895 16 -1.50195 26s-0.5 22.667 -0.5 38
c0 40.667 -5 71.5 -15 92.5s-27.333 31.5 -52 31.5c-21.333 0 -36.166 -10.167 -44.499 -30.5s-14.166 -51.5 -17.499 -93.5l-2 -64h133zM414.997 525.999l-11 -8l-141 102l-141 -102l-11 8l109 181h86z" />
    <glyph glyph-name="edieresis" unicode="&#xeb;" horiz-adv-x="530" 
d="M521 150c-18.667 -50 -48.668 -89.168 -90.001 -117.501s-90 -42.5 -146 -42.5c-78.667 0 -143.334 21.833 -194.001 65.5s-76 104.167 -76 181.5c0 72 26.167 131.167 78.5 177.5s115.166 69.5 188.499 69.5c76.667 0 135.334 -21.667 176.001 -65s61 -96.333 61 -159
h-307c0 -24 1.83301 -48.5 5.5 -73.5s10.667 -49.167 21 -72.5s25 -42.166 44 -56.499s42.833 -21.5 71.5 -21.5c40.667 0 72.834 11.5 96.501 34.5s41.834 51.833 54.501 86.5zM344.999 279.999c-0.666992 7.33301 -1.16895 16 -1.50195 26s-0.5 22.667 -0.5 38
c0 40.667 -5 71.5 -15 92.5s-27.333 31.5 -52 31.5c-21.333 0 -36.166 -10.167 -44.499 -30.5s-14.166 -51.5 -17.499 -93.5l-2 -64h133zM84.9971 617.999c0 17.333 6.66602 32.668 19.999 46.001s29.333 20 48 20s34.334 -6.33301 47.001 -19s19 -28.334 19 -47.001
c0 -20 -6 -36.333 -18 -49s-28 -19 -48 -19c-18.667 0 -34.667 6.66699 -48 20s-20 29.333 -20 48zM310.996 618.001c0 17.333 6.66699 32.667 20 46s29 20 47 20c18.667 0 34.5 -6.5 47.5 -19.5s19.5 -28.5 19.5 -46.5c0 -20 -6.33301 -36.333 -19 -49s-28.667 -19 -48 -19
c-18 0 -33.667 6.66699 -47 20s-20 29.333 -20 48z" />
    <glyph glyph-name="igrave" unicode="&#xec;" horiz-adv-x="340" 
d="M332 0h-324v16l24 1c19.333 2 31 6.66699 35 14s6 23.333 6 48l1 46v239l-1 41c-1.33301 16 -3.33301 28 -6 36s-14.667 13 -36 15l-27 2v16h262v-349l1 -46c0 -24 2 -39.833 6 -47.5s15.667 -12.5 35 -14.5l24 -1v-16zM243 532l-8 -11c-22.667 13.333 -49 26.333 -79 39
l-86.5 36.5c-27.667 11.667 -46.167 21.834 -55.5 30.501s-14 23.667 -14 45c0 6.66699 0.666992 13.167 2 19.5s3 10.833 5 13.5s8.33301 6 19 10s22 6 34 6c19.333 0 48.833 -25.833 88.5 -77.5s71.167 -88.834 94.5 -111.501z" />
    <glyph glyph-name="iacute" unicode="&#xed;" horiz-adv-x="340" 
d="M332 0h-324v16l24 1c19.333 2 31 6.66699 35 14s6 23.333 6 48l1 46v239l-1 41c-1.33301 16 -3.33301 28 -6 36s-14.667 13 -36 15l-27 2v16h262v-349l1 -46c0 -24 2 -39.833 6 -47.5s15.667 -12.5 35 -14.5l24 -1v-16zM96 532
c25.333 24.667 57.499 62.334 96.499 113.001s67.833 76 86.5 76c13.333 0 24.833 -1.83301 34.5 -5.5s16.334 -7.83398 20.001 -12.501s5.5 -15 5.5 -31c0 -21.333 -4.5 -36.333 -13.5 -45s-29.5 -19.667 -61.5 -33l-88 -37c-26.667 -11.333 -50.667 -23.333 -72 -36z" />
    <glyph glyph-name="icircumflex" unicode="&#xee;" horiz-adv-x="340" 
d="M332 0h-324v16l24 1c19.333 2 31 6.66699 35 14s6 23.333 6 48l1 46v239l-1 41c-1.33301 16 -3.33301 28 -6 36s-14.667 13 -36 15l-27 2v16h262v-349l1 -46c0 -24 2 -39.833 6 -47.5s15.667 -12.5 35 -14.5l24 -1v-16zM320 526l-11 -8l-141 102l-141 -102l-11 8l109 181
h86z" />
    <glyph glyph-name="idieresis" unicode="&#xef;" horiz-adv-x="340" 
d="M332 0h-324v16l24 1c19.333 2 31 6.66699 35 14s6 23.333 6 48l1 46v239l-1 41c-1.33301 16 -3.33301 28 -6 36s-14.667 13 -36 15l-27 2v16h262v-349l1 -46c0 -24 2 -39.833 6 -47.5s15.667 -12.5 35 -14.5l24 -1v-16zM-10 618c0 17.333 6.66602 32.668 19.999 46.001
s29.333 20 48 20s34.334 -6.33301 47.001 -19s19 -28.334 19 -47.001c0 -20 -6 -36.333 -18 -49s-28 -19 -48 -19c-18.667 0 -34.667 6.66699 -48 20s-20 29.333 -20 48zM215.999 618.002c0 17.333 6.66699 32.667 20 46s29 20 47 20c18.667 0 34.5 -6.5 47.5 -19.5
s19.5 -28.5 19.5 -46.5c0 -20 -6.33301 -36.333 -19 -49s-28.667 -19 -48 -19c-18 0 -33.667 6.66699 -47 20s-20 29.333 -20 48z" />
    <glyph glyph-name="eth" unicode="&#xf0;" horiz-adv-x="574" 
d="M360 238c0 18 -0.331055 35.502 -0.998047 52.502s-2.83398 40.167 -6.50098 69.5s-10.334 54.666 -20.001 75.999s-25.834 32 -48.501 32c-22 0 -38.333 -11.667 -49 -35s-16 -53.333 -16 -90c0 -12.667 -0.666992 -31.334 -2 -56.001s-2 -41 -2 -49
c0 -9.33301 0.666992 -28.5 2 -57.5s2 -45.833 2 -50.5c0 -37.333 5.33301 -67.333 16 -90s27.334 -34 50.001 -34c22 0 38 10.667 48 32s17 51.5 21 90.5s6 75.5 6 109.5zM257.002 589.002l-111 -63.001l-12 20l108 61c-23.333 25.333 -47.833 46.5 -73.5 63.5
s-47 28 -64 33s-31.167 7.66699 -42.5 8s-22.333 0.833008 -33 1.5v16h245c17.333 -9.33301 32.166 -17.833 44.499 -25.5s26.166 -17.167 41.499 -28.5l88 50l12 -19l-81 -46c24 -22.667 44.667 -44.167 62 -64.5s36.5 -48.166 57.5 -83.499s35.667 -71.833 44 -109.5
s12.5 -78.167 12.5 -121.5c0 -86 -26.667 -156 -80 -210s-116.666 -81 -189.999 -81c-76.667 0 -140.667 23 -192 69s-77 106 -77 180c0 72 25.167 130.5 75.5 175.5s112.5 67.5 186.5 67.5c9.33301 0 17.333 -0.833008 24 -2.5s13 -3.83398 19 -6.50098l2 3
c-10 23.333 -19.667 43.333 -29 60s-21.666 34.334 -36.999 53.001z" />
    <glyph glyph-name="ntilde" unicode="&#xf1;" horiz-adv-x="653" 
d="M396 329l-1 40.998c0 52 -18.333 78 -55 78c-23.333 0 -39.833 -7.33301 -49.5 -22s-17.5 -29.667 -23.5 -45v-256l1 -46c0 -27.333 2.5 -44.666 7.5 -51.999s19.833 -11 44.5 -11v-16h-311v16l24 1c19.333 2 31 6.66699 35 14s6 23.333 6 48l1 46v239l-1 41
c-1.33301 16 -3.33301 28 -6 36s-14.667 13 -36 15l-23 2v16h254v-75c7.33301 18.667 20.5 37.5 39.5 56.5s55.833 28.5 110.5 28.5c47.333 0 88.333 -13.333 123 -40s52 -58 52 -94v-225l1 -46c0 -24 2 -39.833 6 -47.5s15.667 -12.5 35 -14.5l22 -1v-16h-309v16
c24 0 38.667 3.83301 44 11.5s8 24.834 8 51.501l1 46v204zM260 589.998c-21.333 0 -37 -3.66797 -47 -11.001s-17.667 -20.666 -23 -39.999h-17c10 48.667 24.167 83.5 42.5 104.5s43.166 31.5 74.499 31.5c10 0 31.333 -4.33301 64 -13s51 -13 55 -13
c38.667 0 62.334 17 71.001 51h17c-10 -48.667 -24.167 -83.5 -42.5 -104.5s-43.166 -31.5 -74.499 -31.5c-14.667 0 -37.834 4.33301 -69.501 13s-48.5 13 -50.5 13z" />
    <glyph glyph-name="ograve" unicode="&#xf2;" horiz-adv-x="570" 
d="M555 237c0 -70.667 -26.8301 -129.5 -80.4971 -176.5s-116.834 -70.5 -189.501 -70.5c-76.667 0 -140.834 23.5 -192.501 70.5s-77.5 105.833 -77.5 176.5s26.167 129.5 78.5 176.5s116.166 70.5 191.499 70.5c74 0 137.5 -23.333 190.5 -70s79.5 -105.667 79.5 -177z
M356.003 238c0 9.33301 -0.667969 28 -2.00098 56s-2 44.667 -2 50c0 36 -5.5 65.667 -16.5 89s-28.167 35 -51.5 35c-21.333 0 -37.666 -12.167 -48.999 -36.5s-17 -53.5 -17 -87.5c0 -12.667 -0.5 -28.167 -1.5 -46.5s-1.83301 -38.166 -2.5 -59.499
c0 -9.33301 0.666992 -28.5 2 -57.5s2 -45.833 2 -50.5c0 -36 5.5 -65.667 16.5 -89s27.833 -35 50.5 -35c22 0 38.667 12 50 36s17 53.333 17 88c0 13.333 0.333008 29.166 1 47.499s1.66699 38.5 3 60.5zM358.002 532l-8 -11c-22.667 13.333 -49 26.333 -79 39l-86.5 36.5
c-27.667 11.667 -46.167 21.834 -55.5 30.501s-14 23.667 -14 45c0 6.66699 0.666992 13.167 2 19.5s3 10.833 5 13.5s8.33301 6 19 10s22 6 34 6c19.333 0 48.833 -25.833 88.5 -77.5s71.167 -88.834 94.5 -111.501z" />
    <glyph glyph-name="oacute" unicode="&#xf3;" horiz-adv-x="570" 
d="M555 237c0 -70.667 -26.8301 -129.5 -80.4971 -176.5s-116.834 -70.5 -189.501 -70.5c-76.667 0 -140.834 23.5 -192.501 70.5s-77.5 105.833 -77.5 176.5s26.167 129.5 78.5 176.5s116.166 70.5 191.499 70.5c74 0 137.5 -23.333 190.5 -70s79.5 -105.667 79.5 -177z
M356.003 238c0 9.33301 -0.667969 28 -2.00098 56s-2 44.667 -2 50c0 36 -5.5 65.667 -16.5 89s-28.167 35 -51.5 35c-21.333 0 -37.666 -12.167 -48.999 -36.5s-17 -53.5 -17 -87.5c0 -12.667 -0.5 -28.167 -1.5 -46.5s-1.83301 -38.166 -2.5 -59.499
c0 -9.33301 0.666992 -28.5 2 -57.5s2 -45.833 2 -50.5c0 -36 5.5 -65.667 16.5 -89s27.833 -35 50.5 -35c22 0 38.667 12 50 36s17 53.333 17 88c0 13.333 0.333008 29.166 1 47.499s1.66699 38.5 3 60.5zM211.002 532c25.333 24.667 57.499 62.334 96.499 113.001
s67.833 76 86.5 76c13.333 0 24.833 -1.83301 34.5 -5.5s16.334 -7.83398 20.001 -12.501s5.5 -15 5.5 -31c0 -21.333 -4.5 -36.333 -13.5 -45s-29.5 -19.667 -61.5 -33l-88 -37c-26.667 -11.333 -50.667 -23.333 -72 -36z" />
    <glyph glyph-name="ocircumflex" unicode="&#xf4;" horiz-adv-x="570" 
d="M555 237c0 -70.667 -26.8301 -129.5 -80.4971 -176.5s-116.834 -70.5 -189.501 -70.5c-76.667 0 -140.834 23.5 -192.501 70.5s-77.5 105.833 -77.5 176.5s26.167 129.5 78.5 176.5s116.166 70.5 191.499 70.5c74 0 137.5 -23.333 190.5 -70s79.5 -105.667 79.5 -177z
M356.003 238c0 9.33301 -0.667969 28 -2.00098 56s-2 44.667 -2 50c0 36 -5.5 65.667 -16.5 89s-28.167 35 -51.5 35c-21.333 0 -37.666 -12.167 -48.999 -36.5s-17 -53.5 -17 -87.5c0 -12.667 -0.5 -28.167 -1.5 -46.5s-1.83301 -38.166 -2.5 -59.499
c0 -9.33301 0.666992 -28.5 2 -57.5s2 -45.833 2 -50.5c0 -36 5.5 -65.667 16.5 -89s27.833 -35 50.5 -35c22 0 38.667 12 50 36s17 53.333 17 88c0 13.333 0.333008 29.166 1 47.499s1.66699 38.5 3 60.5zM435.002 526l-11 -8l-141 102l-141 -102l-11 8l109 181h86z" />
    <glyph glyph-name="otilde" unicode="&#xf5;" horiz-adv-x="570" 
d="M555 237c0 -70.667 -26.8301 -129.5 -80.4971 -176.5s-116.834 -70.5 -189.501 -70.5c-76.667 0 -140.834 23.5 -192.501 70.5s-77.5 105.833 -77.5 176.5s26.167 129.5 78.5 176.5s116.166 70.5 191.499 70.5c74 0 137.5 -23.333 190.5 -70s79.5 -105.667 79.5 -177z
M356.003 238c0 9.33301 -0.667969 28 -2.00098 56s-2 44.667 -2 50c0 36 -5.5 65.667 -16.5 89s-28.167 35 -51.5 35c-21.333 0 -37.666 -12.167 -48.999 -36.5s-17 -53.5 -17 -87.5c0 -12.667 -0.5 -28.167 -1.5 -46.5s-1.83301 -38.166 -2.5 -59.499
c0 -9.33301 0.666992 -28.5 2 -57.5s2 -45.833 2 -50.5c0 -36 5.5 -65.667 16.5 -89s27.833 -35 50.5 -35c22 0 38.667 12 50 36s17 53.333 17 88c0 13.333 0.333008 29.166 1 47.499s1.66699 38.5 3 60.5zM218.002 590c-21.333 0 -37 -3.66797 -47 -11.001
s-17.667 -20.666 -23 -39.999h-17c10 48.667 24.167 83.5 42.5 104.5s43.166 31.5 74.499 31.5c10 0 31.333 -4.33301 64 -13s51 -13 55 -13c38.667 0 62.334 17 71.001 51h17c-10 -48.667 -24.167 -83.5 -42.5 -104.5s-43.166 -31.5 -74.499 -31.5
c-14.667 0 -37.834 4.33301 -69.501 13s-48.5 13 -50.5 13z" />
    <glyph glyph-name="odieresis" unicode="&#xf6;" horiz-adv-x="570" 
d="M555 237c0 -70.667 -26.8301 -129.5 -80.4971 -176.5s-116.834 -70.5 -189.501 -70.5c-76.667 0 -140.834 23.5 -192.501 70.5s-77.5 105.833 -77.5 176.5s26.167 129.5 78.5 176.5s116.166 70.5 191.499 70.5c74 0 137.5 -23.333 190.5 -70s79.5 -105.667 79.5 -177z
M356.003 238c0 9.33301 -0.667969 28 -2.00098 56s-2 44.667 -2 50c0 36 -5.5 65.667 -16.5 89s-28.167 35 -51.5 35c-21.333 0 -37.666 -12.167 -48.999 -36.5s-17 -53.5 -17 -87.5c0 -12.667 -0.5 -28.167 -1.5 -46.5s-1.83301 -38.166 -2.5 -59.499
c0 -9.33301 0.666992 -28.5 2 -57.5s2 -45.833 2 -50.5c0 -36 5.5 -65.667 16.5 -89s27.833 -35 50.5 -35c22 0 38.667 12 50 36s17 53.333 17 88c0 13.333 0.333008 29.166 1 47.499s1.66699 38.5 3 60.5zM105.002 618c0 17.333 6.66602 32.668 19.999 46.001
s29.333 20 48 20s34.334 -6.33301 47.001 -19s19 -28.334 19 -47.001c0 -20 -6 -36.333 -18 -49s-28 -19 -48 -19c-18.667 0 -34.667 6.66699 -48 20s-20 29.333 -20 48zM331.001 618.002c0 17.333 6.66699 32.667 20 46s29 20 47 20c18.667 0 34.5 -6.5 47.5 -19.5
s19.5 -28.5 19.5 -46.5c0 -20 -6.33301 -36.333 -19 -49s-28.667 -19 -48 -19c-18 0 -33.667 6.66699 -47 20s-20 29.333 -20 48z" />
    <glyph glyph-name="divide" unicode="&#xf7;" horiz-adv-x="833" 
d="M416 591c20 0 37.002 -7 51.002 -21s21 -31.333 21 -52c0 -20 -6.83301 -36.833 -20.5 -50.5s-30.834 -20.5 -51.501 -20.5c-20 0 -37 6.66699 -51 20s-21 30.333 -21 51c0 20 7.16699 37.167 21.5 51.5s31.166 21.5 50.499 21.5zM701.002 369v-81h-569v81h569z
M418.002 209c20 0 37.001 -7 51.001 -21s21 -31 21 -51s-6.83301 -36.833 -20.5 -50.5s-30.834 -20.5 -51.501 -20.5c-20 0 -37 6.66699 -51 20s-21 30.333 -21 51c0 20 7 37 21 51s31 21 51 21z" />
    <glyph glyph-name="oslash" unicode="&#xf8;" horiz-adv-x="570" 
d="M356 319l-139.999 -192c3.33301 -36.667 10.166 -66.167 20.499 -88.5s26.5 -33.5 48.5 -33.5s39 12.167 51 36.5s18 53.5 18 87.5c0 18 0.5 37.5 1.5 58.5s1.83301 37.833 2.5 50.5zM214.001 158l139.001 193c0 33.333 -5.83301 61.166 -17.5 83.499
s-28.834 33.5 -51.501 33.5c-22 0 -38.833 -12.167 -50.5 -36.5s-17.5 -53.5 -17.5 -87.5c0 -12.667 -0.5 -28.167 -1.5 -46.5s-1.83301 -38.166 -2.5 -59.499zM138.002 29l-61 -77.998l-16 13l59 76c-33.333 23.333 -59.166 51.666 -77.499 84.999
s-27.5 70.666 -27.5 111.999c0 70.667 26.167 129.5 78.5 176.5s116.166 70.5 191.499 70.5c53.333 0 102.666 -13.667 147.999 -41l57 74l17 -12l-56 -73c32.667 -22.667 58.167 -50.667 76.5 -84s27.5 -70.333 27.5 -111c0 -71.333 -26.667 -130.5 -80 -177.5
s-116.666 -70.5 -189.999 -70.5c-53.333 0 -102.333 13.333 -147 40z" />
    <glyph glyph-name="ugrave" unicode="&#xf9;" horiz-adv-x="652" 
d="M652 0h-262.002v64c-15.333 -24 -34.166 -42.333 -56.499 -55s-53.166 -19 -92.499 -19c-46 0 -86.667 13.667 -122 41c-36 26.667 -54 63.667 -54 111v222l-1 41c0 18 -2.83301 30.5 -8.5 37.5s-17.834 11.5 -36.501 13.5l-28 2v16h266v-327l1 -41
c0 -27.333 4.83301 -47.833 14.5 -61.5s24.167 -20.5 43.5 -20.5c21.333 0 36.833 6 46.5 18s17.5 24.333 23.5 37v270l-2 46c0 22 -3.66699 37 -11 45s-22 13.333 -44 16l-31 2v16h280v-364l1 -41c0 -18 2.83301 -30.5 8.5 -37.5s17.834 -11.5 36.501 -13.5l28 -2v-16z
M398.998 532l-8 -11c-22.667 13.333 -49 26.333 -79 39l-86.5 36.5c-27.667 11.667 -46.167 21.834 -55.5 30.501s-14 23.667 -14 45c0 6.66699 0.666992 13.167 2 19.5s3 10.833 5 13.5s8.33301 6 19 10s22 6 34 6c19.333 0 48.833 -25.833 88.5 -77.5
s71.167 -88.834 94.5 -111.501z" />
    <glyph glyph-name="uacute" unicode="&#xfa;" horiz-adv-x="652" 
d="M652 0h-262.002v64c-15.333 -24 -34.166 -42.333 -56.499 -55s-53.166 -19 -92.499 -19c-46 0 -86.667 13.667 -122 41c-36 26.667 -54 63.667 -54 111v222l-1 41c0 18 -2.83301 30.5 -8.5 37.5s-17.834 11.5 -36.501 13.5l-28 2v16h266v-327l1 -41
c0 -27.333 4.83301 -47.833 14.5 -61.5s24.167 -20.5 43.5 -20.5c21.333 0 36.833 6 46.5 18s17.5 24.333 23.5 37v270l-2 46c0 22 -3.66699 37 -11 45s-22 13.333 -44 16l-31 2v16h280v-364l1 -41c0 -18 2.83301 -30.5 8.5 -37.5s17.834 -11.5 36.501 -13.5l28 -2v-16z
M251.998 532c25.333 24.667 57.499 62.334 96.499 113.001s67.833 76 86.5 76c13.333 0 24.833 -1.83301 34.5 -5.5s16.334 -7.83398 20.001 -12.501s5.5 -15 5.5 -31c0 -21.333 -4.5 -36.333 -13.5 -45s-29.5 -19.667 -61.5 -33l-88 -37
c-26.667 -11.333 -50.667 -23.333 -72 -36z" />
    <glyph glyph-name="ucircumflex" unicode="&#xfb;" horiz-adv-x="652" 
d="M652 0h-262.002v64c-15.333 -24 -34.166 -42.333 -56.499 -55s-53.166 -19 -92.499 -19c-46 0 -86.667 13.667 -122 41c-36 26.667 -54 63.667 -54 111v222l-1 41c0 18 -2.83301 30.5 -8.5 37.5s-17.834 11.5 -36.501 13.5l-28 2v16h266v-327l1 -41
c0 -27.333 4.83301 -47.833 14.5 -61.5s24.167 -20.5 43.5 -20.5c21.333 0 36.833 6 46.5 18s17.5 24.333 23.5 37v270l-2 46c0 22 -3.66699 37 -11 45s-22 13.333 -44 16l-31 2v16h280v-364l1 -41c0 -18 2.83301 -30.5 8.5 -37.5s17.834 -11.5 36.501 -13.5l28 -2v-16z
M475.998 526l-11 -8l-141 102l-141 -102l-11 8l109 181h86z" />
    <glyph glyph-name="udieresis" unicode="&#xfc;" horiz-adv-x="652" 
d="M652 0h-262.002v64c-15.333 -24 -34.166 -42.333 -56.499 -55s-53.166 -19 -92.499 -19c-46 0 -86.667 13.667 -122 41c-36 26.667 -54 63.667 -54 111v222l-1 41c0 18 -2.83301 30.5 -8.5 37.5s-17.834 11.5 -36.501 13.5l-28 2v16h266v-327l1 -41
c0 -27.333 4.83301 -47.833 14.5 -61.5s24.167 -20.5 43.5 -20.5c21.333 0 36.833 6 46.5 18s17.5 24.333 23.5 37v270l-2 46c0 22 -3.66699 37 -11 45s-22 13.333 -44 16l-31 2v16h280v-364l1 -41c0 -18 2.83301 -30.5 8.5 -37.5s17.834 -11.5 36.501 -13.5l28 -2v-16z
M145.998 618c0 17.333 6.66602 32.668 19.999 46.001s29.333 20 48 20s34.334 -6.33301 47.001 -19s19 -28.334 19 -47.001c0 -20 -6 -36.333 -18 -49s-28 -19 -48 -19c-18.667 0 -34.667 6.66699 -48 20s-20 29.333 -20 48zM371.997 618.002c0 17.333 6.66699 32.667 20 46
s29 20 47 20c18.667 0 34.5 -6.5 47.5 -19.5s19.5 -28.5 19.5 -46.5c0 -20 -6.33301 -36.333 -19 -49s-28.667 -19 -48 -19c-18 0 -33.667 6.66699 -47 20s-20 29.333 -20 48z" />
    <glyph glyph-name="yacute" unicode="&#xfd;" horiz-adv-x="503" 
d="M61 406c-8 16.667 -14.6709 28.499 -20.0039 35.499s-12.333 11.5 -21 13.5l-39 3v16h327v-16h-15c-5.33301 0 -12.166 -0.833008 -20.499 -2.5s-12.5 -8.5 -12.5 -20.5c0 -5.33301 1.33301 -12.166 4 -20.499l8 -24.5l78 -186l32 78.5
c14.667 36.333 26.334 67.166 35.001 92.499s13 43.666 13 54.999c0 8.66699 -1.5 14.667 -4.5 18s-11.167 6 -24.5 8l-32 2v16h167v-16c-4 0 -8.16699 -0.166992 -12.5 -0.5s-12.333 -1.5 -24 -3.5s-21.5 -8 -29.5 -18s-22.833 -42.667 -44.5 -98l-70 -176
c-25 -62 -53 -126.333 -84 -193s-60 -116.667 -87 -150s-63.167 -50 -108.5 -50c-26.667 0 -51.167 9 -73.5 27s-33.5 41.333 -33.5 70c0 26.667 9 49.334 27 68.001s41 28 69 28c28.667 0 51 -8.33301 67 -25s24 -36.334 24 -59.001s-6.33301 -41 -19 -55
s-19 -22.333 -19 -25c6 0.666992 12.333 1.33398 19 2.00098c14.667 6.66699 28.834 19.334 42.501 38.001s25.834 38 36.501 58s22 43.667 34 71l-54.5 128.5l-72 168.5zM251.996 531.999c25.333 24.667 57.499 62.334 96.499 113.001s67.833 76 86.5 76
c13.333 0 24.833 -1.83301 34.5 -5.5s16.334 -7.83398 20.001 -12.501s5.5 -15 5.5 -31c0 -21.333 -4.5 -36.333 -13.5 -45s-29.5 -19.667 -61.5 -33l-88 -37c-26.667 -11.333 -50.667 -23.333 -72 -36z" />
    <glyph glyph-name="thorn" unicode="&#xfe;" horiz-adv-x="616" 
d="M262 69c2.66699 -16.667 10.167 -29.332 22.5 -37.999s26.166 -13 41.499 -13c30 0 49.667 20.5 59 61.5s14 94.167 14 159.5c0 69.333 -4.5 122.666 -13.5 159.999s-29.5 56 -61.5 56c-13.333 0 -26.166 -5.5 -38.499 -16.5s-19.5 -24.833 -21.5 -41.5
s-3.33301 -38 -4 -64s-1 -51.667 -1 -77v-21v-89.5c0 -30.333 1 -55.833 3 -76.5zM-14 -230.998l0.00195312 16.002l35 2c19.333 2 31.666 6.16699 36.999 12.5s8 19.166 8 38.499l1 41v740l-1 41c0 18.667 -2.83301 31.334 -8.5 38.001s-18.167 11 -37.5 13l-32 2v16h271
v-244l-2 -69c7.33301 15.333 19.166 30.5 35.499 45.5s47.166 22.5 92.499 22.5c64 0 116 -22.333 156 -67s60 -105.334 60 -182.001c0 -74 -20 -133.333 -60 -178s-92 -67 -156 -67c-46.667 0 -77.667 6.33301 -93 19s-26.666 26 -33.999 40l1 -64v-100l2 -46
c0 -20 3.5 -32.833 10.5 -38.5s21.833 -9.83398 44.5 -12.501l48 -3v-16h-378z" />
    <glyph glyph-name="ydieresis" unicode="&#xff;" horiz-adv-x="503" 
d="M61 406c-8 16.667 -14.6709 28.499 -20.0039 35.499s-12.333 11.5 -21 13.5l-39 3v16h327v-16h-15c-5.33301 0 -12.166 -0.833008 -20.499 -2.5s-12.5 -8.5 -12.5 -20.5c0 -5.33301 1.33301 -12.166 4 -20.499l8 -24.5l78 -186l32 78.5
c14.667 36.333 26.334 67.166 35.001 92.499s13 43.666 13 54.999c0 8.66699 -1.5 14.667 -4.5 18s-11.167 6 -24.5 8l-32 2v16h167v-16c-4 0 -8.16699 -0.166992 -12.5 -0.5s-12.333 -1.5 -24 -3.5s-21.5 -8 -29.5 -18s-22.833 -42.667 -44.5 -98l-70 -176
c-25 -62 -53 -126.333 -84 -193s-60 -116.667 -87 -150s-63.167 -50 -108.5 -50c-26.667 0 -51.167 9 -73.5 27s-33.5 41.333 -33.5 70c0 26.667 9 49.334 27 68.001s41 28 69 28c28.667 0 51 -8.33301 67 -25s24 -36.334 24 -59.001s-6.33301 -41 -19 -55
s-19 -22.333 -19 -25c6 0.666992 12.333 1.33398 19 2.00098c14.667 6.66699 28.834 19.334 42.501 38.001s25.834 38 36.501 58s22 43.667 34 71l-54.5 128.5l-72 168.5zM71.9961 617.999c0 17.333 6.66602 32.668 19.999 46.001s29.333 20 48 20
s34.334 -6.33301 47.001 -19s19 -28.334 19 -47.001c0 -20 -6 -36.333 -18 -49s-28 -19 -48 -19c-18.667 0 -34.667 6.66699 -48 20s-20 29.333 -20 48zM297.995 618.001c0 17.333 6.66699 32.667 20 46s29 20 47 20c18.667 0 34.5 -6.5 47.5 -19.5s19.5 -28.5 19.5 -46.5
c0 -20 -6.33301 -36.333 -19 -49s-28.667 -19 -48 -19c-18 0 -33.667 6.66699 -47 20s-20 29.333 -20 48z" />
    <glyph glyph-name="lessequal" unicode="&#x106;" horiz-adv-x="793" 
d="M443 -12c-114.667 0 -208.837 35.498 -282.504 106.498s-110.5 160.833 -110.5 269.5c0 111.333 36.5 201.833 109.5 271.5s167.167 104.5 282.5 104.5c49.333 0 92 -8.33301 128 -25l106 -60c20 0 33.333 6.83301 40 20.5s11.334 33.167 14.001 58.5h20v-316h-17
c-29.333 81.333 -50.166 136.333 -62.499 165s-32.833 56.334 -61.5 83.001s-65.334 40 -110.001 40c-58 0 -101 -32.667 -129 -98s-42 -141.666 -42 -228.999c0 -94 16.833 -175.5 50.5 -244.5s83.167 -103.5 148.5 -103.5c60.667 0 109.334 22 146.001 66
s61 101.333 73 172l17 -3c-9.33301 -80 -39.666 -146.333 -90.999 -199s-127.666 -79 -228.999 -79zM325.997 781.998c25.333 24.667 57.499 62.334 96.499 113.001s67.833 76 86.5 76c13.333 0 24.833 -1.83301 34.5 -5.5s16.334 -7.83398 20.001 -12.501s5.5 -15 5.5 -31
c0 -21.333 -4.5 -36.333 -13.5 -45s-29.5 -19.667 -61.5 -33l-88 -37c-26.667 -11.333 -50.667 -23.333 -72 -36z" />
    <glyph glyph-name="greaterequal" unicode="&#x107;" horiz-adv-x="533" 
d="M314 468c-18.667 0 -34.334 -7.33398 -47.001 -22.001s-22.5 -32.667 -29.5 -54s-12 -44.5 -15 -69.5s-4.5 -49.167 -4.5 -72.5c0 -60.667 10.167 -113.5 30.5 -158.5s56.166 -67.5 107.499 -67.5c36.667 0 68.667 11.5 96 34.5s48 52.167 62 87.5l15 -8
c-44.667 -98.667 -124.667 -148 -240 -148c-76 0 -140.667 22.5 -194 67.5s-80 104.5 -80 178.5c0 74.667 26.167 134.667 78.5 180s117.5 68 195.5 68c29.333 0 56.333 -3.16699 81 -9.5s47.834 -15 69.501 -26s42.334 -26.667 62.001 -47s29.5 -44.166 29.5 -71.499
c0 -24.667 -7.66699 -44.5 -23 -59.5s-38 -22.5 -68 -22.5c-26 0 -49.5 9.16699 -70.5 27.5s-31.5 39.166 -31.5 62.499c0 18 3.66699 35.333 11 52s11 30.667 11 42c0 10.667 -4 19.334 -12 26.001s-19.333 10 -34 10zM176 531.999
c25.333 24.667 57.499 62.334 96.499 113.001s67.833 76 86.5 76c13.333 0 24.833 -1.83301 34.5 -5.5s16.334 -7.83398 20.001 -12.501s5.5 -15 5.5 -31c0 -21.333 -4.5 -36.333 -13.5 -45s-29.5 -19.667 -61.5 -33l-88 -37c-26.667 -11.333 -50.667 -23.333 -72 -36z" />
    <glyph glyph-name="product" unicode="&#x10d;" horiz-adv-x="533" 
d="M314 468c-18.667 0 -34.334 -7.33398 -47.001 -22.001s-22.5 -32.667 -29.5 -54s-12 -44.5 -15 -69.5s-4.5 -49.167 -4.5 -72.5c0 -60.667 10.167 -113.5 30.5 -158.5s56.166 -67.5 107.499 -67.5c36.667 0 68.667 11.5 96 34.5s48 52.167 62 87.5l15 -8
c-44.667 -98.667 -124.667 -148 -240 -148c-76 0 -140.667 22.5 -194 67.5s-80 104.5 -80 178.5c0 74.667 26.167 134.667 78.5 180s117.5 68 195.5 68c29.333 0 56.333 -3.16699 81 -9.5s47.834 -15 69.501 -26s42.334 -26.667 62.001 -47s29.5 -44.166 29.5 -71.499
c0 -24.667 -7.66699 -44.5 -23 -59.5s-38 -22.5 -68 -22.5c-26 0 -49.5 9.16699 -70.5 27.5s-31.5 39.166 -31.5 62.499c0 18 3.66699 35.333 11 52s11 30.667 11 42c0 10.667 -4 19.334 -12 26.001s-19.333 10 -34 10zM400 713.999l-109 -181h-86l-109 181l13 7l139 -101
l141 102z" />
    <glyph glyph-name="partialdiff" unicode="&#x111;" horiz-adv-x="621" 
d="M357 568l-141.001 -0.00195312l10 28h131l-2 53c-2 22.667 -6.16699 37.834 -12.5 45.501s-19.833 12.834 -40.5 15.501l-47 3v16h294v-133h111l-10 -28h-101v-458l1 -41c0 -18.667 2.83301 -31.334 8.5 -38.001s18.167 -11 37.5 -13l32 -2v-16h-269v52
c-7.33301 -13.333 -19.166 -26.666 -35.499 -39.999s-47.166 -20 -92.499 -20c-64 0 -116 22.167 -156 66.5s-60 104.5 -60 180.5c0 74 20 133.333 60 178s92 67 156 67c47.333 0 78.666 -6.33301 93.999 -19s26.333 -26 33 -40l-1 52v91zM353.999 404.998
c-2.66699 16.667 -9.99902 29.332 -21.999 37.999s-26 13 -42 13c-20.667 0 -36.167 -9.83301 -46.5 -29.5s-17 -42 -20 -67s-4.83301 -47.667 -5.5 -68s-1 -39.166 -1 -56.499v-45c0 -12.667 1.5 -34.667 4.5 -66s9.66699 -57 20 -77s26.166 -30 47.499 -30
c36.667 0 58 17.667 64 53c1.33301 15.333 2.33301 42.5 3 81.5s1 68.167 1 87.5v92c0 28 -1 52.667 -3 74z" />
    <glyph glyph-name="pi" unicode="&#x11e;" horiz-adv-x="909" 
d="M327 379c0 -105.333 10.334 -192.833 31.001 -262.5s56.667 -104.5 108 -104.5c25.333 0 44.666 5 57.999 15s21.666 21.167 24.999 33.5s5.33301 26.833 6 43.5s1 37.334 1 62.001v39c0 28.667 -1 48 -3 58c-2 22 -6.5 37 -13.5 45s-17.833 13 -32.5 15
s-28 3.16699 -40 3.5s-23 0.833008 -33 1.5v16h468v-16l-46 -3c-20.667 -2 -34.5 -6.83301 -41.5 -14.5s-11.5 -22.834 -13.5 -45.501l-2 -47v-131l2 -90h-15c-8.66699 19.333 -23.834 37 -45.501 53s-45.5 24 -71.5 24c-23.333 0 -56.666 -14.333 -99.999 -43
s-100.666 -43 -171.999 -43c-98.667 0 -181.667 35.667 -249 107s-101 161 -101 269c0 113.333 37 204.333 111 273s168.333 103 283 103c62.667 0 122 -14 178 -42s87.333 -42.667 94 -44c19.333 0 32.333 7.16699 39 21.5s13 34.833 19 61.5h20v-323h-17
c-20 82.667 -53.167 152.667 -99.5 210s-105.5 86 -177.5 86c-57.333 0 -100 -33.167 -128 -99.5s-42 -143.5 -42 -231.5zM277.001 971l15.002 -0.000976562c3.33301 -25.333 16.666 -47.333 39.999 -66s52 -28 86 -28c35.333 0 64.666 9 87.999 27s37 40.667 41 68h15
c0 -55.333 -13.5 -100.166 -40.5 -134.499s-61.167 -51.5 -102.5 -51.5c-42.667 0 -77 16.833 -103 50.5s-39 78.5 -39 134.5z" />
    <glyph glyph-name="integral" unicode="&#x11f;" horiz-adv-x="540" 
d="M118 -81c-18.667 -2.66699 -32.167 -8.16602 -40.5 -16.499s-12.5 -20.5 -12.5 -36.5c0 -26.667 19.5 -46.834 58.5 -60.501s83.833 -20.5 134.5 -20.5c63.333 0 114.333 7 153 21s58 36.333 58 67c0 18.667 -8.66699 31 -26 37s-42 9 -74 9h-251zM291 314.001
l-2.99805 72.999c0 24.667 -3.33301 44.334 -10 59.001s-18.334 22 -35.001 22c-15.333 0 -26.5 -7.5 -33.5 -22.5s-10.5 -34.5 -10.5 -58.5l-3 -73l3 -73c0 -23.333 3.66699 -42.5 11 -57.5s18.666 -22.5 33.999 -22.5s26.5 7.33301 33.5 22s10.5 34 10.5 58zM392.002 429
c7.33301 16.667 18.6689 30.002 34.002 40.002s34 15 56 15c23.333 0 42 -6 56 -18s21 -28.333 21 -49c0 -16 -5.33301 -29.333 -16 -40s-24.667 -16 -42 -16c-16 0 -29.5 4.5 -40.5 13.5s-16.5 22.167 -16.5 39.5c0 9.33301 3.16699 18.166 9.5 26.499s9.5 14.5 9.5 18.5
c0 2.66699 -2.66699 4 -8 4c-8.66699 0 -18.334 -3.5 -29.001 -10.5s-19.334 -17.5 -26.001 -31.5c12 -12.667 21.333 -28.5 28 -47.5s10 -38.833 10 -59.5c0 -50.667 -19.333 -91.5 -58 -122.5s-84 -46.5 -136 -46.5c-32 0 -63.333 6.33301 -94 19
c-14 1.33301 -27.333 -1 -40 -7s-19 -15.667 -19 -29c0 -9.33301 5 -16.333 15 -21c9.33301 -5.33301 20 -8 32 -8h213c54.667 0 98.334 -15.667 131.001 -47s49 -70.666 49 -117.999c0 -58 -27.5 -100.667 -82.5 -128s-119.5 -41 -193.5 -41
c-60.667 0 -113.834 7.33301 -159.501 22s-68.5 40.334 -68.5 77.001c0 17.333 6.83301 31.166 20.5 41.499s30.834 17.5 51.501 21.5c-26.667 15.333 -47.5 32.5 -62.5 51.5s-22.5 42.167 -22.5 69.5c0 33.333 11 61.666 33 84.999s48.333 37.333 79 42
c-24.667 16 -43.834 35.5 -57.501 58.5s-20.5 49.5 -20.5 79.5c0 51.333 19.167 92.666 57.5 123.999s84.5 47 138.5 47c60.667 0 110 -18.333 148 -55zM107.005 721.002l15.002 -0.000976562c3.33301 -25.333 16.666 -47.333 39.999 -66s52 -28 86 -28
c35.333 0 64.666 9 87.999 27s37 40.667 41 68h15c0 -55.333 -13.5 -100.166 -40.5 -134.499s-61.167 -51.5 -102.5 -51.5c-42.667 0 -77 16.833 -103 50.5s-39 78.5 -39 134.5z" />
    <glyph glyph-name="apple" unicode="&#x130;" horiz-adv-x="536" 
d="M502 0l-471.001 0.00292969v16c4.66699 0 11 0.166992 19 0.5s21.167 1.66602 39.5 3.99902s31.333 7.83301 39 16.5s12.5 23.334 14.5 44.001l2 46v475l-2 46c-2 21.333 -6.5 36.166 -13.5 44.499s-20.833 13.833 -41.5 16.5l-54 4v16h468v-16l-54 -3
c-20.667 -2 -34.5 -6.83301 -41.5 -14.5s-11.5 -22.834 -13.5 -45.501l-2 -46v-479l2 -46c2 -22 6.83301 -36.833 14.5 -44.5s21.834 -12.834 42.501 -15.501l52 -3v-16zM182.999 868.003c0 18 6.66895 33.665 20.002 46.998s29.666 20 48.999 20
c18 0 33.667 -6.66699 47 -20s20 -29 20 -47c0 -19.333 -6.33301 -35.666 -19 -48.999s-28.667 -20 -48 -20c-18.667 0 -34.834 6.83301 -48.501 20.5s-20.5 29.834 -20.5 48.501z" />
    <glyph glyph-name="dotlessi" unicode="&#x131;" horiz-adv-x="340" 
d="M332 0h-324v16l24 1c19.333 2 31 6.66699 35 14s6 23.333 6 48l1 46v239l-1 41c-1.33301 16 -3.33301 28 -6 36s-14.667 13 -36 15l-27 2v16h262v-349l1 -46c0 -24 2 -39.833 6 -47.5s15.667 -12.5 35 -14.5l24 -1v-16z" />
    <glyph glyph-name="OE" unicode="&#x152;" horiz-adv-x="1288" 
d="M558 635c-20 56.667 -55 84.999 -105 84.999c-24.667 0 -46.334 -8 -65.001 -24s-32.834 -39.333 -42.501 -70s-16.667 -69.5 -21 -116.5s-6.5 -95.5 -6.5 -145.5c0 -67.333 2.66699 -122.666 8 -165.999s15.333 -85.833 30 -127.5s47 -62.5 97 -62.5
c24.667 0 46.334 8 65.001 24s32.834 39.333 42.501 70s16.667 69.5 21 116.5s6.5 95.5 6.5 145.5c0 59.333 -2 110.5 -6 153.5s-12 82.167 -24 117.5zM1213 728.999l-0.00292969 -295.999h-16c-34 74.667 -75.333 137.5 -124 188.5s-89.667 78.167 -123 81.5
s-59.166 5.16602 -77.499 5.49902s-34.5 0.833008 -48.5 1.5v-328l42 2c38.667 4 67.834 22.333 87.501 55s29.5 70.667 29.5 114h19v-364h-19c0 44.667 -9.66699 83.667 -29 117s-48.666 52 -87.999 56l-42 2v-344c24.667 0.666992 50.5 1.16699 77.5 1.5
s56.667 2.66602 89 6.99902s72.5 37.333 120.5 99s83.333 125.167 106 190.5h16v-318h-678c-16.667 -2.66699 -35.5 -5.16699 -56.5 -7.5s-36.833 -3.5 -47.5 -3.5c-115.333 0 -211.333 35.333 -288 106s-115 160.334 -115 269.001c0 114 37 205 111 273
s170.333 102 289 102c14 0 31.333 -1 52 -3s40.667 -4.33301 60 -7h653z" />
    <glyph glyph-name="oe" unicode="&#x153;" horiz-adv-x="864" 
d="M356 238c0 9.33301 -0.667969 28 -2.00098 56s-2 44.667 -2 50c0 36 -5.5 65.667 -16.5 89s-28.167 35 -51.5 35c-21.333 0 -37.666 -12.167 -48.999 -36.5s-17 -53.5 -17 -87.5c0 -12.667 -0.5 -28.167 -1.5 -46.5s-1.83301 -38.166 -2.5 -59.499
c0 -9.33301 0.666992 -28.5 2 -57.5s2 -45.833 2 -50.5c0 -36 5.5 -65.667 16.5 -89s27.833 -35 50.5 -35c22 0 38.667 12 50 36s17 53.333 17 88c0 13.333 0.333008 29.166 1 47.499s1.66699 38.5 3 60.5zM678.999 280c-0.666992 7.33301 -1.16895 16 -1.50195 26
s-0.5 22.667 -0.5 38c0 40.667 -4.66699 71.5 -14 92.5s-26 31.5 -50 31.5c-21.333 0 -36.166 -10.333 -44.499 -31s-14.166 -51.667 -17.499 -93l-2 -64h130zM284.997 -10c-76.667 0 -140.833 23.4961 -192.5 70.4961s-77.5 105.833 -77.5 176.5s26.167 129.5 78.5 176.5
s116.166 70.5 191.499 70.5c60 0 115.667 -18.333 167 -55c51.333 36.667 107 55 167 55c76.667 0 134.834 -21.5 174.501 -64.5s59.5 -96.167 59.5 -159.5h-304c0 -25.333 1.83301 -50.166 5.5 -74.499s10.667 -48.166 21 -71.499s25.166 -42.166 44.499 -56.499
s43 -21.5 71 -21.5c40 0 71 11 93 33s40.333 51.667 55 89l15 -6c-17.333 -51.333 -46.166 -91.166 -86.499 -119.499s-88.833 -42.5 -145.5 -42.5c-34 0 -64.167 4 -90.5 12s-53.833 21.667 -82.5 41c-26.667 -17.333 -53.5 -30.5 -80.5 -39.5s-54.833 -13.5 -83.5 -13.5z
" />
    <glyph glyph-name="approxequal" unicode="&#x15e;" horiz-adv-x="710" 
d="M387 -11l-43.0059 -57.0029c3.33301 0.666992 8.33301 1.33398 15 2.00098s13.667 1 21 1c45.333 0 77.333 -10.5 96 -31.5s28 -41.5 28 -61.5c0 -39.333 -14.667 -67 -44 -83s-61.333 -24 -96 -24c-24 0 -44.5 4.66699 -61.5 14s-25.5 22 -25.5 38c0 10 3 18.833 9 26.5
s15.333 11.5 28 11.5c14 0 23.667 -3.83301 29 -11.5s8 -16.5 8 -26.5c0 -5.33301 -1.83301 -11.166 -5.5 -17.499s-5.5 -10.5 -5.5 -12.5c9.33301 -4.66699 17 -7 23 -7c12.667 0 23.834 5.66699 33.501 17s14.5 27 14.5 47c0 26 -6 45.5 -18 58.5s-30.333 19.5 -55 19.5
c-12 0 -21.333 -0.833008 -28 -2.5s-12.667 -3.83398 -18 -6.50098l-4 5l76 103c-46 6.66699 -92 26 -138 58s-75 48 -87 48c-22 0 -35.667 -8.33301 -41 -25s-10.333 -44.667 -15 -84h-17v358h17l20.5 -69c9.66699 -32 27.667 -70.167 54 -114.5s61 -81.166 104 -110.499
s92.833 -44 149.5 -44c32.667 0 59.334 8.66699 80.001 26s31 38 31 62c0 28.667 -7.66699 51.334 -23 68.001s-43 32.834 -83 48.501l-127 50.5c-44.667 18 -92 42.333 -142 73c-50 30 -75 86.667 -75 170c0 65.333 26.333 120.666 79 165.999s113.334 68 182.001 68
c38 0 75 -9 111 -27l104 -58c19.333 0 32 8.16699 38 24.5s9 36.5 9 60.5h19v-265h-18c-3.33301 11.333 -10.166 30.666 -20.499 57.999s-30.333 58 -60 92s-59 58.5 -88 73.5s-63.833 22.5 -104.5 22.5c-27.333 0 -52.666 -8 -75.999 -24s-35 -36 -35 -60
c0 -25.333 8.83301 -46.5 26.5 -63.5s38 -30.5 61 -40.5s54.833 -22.667 95.5 -38s82.834 -33.166 126.501 -53.499s79.5 -50 107.5 -89s42 -85.167 42 -138.5c0 -66 -27.833 -120.167 -83.5 -162.5s-116.167 -63.5 -181.5 -63.5z" />
    <glyph glyph-name="Delta" unicode="&#x15f;" horiz-adv-x="484" 
d="M229 -8c-20 2 -41.8291 9.00098 -65.4961 21.001l-69.5 36c-9.33301 0 -17.166 -6.66699 -23.499 -20s-10.5 -28.666 -12.5 -45.999h-14v224h13c8.66699 -27.333 17.167 -50.666 25.5 -69.999s19.166 -38.666 32.499 -57.999s30.166 -35.333 50.499 -48
s44.833 -19 73.5 -19c16 0 30.333 4.66699 43 14s19 22 19 38c0 20 -5.33301 35.333 -16 46s-30 24.334 -58 41.001l-64 34.5c-15.333 8.33301 -32.833 19.833 -52.5 34.5s-34.334 30.667 -44.001 48s-14.5 37.666 -14.5 60.999c0 49.333 18.667 87.5 56 114.5
s83 40.5 137 40.5c25.333 0 49.333 -4.66699 72 -14l67 -33c9.33301 0 17.333 5.66699 24 17s10 24.666 10 39.999h14v-201h-13c-6 16.667 -13.167 35 -21.5 55s-20 39.667 -35 59s-30.167 34 -45.5 44s-36.666 15 -63.999 15c-18.667 0 -33.834 -4.5 -45.501 -13.5
s-17.5 -20.5 -17.5 -34.5c0 -14.667 4.16699 -26.334 12.5 -35.001s20.5 -17.834 36.5 -27.501s37.833 -22 65.5 -37s52.5 -29.833 74.5 -44.5s40.333 -32.834 55 -54.501s22 -46.5 22 -74.5c0 -52 -20.333 -90.833 -61 -116.5s-90.334 -38.5 -149.001 -38.5l-37 -49
c3.33301 0.666992 8.66602 1.33398 15.999 2.00098s14 1 20 1c42.667 0 73 -9.83301 91 -29.5s27 -39.5 27 -59.5c0 -36.667 -14 -62.334 -42 -77.001s-58 -22 -90 -22c-22 0 -41.333 4.5 -58 13.5s-25 20.833 -25 35.5c0 8 3.16699 15.833 9.5 23.5s14.833 11.5 25.5 11.5
c12.667 0 21.667 -3.66699 27 -11s8 -15.333 8 -24c0 -6 -3.66699 -15.667 -11 -29c9.33301 -4.66699 17 -7 23 -7c12 0 22.5 5.16699 31.5 15.5s13.5 25.166 13.5 44.499c0 24.667 -5.83301 43.167 -17.5 55.5s-29.167 18.5 -52.5 18.5
c-10.667 0 -19.5 -1.16699 -26.5 -3.5s-12.167 -4.16602 -15.5 -5.49902l-4 5z" />
    <glyph glyph-name="Scaron" unicode="&#x160;" horiz-adv-x="710" 
d="M671 214c0 -66 -27.8379 -120.169 -83.5049 -162.502s-116.167 -63.5 -181.5 -63.5c-57.333 0 -114 18.167 -170 54.5s-88.333 54.5 -97 54.5c-22 0 -35.667 -8.33301 -41 -25s-10.333 -44.667 -15 -84h-17v358h17l20.5 -69c9.66699 -32 27.667 -70.167 54 -114.5
s61 -81.166 104 -110.499s92.833 -44 149.5 -44c32.667 0 59.334 8.66699 80.001 26s31 38 31 62c0 28.667 -7.66699 51.334 -23 68.001s-43 32.834 -83 48.501l-127 50.5c-44.667 18 -92 42.333 -142 73c-50 30 -75 86.667 -75 170c0 65.333 26.333 120.666 79 165.999
s113.334 68 182.001 68c38 0 75 -9 111 -27l104 -58c19.333 0 32 8.16699 38 24.5s9 36.5 9 60.5h19v-265h-18c-3.33301 11.333 -10.166 30.666 -20.499 57.999s-30.333 58 -60 92s-59 58.5 -88 73.5s-63.833 22.5 -104.5 22.5c-27.333 0 -52.666 -8 -75.999 -24
s-35 -36 -35 -60c0 -25.333 8.83301 -46.5 26.5 -63.5s38 -30.5 61 -40.5s54.833 -22.667 95.5 -38s82.834 -33.166 126.501 -53.499s79.5 -50 107.5 -89s42 -85.167 42 -138.5zM489.995 963.998l-109 -181h-86l-109 181l13 7l139 -101l141 102z" />
    <glyph glyph-name="scaron" unicode="&#x161;" horiz-adv-x="484" 
d="M44 207l13.0059 0.00195312c17.333 -54 34.666 -93.667 51.999 -119s36.166 -44.333 56.499 -57s45.166 -19 74.499 -19c16.667 0 31 4.5 43 13.5s18 21.5 18 37.5c0 20.667 -4.66699 36 -14 46s-24 20.833 -44 32.5l-69.5 39c-26.333 14.333 -48.333 28.333 -66 42
s-31.334 29.167 -41.001 46.5s-14.5 37.333 -14.5 60c0 49.333 18.667 87.5 56 114.5s83 40.5 137 40.5c25.333 0 49.333 -4.66699 72 -14l67 -33c9.33301 0 17.333 5.66699 24 17s10 24.666 10 39.999h14v-201h-13c-5.33301 16 -12 33.667 -20 53s-19.5 38.833 -34.5 58.5
s-30.833 34.834 -47.5 45.501s-38 16 -64 16c-18.667 0 -33.834 -4.5 -45.501 -13.5s-17.5 -20.167 -17.5 -33.5c0 -15.333 4.16699 -27.333 12.5 -36s20.5 -17.834 36.5 -27.501s37.833 -22 65.5 -37s52.5 -29.833 74.5 -44.5s40.333 -32.834 55 -54.501s22 -46.5 22 -74.5
c0 -51.333 -19.5 -90 -58.5 -116s-86.167 -39 -141.5 -39c-28.667 0 -56.667 6 -84 18l-79 41c-8.66699 0 -16.334 -7 -23.001 -21s-10.667 -29 -12 -45h-14v224zM415.006 714.002l-109 -181h-86l-109 181l13 7l139 -101l141 102z" />
    <glyph glyph-name="Ydieresis" unicode="&#x178;" horiz-adv-x="744" 
d="M524 127l2 -45.9951c2 -21.333 6.5 -36.166 13.5 -44.499s17.667 -13.333 32 -15s27.5 -2.83398 39.5 -3.50098s22.333 -1.33398 31 -2.00098v-16h-487v16l66 3c20 2 33.667 7 41 15s12 23 14 45l2 46v186l-189 308c-22.667 35.333 -40.5 58.666 -53.5 69.999
s-30.167 18.333 -51.5 21l-28 3v16h467v-16l-52 -2c-14 -1.33301 -24 -3.33301 -30 -6s-9 -9 -9 -19c0 -7.33301 1.33301 -14.5 4 -21.5s9.33398 -19.667 20.001 -38s31.167 -51.833 61.5 -100.5l87.5 -139l74 127.5c26.667 45.667 46.5 80.667 59.5 105
s19.5 44.166 19.5 59.499c0 18 -14.667 28.667 -44 32l-40 2v16h238v-16l-26 -2c-22.667 0 -41.667 -4.33301 -57 -13s-31.333 -25.834 -48 -51.501s-39.834 -64.334 -69.501 -116.001l-87.5 -154.5v-249zM252 868.005c0 17.333 6.66602 32.668 19.999 46.001
s29.333 20 48 20s34.334 -6.33301 47.001 -19s19 -28.334 19 -47.001c0 -20 -6 -36.333 -18 -49s-28 -19 -48 -19c-18.667 0 -34.667 6.66699 -48 20s-20 29.333 -20 48zM477.999 868.007c0 17.333 6.66699 32.667 20 46s29 20 47 20c18.667 0 34.5 -6.5 47.5 -19.5
s19.5 -28.5 19.5 -46.5c0 -20 -6.33301 -36.333 -19 -49s-28.667 -19 -48 -19c-18 0 -33.667 6.66699 -47 20s-20 29.333 -20 48z" />
    <glyph glyph-name="florin" unicode="&#x192;" horiz-adv-x="644" 
d="M428 387l151.998 0.00292969l-10 -28h-139l1 -36c0 -48 -3.33301 -95.833 -10 -143.5s-18.667 -97.834 -36 -150.501s-52.166 -107.334 -104.499 -164.001s-115.5 -85 -189.5 -85c-41.333 0 -77.833 10.167 -109.5 30.5s-47.5 47.5 -47.5 81.5
c0 26.667 8.16699 49.5 24.5 68.5s41.166 28.5 74.499 28.5c26 0 48.167 -7.83301 66.5 -23.5s27.5 -35.5 27.5 -59.5s-4 -42.667 -12 -56l-29 -40c0 -2 0.333008 -4.5 1 -7.5s4.66699 -4.5 12 -4.5c31.333 0 56 13 74 39s27 61.333 27 106
c0 59.333 -5.16699 126.666 -15.5 201.999s-15.5 146.666 -15.5 213.999h-130l10 28h123c2.66699 18 6.33398 38.5 11.001 61.5s16.334 57 35.001 102s53 87.833 103 128.5s110.333 61 181 61c46.667 0 83.167 -9.5 109.5 -28.5s39.5 -43.833 39.5 -74.5
c0 -26.667 -8 -48 -24 -64s-37 -24 -63 -24s-47.667 6.66699 -65 20s-26 30 -26 50c0 22.667 5.5 40.834 16.5 54.501s16.5 25.5 16.5 35.5c0 4.66699 -1.5 8 -4.5 10s-7.83301 3 -14.5 3c-32 0 -53 -16 -63 -48s-15 -69.667 -15 -113c0 -20 2 -46 6 -78z" />
    <glyph glyph-name="circumflex" unicode="&#x2c6;" 
d="M400 526l-11 -8l-141 102l-141 -102l-11 8l109 181h86z" />
    <glyph glyph-name="caron" unicode="&#x2c7;" 
d="M400 714l-109 -181h-86l-109 181l13 7l139 -101l141 102z" />
    <glyph glyph-name="macron" unicode="&#x2c9;" 
d="M100 573v76h300v-76h-300z" />
    <glyph glyph-name="breve" unicode="&#x2d8;" 
d="M107 721l15.002 -0.000976562c3.33301 -25.333 16.666 -47.333 39.999 -66s52 -28 86 -28c35.333 0 64.666 9 87.999 27s37 40.667 41 68h15c0 -55.333 -13.5 -100.166 -40.5 -134.499s-61.167 -51.5 -102.5 -51.5c-42.667 0 -77 16.833 -103 50.5s-39 78.5 -39 134.5z
" />
    <glyph glyph-name="dotaccent" unicode="&#x2d9;" 
d="M183 618c0 18 6.66895 33.665 20.002 46.998s29.666 20 48.999 20c18 0 33.667 -6.66699 47 -20s20 -29 20 -47c0 -19.333 -6.33301 -35.666 -19 -48.999s-28.667 -20 -48 -20c-18.667 0 -34.834 6.83301 -48.501 20.5s-20.5 29.834 -20.5 48.501z" />
    <glyph glyph-name="ring" unicode="&#x2da;" 
d="M184 630c0 -18.667 6 -34 18 -46s27.333 -18 46 -18s34.167 5.83301 46.5 17.5s18.5 27.167 18.5 46.5c0 18.667 -6.16699 34.167 -18.5 46.5s-27.833 18.5 -46.5 18.5s-34 -6 -46 -18s-18 -27.667 -18 -47zM143 630c0 30 10.333 54.667 31 74s45.667 29 75 29
s54.5 -9.5 75.5 -28.5s31.5 -43.833 31.5 -74.5c0 -29.333 -10.5 -53.833 -31.5 -73.5s-46.167 -29.5 -75.5 -29.5c-28.667 0 -53.5 9.83301 -74.5 29.5s-31.5 44.167 -31.5 73.5z" />
    <glyph glyph-name="ogonek" unicode="&#x2db;" 
d="M280 0c-30 -23.333 -50.501 -43.002 -61.501 -59.002s-16.5 -34.667 -16.5 -56c0 -15.333 4 -27.666 12 -36.999s18.667 -14 32 -14c24.667 0 44 12 58 36l13 -7c-13.333 -29.333 -30.166 -51.833 -50.499 -67.5s-42.833 -23.5 -67.5 -23.5
c-26 0 -46.167 6.83301 -60.5 20.5s-21.5 31.834 -21.5 54.501c0 27.333 11.333 52 34 74s59.667 48.333 111 79h18z" />
    <glyph glyph-name="tilde" unicode="&#x2dc;" 
d="M183 590c-21.333 0 -37 -3.66797 -47 -11.001s-17.667 -20.666 -23 -39.999h-17c10 48.667 24.167 83.5 42.5 104.5s43.166 31.5 74.499 31.5c10 0 31.333 -4.33301 64 -13s51 -13 55 -13c38.667 0 62.334 17 71.001 51h17c-10 -48.667 -24.167 -83.5 -42.5 -104.5
s-43.166 -31.5 -74.499 -31.5c-14.667 0 -37.834 4.33301 -69.501 13s-48.5 13 -50.5 13z" />
    <glyph glyph-name="endash" unicode="&#x2013;" 
d="M500 288v-81h-500v81h500z" />
    <glyph glyph-name="emdash" unicode="&#x2014;" horiz-adv-x="1000" 
d="M1000 288v-81h-1000v81h1000z" />
    <glyph glyph-name="quoteleft" unicode="&#x2018;" horiz-adv-x="232" 
d="M213 516c0 -26 -8.33105 -47.666 -24.998 -64.999s-38.334 -26 -65.001 -26c-32.667 0 -59.5 12.167 -80.5 36.5s-31.5 53.5 -31.5 87.5c0 49.333 18.333 91.666 55 126.999s81 53 133 53l2 -14c-32 0 -61.333 -11.333 -88 -34s-40 -48.667 -40 -78
c0 -6.66699 0.833008 -11.667 2.5 -15s4.16699 -5 7.5 -5c6 0 13.333 2.16699 22 6.5s16.667 6.5 24 6.5c23.333 0 43.166 -7.5 59.499 -22.5s24.5 -34.167 24.5 -57.5z" />
    <glyph glyph-name="quoteright" unicode="&#x2019;" horiz-adv-x="232" 
d="M31 445c32 0 61.3311 11.332 87.998 33.999s40 48.667 40 78c0 6.66699 -0.833008 11.667 -2.5 15s-4.16699 5 -7.5 5c-5.33301 0 -12.333 -2.16699 -21 -6.5s-17 -6.5 -25 -6.5c-23.333 0 -43.166 7.5 -59.499 22.5s-24.5 34.167 -24.5 57.5c0 26 8.33301 47.667 25 65
s38.334 26 65.001 26c32.667 0 59.5 -12.167 80.5 -36.5s31.5 -53.5 31.5 -87.5c0 -49.333 -18.333 -91.666 -55 -126.999s-81 -53 -133 -53z" />
    <glyph glyph-name="quotesinglbase" unicode="&#x201a;" horiz-adv-x="232" 
d="M31 -120c32 0 61.333 11.332 88 33.999s40 48.667 40 78c0 13.333 -3 20 -9 20c-4.66699 0 -11.334 -2.16699 -20.001 -6.5s-18 -6.5 -28 -6.5c-20.667 0 -39.667 7.66699 -57 23s-26 34.333 -26 57c0 26 8.33301 47.667 25 65s38.334 26 65.001 26
c32.667 0 59.5 -12.167 80.5 -36.5s31.5 -53.5 31.5 -87.5c0 -49.333 -18.333 -91.666 -55 -126.999s-81 -53 -133 -53z" />
    <glyph glyph-name="quotedblleft" unicode="&#x201c;" horiz-adv-x="459" 
d="M441 516c0 -26 -8.33398 -47.666 -25.001 -64.999s-38.334 -26 -65.001 -26c-32.667 0 -59.5 12.167 -80.5 36.5s-31.5 53.5 -31.5 87.5c0 49.333 18.333 91.666 55 126.999s81 53 133 53l2 -14c-32 0 -61.333 -11.333 -88 -34s-40 -48.667 -40 -78
c0 -6.66699 0.833008 -11.667 2.5 -15s4.16699 -5 7.5 -5c4.66699 0 11.834 2.16699 21.501 6.5s17.834 6.5 24.501 6.5c22 0 41.5 -7.5 58.5 -22.5s25.5 -34.167 25.5 -57.5zM212.999 516.001c0 -26 -8.33398 -47.666 -25.001 -64.999s-38.334 -26 -65.001 -26
c-32.667 0 -59.5 12.167 -80.5 36.5s-31.5 53.5 -31.5 87.5c0 49.333 18.333 91.666 55 126.999s81 53 133 53l2 -14c-32 0 -61.333 -11.333 -88 -34s-40 -48.667 -40 -78c0 -6.66699 0.833008 -11.667 2.5 -15s4.16699 -5 7.5 -5c4.66699 0 11.834 2.16699 21.501 6.5
s17.834 6.5 24.501 6.5c22 0 41.5 -7.5 58.5 -22.5s25.5 -34.167 25.5 -57.5z" />
    <glyph glyph-name="quotedblright" unicode="&#x201d;" horiz-adv-x="459" 
d="M31 445c32 0 61.3311 11.332 87.998 33.999s40 48.667 40 78c0 13.333 -3 20 -9 20c-4.66699 0 -12.167 -2.16699 -22.5 -6.5s-18.5 -6.5 -24.5 -6.5c-21.333 0 -40.666 7.66699 -57.999 23s-26 34.333 -26 57c0 26 8.33301 47.667 25 65s38.334 26 65.001 26
c32.667 0 59.5 -12.167 80.5 -36.5s31.5 -53.5 31.5 -87.5c0 -49.333 -18.333 -91.666 -55 -126.999s-81 -53 -133 -53zM258.998 444.999c32 0 61.332 11.332 87.999 33.999s40 48.667 40 78c0 13.333 -3 20 -9 20c-4.66699 0 -12.167 -2.16699 -22.5 -6.5
s-18.5 -6.5 -24.5 -6.5c-22 0 -41.5 7.5 -58.5 22.5s-25.5 34.167 -25.5 57.5c0 26 8.33301 47.667 25 65s38.334 26 65.001 26c32.667 0 59.5 -12.167 80.5 -36.5s31.5 -53.5 31.5 -87.5c0 -49.333 -18.333 -91.666 -55 -126.999s-81 -53 -133 -53z" />
    <glyph glyph-name="quotedblbase" unicode="&#x201e;" horiz-adv-x="459" 
d="M31 -120c32 0 61.3311 11.332 87.998 33.999s40 48.667 40 78c0 13.333 -3 20 -9 20c-5.33301 0 -12 -2.16699 -20 -6.5s-17 -6.5 -27 -6.5c-21.333 0 -40.666 7.66699 -57.999 23s-26 34.333 -26 57c0 26 8.33301 47.667 25 65s38.334 26 65.001 26
c32.667 0 59.5 -12.167 80.5 -36.5s31.5 -53.5 31.5 -87.5c0 -49.333 -18.333 -91.666 -55 -126.999s-81 -53 -133 -53zM258.998 -120.001c32 0 61.3311 11.332 87.998 33.999s40 48.667 40 78c0 13.333 -3 20 -9 20c-5.33301 0 -12 -2.16699 -20 -6.5s-17 -6.5 -27 -6.5
c-21.333 0 -40.666 7.66699 -57.999 23s-26 34.333 -26 57c0 26 8.33301 47.667 25 65s38.334 26 65.001 26c32.667 0 59.5 -12.167 80.5 -36.5s31.5 -53.5 31.5 -87.5c0 -49.333 -18.333 -91.666 -55 -126.999s-81 -53 -133 -53z" />
    <glyph glyph-name="dagger" unicode="&#x2020;" horiz-adv-x="480" 
d="M221 400c-4 -0.666992 -16.3359 -2.33008 -37.0029 -4.99707s-39 -4 -55 -4c-22.667 0 -44 4.83301 -64 14.5s-30 24.167 -30 43.5c0 14 3.16699 25.833 9.5 35.5s17.166 14.5 32.499 14.5c10 0 18.667 -4 26 -12s11 -16.667 11 -26c0 -12 0.666992 -20.833 2 -26.5
s5.33301 -8.5 12 -8.5c32.667 0 54 0.333008 64 1s18 2 24 4v8c-8 14 -15.667 29.167 -23 45.5s-11 31.166 -11 44.499c0 30 12.333 58.333 37 85v11c-11.333 3.33301 -21.166 9.33301 -29.499 18s-12.5 18.667 -12.5 30c0 14 4.83301 26.5 14.5 37.5s21.167 16.5 34.5 16.5
v16c0 8.66699 3.66699 13 11 13s11 -4.33301 11 -13v-16c12.667 0 23.5 -4.83301 32.5 -14.5s13.5 -20.834 13.5 -33.501c0 -13.333 -3.66699 -24.166 -11 -32.499s-17.666 -15.5 -30.999 -21.5v-8c14.667 -15.333 25.334 -29.333 32.001 -42s10 -27.334 10 -44.001
c0 -20 -4 -37.333 -12 -52s-16 -27.334 -24 -38.001v-8c18.667 2 34.5 3.83301 47.5 5.5s27.5 2.5 43.5 2.5c29.333 0 52.333 -4.5 69 -13.5s25 -23.833 25 -44.5c0 -14 -3.33301 -25.833 -10 -35.5s-17.334 -14.5 -32.001 -14.5c-10 0 -18.667 4 -26 12s-11 16.667 -11 26
c0 12 -0.666992 20.833 -2 26.5s-5.33301 8.5 -12 8.5c-29.333 0 -50.166 -0.333008 -62.499 -1s-23.166 -2 -32.499 -4v-23l31 -41l-14 -505l-32 -37h-5l-33 37l-17 506l36 41v21z" />
    <glyph glyph-name="daggerdbl" unicode="&#x2021;" horiz-adv-x="480" 
d="M217 400c-6 -0.666992 -18.335 -2.33398 -37.002 -5.00098s-35.667 -4 -51 -4c-22.667 0 -44 4.83301 -64 14.5s-30 24.167 -30 43.5c0 14.667 3.16699 26.667 9.5 36s17.166 14 32.499 14c10 0 18.667 -4 26 -12s11 -16.667 11 -26c0 -12 0.666992 -20.833 2 -26.5
s5.33301 -8.5 12 -8.5c30.667 0 51.334 0.333008 62.001 1s19.334 2 26.001 4v8c-8 14 -15.667 29.167 -23 45.5s-11 31.166 -11 44.499c0 30 12.333 58.333 37 85v11c-11.333 3.33301 -21.166 9.33301 -29.499 18s-12.5 18.667 -12.5 30c0 14 4.83301 26.5 14.5 37.5
s21.167 16.5 34.5 16.5v16c0 8.66699 3.66699 13 11 13s11 -4.33301 11 -13v-16c12.667 0 23.5 -4.83301 32.5 -14.5s13.5 -20.834 13.5 -33.501c0 -13.333 -3.66699 -24.166 -11 -32.499s-17.666 -15.5 -30.999 -21.5v-8c14.667 -15.333 25.334 -29.333 32.001 -42
s10 -27.334 10 -44.001c0 -20 -4 -37.333 -12 -52s-16 -27.334 -24 -38.001v-8c18.667 2 34.5 3.83301 47.5 5.5s27.5 2.5 43.5 2.5c29.333 0 52.333 -4.5 69 -13.5s25 -23.833 25 -44.5c0 -14.667 -3.16699 -26.667 -9.5 -36s-17.166 -14 -32.499 -14
c-10 0 -18.667 4 -26 12s-11 16.667 -11 26c0 12 -0.666992 20.833 -2 26.5s-5.33301 8.5 -12 8.5c-28.667 0 -49 -0.333008 -61 -1s-22 -2 -30 -4v-252c5.33301 0.666992 17.833 2.33398 37.5 5.00098s37.167 4 52.5 4c22.667 0 44 -4.83301 64 -14.5s30 -24.167 30 -43.5
c0 -14.667 -3.16699 -26.667 -9.5 -36s-17.166 -14 -32.499 -14c-10 0 -18.667 4 -26 12s-11 16.667 -11 26c0 12 -0.666992 20.833 -2 26.5s-5.33301 8.5 -12 8.5c-34 0 -56.333 -0.5 -67 -1.5s-18.334 -2.16699 -23.001 -3.5v-8c8 -14 15.667 -29.167 23 -45.5
s11 -31.166 11 -44.499c0 -30 -12.333 -58.333 -37 -85v-11c11.333 -3.33301 21.166 -9.33301 29.499 -18s12.5 -18.667 12.5 -30c0 -14 -4.83301 -26.5 -14.5 -37.5s-21.167 -16.5 -34.5 -16.5v-16c0 -8.66699 -3.66699 -13 -11 -13s-11 4.33301 -11 13v16
c-12.667 0 -23.5 4.83301 -32.5 14.5s-13.5 20.834 -13.5 33.501c0 13.333 3.66699 24.166 11 32.499s17.666 15.5 30.999 21.5v8c-14.667 15.333 -25.334 29.333 -32.001 42s-10 27.334 -10 44.001c0 20 4 37.333 12 52s16 27.334 24 38.001v8l-45 -5.5
c-13.333 -1.66699 -28 -2.5 -44 -2.5c-29.333 0 -52.333 4.5 -69 13.5s-25 23.833 -25 44.5c0 14.667 3 26.667 9 36s17 14 33 14c10 0 18.667 -4 26 -12s11 -16.667 11 -26c0 -12 0.666992 -20.833 2 -26.5s5.33301 -8.5 12 -8.5c32.667 0 54.5 0.5 65.5 1.5
s18.833 2.16699 23.5 3.5v252z" />
    <glyph glyph-name="bullet" unicode="&#x2022;" horiz-adv-x="588" 
d="M40 366c0 70 24.833 129.833 74.5 179.5s109.5 74.5 179.5 74.5s129.833 -24.833 179.5 -74.5s74.5 -109.5 74.5 -179.5s-24.833 -129.833 -74.5 -179.5s-109.5 -74.5 -179.5 -74.5s-129.833 24.833 -179.5 74.5s-74.5 109.5 -74.5 179.5z" />
    <glyph glyph-name="ellipsis" unicode="&#x2026;" horiz-adv-x="1000" 
d="M71 86c0 25.333 9.5 47.168 28.5 65.501s41.5 27.5 67.5 27.5c26.667 0 49.5 -8.83301 68.5 -26.5s28.5 -39.834 28.5 -66.501c0 -26 -9.5 -48.167 -28.5 -66.5s-41.833 -27.5 -68.5 -27.5c-26 0 -48.5 9.16699 -67.5 27.5s-28.5 40.5 -28.5 66.5zM404 86.002
c0 25.333 9.5 47.168 28.5 65.501s41.5 27.5 67.5 27.5c26.667 0 49.5 -8.83301 68.5 -26.5s28.5 -39.834 28.5 -66.501c0 -26 -9.5 -48.167 -28.5 -66.5s-41.833 -27.5 -68.5 -27.5c-26 0 -48.5 9.16699 -67.5 27.5s-28.5 40.5 -28.5 66.5zM737 86.0039
c0 25.333 9.5 47.168 28.5 65.501s41.5 27.5 67.5 27.5c26.667 0 49.5 -8.83301 68.5 -26.5s28.5 -39.834 28.5 -66.501c0 -26 -9.5 -48.167 -28.5 -66.5s-41.833 -27.5 -68.5 -27.5c-26 0 -48.5 9.16699 -67.5 27.5s-28.5 40.5 -28.5 66.5z" />
    <glyph glyph-name="guilsinglleft" unicode="&#x2039;" horiz-adv-x="325" 
d="M286 74l-11 -9.99902l-233 167v28l233 166l11 -10l-52 -77c-19.333 -29.333 -37 -60.333 -53 -93c17.333 -34.667 35.333 -66.334 54 -95.001z" />
    <glyph glyph-name="guilsinglright" unicode="&#x203a;" horiz-adv-x="325" 
d="M283 231l-232.999 -166.999l-11 10l51 75.5c18.667 28.333 36.667 60.166 54 95.499c-16.667 33.333 -34.334 64.333 -53.001 93l-52 77l11 10l233 -166v-28z" />
    <glyph glyph-name="Euro" unicode="&#x20ac;" horiz-adv-x="757" 
d="M728 213c-14 -69.333 -42.501 -124.167 -85.501 -164.5s-112.833 -60.5 -209.5 -60.5c-97.333 0 -181.5 29 -252.5 87s-113.5 136.333 -127.5 235h-56l8 27h45c-0.666992 6 -1 14.667 -1 26c0 12 0.333008 21 1 27h-53l8 27h48c14 98.667 56.167 177.167 126.5 235.5
s154.166 87.5 251.499 87.5c45.333 0 81.333 -4.33301 108 -13s55.334 -25.334 86.001 -50.001c16.667 -13.333 29.667 -20 39 -20c14.667 0 24.667 25.333 30 76h20v-255h-16c-29.333 82.667 -60.666 141.334 -93.999 176.001s-72 52 -116 52
c-57.333 0 -102 -24.667 -134 -74s-50.667 -121 -56 -215h366l-11 -27h-356v-12c0 -18 0.333008 -31.667 1 -41h344l-11 -27h-331c8 -90.667 30 -160 66 -208s84.667 -72 146 -72c96 0 162 62 198 186z" />
    <glyph glyph-name="trademark" unicode="&#x2122;" horiz-adv-x="730" 
d="M41 729l276.002 -0.000976562v-115h-12c-7.33301 17.333 -18 38.833 -32 64.5s-27.333 38.5 -40 38.5h-11v-215c2 -13.333 8.66699 -20.666 20 -21.999l21 -1v-12h-171v12l24 1c12.667 0 19 7 19 21l1 17v199h-11c-12.667 0 -25.834 -12.5 -39.501 -37.5
s-24.834 -46.833 -33.501 -65.5h-11v115zM380.002 521.999l1.00098 -17c0 -14.667 7.33301 -23 22 -25l21 -2v-11h-104v11l20 2c14 2 21 10.333 21 25l1 17v155l-1 17c-2 6 -4.33301 10.833 -7 14.5s-7.33398 5.83398 -14.001 6.50098l-13 2v12h128l55 -146l53 146h131v-12
l-21 -1c-13.333 -2 -20 -9.66699 -20 -23l-1 -16v-159l1 -16c0 -12.667 6.33301 -20 19 -22l18 -2v-11h-161v11l17 1c12 1.33301 18.667 8.66602 20 21.999v139l2 50l-12 -36l-66 -187h-26l-82 207z" />
    <glyph glyph-name="fraction" unicode="&#x2215;" horiz-adv-x="167" 
d="M-168 -2l463 742l36 -21l-464 -743z" />
    <glyph glyph-name="periodcentered" unicode="&#x2219;" horiz-adv-x="272" 
d="M36 331c0 26.667 9.66699 49.332 29 67.999s42.666 28 69.999 28s50.833 -9.16699 70.5 -27.5s29.5 -41.166 29.5 -68.499s-9.66699 -50.333 -29 -69s-43 -28 -71 -28c-27.333 0 -50.666 9.33301 -69.999 28s-29 41.667 -29 69z" />
    <glyph glyph-name="lozenge" unicode="&#x25ca;" horiz-adv-x="447" 
d="M23 358l158 323h55l165 -323l-167 -324h-55zM100 357l107 -213l112 213l-110 214z" />
    <glyph glyph-name="fi" unicode="&#xf001;" horiz-adv-x="664" 
d="M399 402c0 16 -1.99902 26.167 -5.99902 30.5s-15.667 6.5 -35 6.5h-91v-314l1 -46c0 -22.667 0.833008 -38.667 2.5 -48s13.5 -14 35.5 -14l16 -1v-16h-313v16l24 1c19.333 2 31 6.66699 35 14s6 23.333 6 48l1 46v311h-73l16 38h57l3 72
c0 46.667 30.167 90.5 90.5 131.5s132.166 61.5 215.499 61.5c55.333 0 96.333 -7.66699 123 -23s45.167 -30.666 55.5 -45.999s15.5 -31.333 15.5 -48c0 -28.667 -9.33301 -52.334 -28 -71.001s-42 -28 -70 -28c-28.667 0 -52.667 7.66699 -72 23s-29 37.333 -29 66
c0 18.667 7.5 36.167 22.5 52.5s22.5 26.5 22.5 30.5c0 8 -5 14.333 -15 19s-23.667 7 -41 7c-32.667 0 -57.167 -14.167 -73.5 -42.5s-24.5 -64.833 -24.5 -109.5c0 -24 -0.333008 -43.333 -1 -58s-1.66699 -27 -3 -37h325v-349l1 -46c0 -24 2 -39.833 6 -47.5
s15.667 -12.5 35 -14.5l24 -1v-16h-315v16l19 1c18 0 28.667 3.83301 32 11.5s5 24.5 5 50.5l1 46v277z" />
    <glyph glyph-name="fi" unicode="&#xfb01;" horiz-adv-x="664" 
d="M399 402c0 16 -1.99902 26.167 -5.99902 30.5s-15.667 6.5 -35 6.5h-91v-314l1 -46c0 -22.667 0.833008 -38.667 2.5 -48s13.5 -14 35.5 -14l16 -1v-16h-313v16l24 1c19.333 2 31 6.66699 35 14s6 23.333 6 48l1 46v311h-73l16 38h57l3 72
c0 46.667 30.167 90.5 90.5 131.5s132.166 61.5 215.499 61.5c55.333 0 96.333 -7.66699 123 -23s45.167 -30.666 55.5 -45.999s15.5 -31.333 15.5 -48c0 -28.667 -9.33301 -52.334 -28 -71.001s-42 -28 -70 -28c-28.667 0 -52.667 7.66699 -72 23s-29 37.333 -29 66
c0 18.667 7.5 36.167 22.5 52.5s22.5 26.5 22.5 30.5c0 8 -5 14.333 -15 19s-23.667 7 -41 7c-32.667 0 -57.167 -14.167 -73.5 -42.5s-24.5 -64.833 -24.5 -109.5c0 -24 -0.333008 -43.333 -1 -58s-1.66699 -27 -3 -37h325v-349l1 -46c0 -24 2 -39.833 6 -47.5
s15.667 -12.5 35 -14.5l24 -1v-16h-315v16l19 1c18 0 28.667 3.83301 32 11.5s5 24.5 5 50.5l1 46v277z" />
    <glyph glyph-name="fl" unicode="&#xf002;" horiz-adv-x="667" 
d="M401 683c0 7.33301 -4.5 15 -13.5 23s-20.167 12 -33.5 12c-29.333 0 -50.666 -14.333 -63.999 -43s-20 -64 -20 -106l-4 -95h105l-17 -38h-87v-311l1 -46c0 -24.667 1.66699 -40.5 5 -47.5s14.333 -11.833 33 -14.5l16 -1v-16h-313v16l24 1c19.333 2 31 6.66699 35 14
s6 23.333 6 48l1 46v311h-73l16 38h57c0 15.333 0.5 29.833 1.5 43.5s1.5 22.5 1.5 26.5c0 48.667 27.167 93 81.5 133s127.833 60 220.5 60c18 0 35.167 -0.833008 51.5 -2.5s31.166 -3.5 44.499 -5.5h119v-604l1 -46c0 -24 2 -39.833 6 -47.5s15.667 -12.5 35 -14.5l24 -1
v-16h-315v16l19 1c18 0 28.667 3.83301 32 11.5s5 24.5 5 50.5l1 46v521z" />
    <glyph glyph-name="fl" unicode="&#xfb02;" horiz-adv-x="667" 
d="M401 683c0 7.33301 -4.5 15 -13.5 23s-20.167 12 -33.5 12c-29.333 0 -50.666 -14.333 -63.999 -43s-20 -64 -20 -106l-4 -95h105l-17 -38h-87v-311l1 -46c0 -24.667 1.66699 -40.5 5 -47.5s14.333 -11.833 33 -14.5l16 -1v-16h-313v16l24 1c19.333 2 31 6.66699 35 14
s6 23.333 6 48l1 46v311h-73l16 38h57c0 15.333 0.5 29.833 1.5 43.5s1.5 22.5 1.5 26.5c0 48.667 27.167 93 81.5 133s127.833 60 220.5 60c18 0 35.167 -0.833008 51.5 -2.5s31.166 -3.5 44.499 -5.5h119v-604l1 -46c0 -24 2 -39.833 6 -47.5s15.667 -12.5 35 -14.5l24 -1
v-16h-315v16l19 1c18 0 28.667 3.83301 32 11.5s5 24.5 5 50.5l1 46v521z" />
    <glyph glyph-name=".null" horiz-adv-x="0" 
 />
    <glyph glyph-name="nonmarkingreturn" horiz-adv-x="250" 
 />
    </font>
</defs>
</svg>
